STARTFONT 2.1
COMMENT
COMMENT Converted from OpenType font "ipaexm.ttf" by "otf2bdf 3.0".
COMMENT
FONT -FreeType-IPAexMincho-Medium-R-Normal--20-200-72-72-P-174-ISO10646-1
SIZE 20 72 72
FONTBOUNDINGBOX 25 24 -5 -6
STARTPROPERTIES 19
FOUNDRY "FreeType"
FAMILY_NAME "IPAexMincho"
WEIGHT_NAME "Medium"
SLANT "R"
SETWIDTH_NAME "Normal"
ADD_STYLE_NAME ""
PIXEL_SIZE 20
POINT_SIZE 200
RESOLUTION_X 72
RESOLUTION_Y 72
SPACING "P"
AVERAGE_WIDTH 174
CHARSET_REGISTRY "ISO10646"
CHARSET_ENCODING "1"
FONT_ASCENT 17
FONT_DESCENT 2
COPYRIGHT "Copyright(c) Information-technology Promotion Agency, Japan (IPA), 2003-2019. You must accept "https://opensource.org/licenses/IPA/" to use this product."
_OTF_FONTFILE "ipaexm.ttf"
_OTF_PSNAME "IPAexMincho"
ENDPROPERTIES
CHARS 11691
STARTCHAR 0020
ENCODING 32
SWIDTH 300 0
DWIDTH 6 0
BBX 0 0 0 0
BITMAP
ENDCHAR
STARTCHAR 0021
ENCODING 33
SWIDTH 300 0
DWIDTH 6 0
BBX 2 14 2 0
BITMAP
80
C0
C0
C0
C0
80
80
80
80
00
00
00
C0
C0
ENDCHAR
STARTCHAR 0022
ENCODING 34
SWIDTH 350 0
DWIDTH 7 0
BBX 5 5 1 10
BITMAP
D8
D8
D8
58
48
ENDCHAR
STARTCHAR 0023
ENCODING 35
SWIDTH 600 0
DWIDTH 12 0
BBX 10 14 1 0
BITMAP
0880
0980
0900
1100
FFC0
1100
1100
1200
FFC0
2200
2200
2200
2200
6400
ENDCHAR
STARTCHAR 0024
ENCODING 36
SWIDTH 600 0
DWIDTH 12 0
BBX 9 16 2 -1
BITMAP
0800
3C00
4B00
8B00
8B00
8800
C800
7800
1E00
0B00
0900
8980
8980
8900
6E00
1800
ENDCHAR
STARTCHAR 0025
ENCODING 37
SWIDTH 800 0
DWIDTH 16 0
BBX 14 14 1 1
BITMAP
7010
4820
8C60
8440
8C80
C900
7100
0270
04C8
048C
088C
108C
20C8
2070
ENDCHAR
STARTCHAR 0026
ENCODING 38
SWIDTH 750 0
DWIDTH 15 0
BBX 12 14 2 0
BITMAP
1C00
6200
4300
4200
6200
2C00
11F0
7840
8C40
8640
8380
8180
C3C0
3C70
ENDCHAR
STARTCHAR 0027
ENCODING 39
SWIDTH 200 0
DWIDTH 4 0
BBX 2 5 1 10
BITMAP
C0
C0
C0
40
40
ENDCHAR
STARTCHAR 0028
ENCODING 40
SWIDTH 350 0
DWIDTH 7 0
BBX 4 19 2 -4
BITMAP
10
20
20
40
40
C0
80
80
80
80
80
80
80
C0
40
40
60
20
10
ENDCHAR
STARTCHAR 0029
ENCODING 41
SWIDTH 350 0
DWIDTH 7 0
BBX 3 19 2 -4
BITMAP
80
80
40
40
60
20
20
20
20
20
20
20
20
20
60
40
40
80
80
ENDCHAR
STARTCHAR 002A
ENCODING 42
SWIDTH 250 0
DWIDTH 5 0
BBX 5 5 0 9
BITMAP
20
B8
60
F8
20
ENDCHAR
STARTCHAR 002B
ENCODING 43
SWIDTH 700 0
DWIDTH 14 0
BBX 11 11 1 1
BITMAP
0400
0400
0400
0400
0400
FFE0
0400
0400
0400
0400
0400
ENDCHAR
STARTCHAR 002C
ENCODING 44
SWIDTH 250 0
DWIDTH 5 0
BBX 3 5 1 -2
BITMAP
C0
E0
40
40
80
ENDCHAR
STARTCHAR 002D
ENCODING 45
SWIDTH 300 0
DWIDTH 6 0
BBX 4 1 1 5
BITMAP
F0
ENDCHAR
STARTCHAR 002E
ENCODING 46
SWIDTH 250 0
DWIDTH 5 0
BBX 2 2 1 0
BITMAP
C0
C0
ENDCHAR
STARTCHAR 002F
ENCODING 47
SWIDTH 500 0
DWIDTH 10 0
BBX 8 18 1 -3
BITMAP
01
02
02
04
04
04
08
08
10
10
10
20
20
20
40
40
80
80
ENDCHAR
STARTCHAR 0030
ENCODING 48
SWIDTH 600 0
DWIDTH 12 0
BBX 10 14 1 0
BITMAP
1E00
3180
6080
40C0
40C0
C0C0
C040
C040
C0C0
40C0
40C0
6080
3100
1E00
ENDCHAR
STARTCHAR 0031
ENCODING 49
SWIDTH 600 0
DWIDTH 12 0
BBX 7 14 3 0
BITMAP
10
F0
10
10
10
10
10
10
10
10
10
10
10
FE
ENDCHAR
STARTCHAR 0032
ENCODING 50
SWIDTH 600 0
DWIDTH 12 0
BBX 9 14 2 0
BITMAP
3E00
4300
C100
C180
0100
0100
0200
0C00
1800
2000
4080
8080
8080
FF80
ENDCHAR
STARTCHAR 0033
ENCODING 51
SWIDTH 600 0
DWIDTH 12 0
BBX 9 14 2 0
BITMAP
3C00
C300
C100
C100
0100
0200
1C00
0600
0100
0180
C180
C100
8300
7C00
ENDCHAR
STARTCHAR 0034
ENCODING 52
SWIDTH 600 0
DWIDTH 12 0
BBX 11 14 1 0
BITMAP
0100
0300
0500
0900
1100
1100
2100
4100
8100
FFE0
0100
0100
0100
07C0
ENDCHAR
STARTCHAR 0035
ENCODING 53
SWIDTH 600 0
DWIDTH 12 0
BBX 9 14 2 0
BITMAP
7F00
4000
4000
4000
8000
BE00
C300
8180
0180
0180
C180
C100
C300
3C00
ENDCHAR
STARTCHAR 0036
ENCODING 54
SWIDTH 600 0
DWIDTH 12 0
BBX 9 14 2 0
BITMAP
1E00
2100
4300
C000
8000
9E00
A300
C180
8080
8080
8080
C180
6300
3E00
ENDCHAR
STARTCHAR 0037
ENCODING 55
SWIDTH 600 0
DWIDTH 12 0
BBX 9 14 2 0
BITMAP
FF80
8080
8100
8100
0200
0200
0400
0400
0C00
0800
0800
1800
1800
1800
ENDCHAR
STARTCHAR 0038
ENCODING 56
SWIDTH 600 0
DWIDTH 12 0
BBX 10 14 1 0
BITMAP
1F00
2180
4080
4080
6080
3100
1E00
2300
4080
40C0
C0C0
40C0
6180
1F00
ENDCHAR
STARTCHAR 0039
ENCODING 57
SWIDTH 600 0
DWIDTH 12 0
BBX 10 14 1 0
BITMAP
1E00
6100
4080
C080
C0C0
C0C0
40C0
61C0
3EC0
0080
0080
6180
6300
3E00
ENDCHAR
STARTCHAR 003A
ENCODING 58
SWIDTH 300 0
DWIDTH 6 0
BBX 2 10 2 0
BITMAP
C0
C0
00
00
00
00
00
00
C0
C0
ENDCHAR
STARTCHAR 003B
ENCODING 59
SWIDTH 300 0
DWIDTH 6 0
BBX 2 11 2 -2
BITMAP
C0
C0
00
00
00
00
00
C0
C0
40
80
ENDCHAR
STARTCHAR 003C
ENCODING 60
SWIDTH 700 0
DWIDTH 14 0
BBX 11 11 1 1
BITMAP
0020
00C0
0300
0C00
3000
C000
6000
1C00
0700
00C0
0020
ENDCHAR
STARTCHAR 003D
ENCODING 61
SWIDTH 700 0
DWIDTH 14 0
BBX 11 5 1 4
BITMAP
FFE0
0000
0000
0000
FFE0
ENDCHAR
STARTCHAR 003E
ENCODING 62
SWIDTH 700 0
DWIDTH 14 0
BBX 10 10 2 2
BITMAP
C000
3000
0C00
0380
0040
0180
0600
1800
6000
8000
ENDCHAR
STARTCHAR 003F
ENCODING 63
SWIDTH 500 0
DWIDTH 10 0
BBX 8 14 1 0
BITMAP
3C
C6
83
C1
03
02
04
08
10
10
00
00
18
18
ENDCHAR
STARTCHAR 0040
ENCODING 64
SWIDTH 900 0
DWIDTH 18 0
BBX 14 14 2 0
BITMAP
0FE0
1830
6388
4664
CC44
8844
9844
98C4
9884
9988
CEF0
6000
3010
0FE0
ENDCHAR
STARTCHAR 0041
ENCODING 65
SWIDTH 700 0
DWIDTH 14 0
BBX 15 14 0 0
BITMAP
0100
0300
0380
0480
0480
0440
0840
0860
0FE0
1020
1030
2010
2018
F87E
ENDCHAR
STARTCHAR 0042
ENCODING 66
SWIDTH 700 0
DWIDTH 14 0
BBX 12 14 1 0
BITMAP
FF80
2060
2020
2020
2060
20C0
3F00
20E0
2030
2030
2030
2030
3060
FFC0
ENDCHAR
STARTCHAR 0043
ENCODING 67
SWIDTH 750 0
DWIDTH 15 0
BBX 13 14 1 0
BITMAP
0FC0
1830
2010
6010
4000
C000
C000
C000
C000
4008
6008
3010
1820
0FC0
ENDCHAR
STARTCHAR 0044
ENCODING 68
SWIDTH 800 0
DWIDTH 16 0
BBX 14 14 1 0
BITMAP
FF80
3060
2010
2018
2008
2008
200C
200C
2008
2008
2018
2010
3020
FFC0
ENDCHAR
STARTCHAR 0045
ENCODING 69
SWIDTH 700 0
DWIDTH 14 0
BBX 12 14 1 0
BITMAP
FFE0
2020
2020
2000
2000
2100
3F00
2100
2100
2000
2010
2010
2030
FFF0
ENDCHAR
STARTCHAR 0046
ENCODING 70
SWIDTH 650 0
DWIDTH 13 0
BBX 11 14 1 0
BITMAP
FFE0
2020
2020
2000
2000
2100
3F00
2100
2100
2000
2000
2000
2000
FC00
ENDCHAR
STARTCHAR 0047
ENCODING 71
SWIDTH 800 0
DWIDTH 16 0
BBX 14 14 1 0
BITMAP
0FC0
1830
2010
6000
4000
C000
C000
C07C
C018
4010
6010
3010
1830
0FC0
ENDCHAR
STARTCHAR 0048
ENCODING 72
SWIDTH 800 0
DWIDTH 16 0
BBX 14 14 1 0
BITMAP
F87C
2010
2010
2010
2010
2010
3FF0
2010
2010
2010
2010
2010
2010
F87C
ENDCHAR
STARTCHAR 0049
ENCODING 73
SWIDTH 400 0
DWIDTH 8 0
BBX 6 14 1 0
BITMAP
FC
30
30
30
30
30
30
30
30
30
30
30
30
FC
ENDCHAR
STARTCHAR 004A
ENCODING 74
SWIDTH 450 0
DWIDTH 9 0
BBX 9 14 0 0
BITMAP
1F80
0600
0600
0600
0600
0600
0600
0600
0600
0600
0600
C600
C400
7800
ENDCHAR
STARTCHAR 004B
ENCODING 75
SWIDTH 700 0
DWIDTH 14 0
BBX 14 14 1 0
BITMAP
FCF8
3060
3080
3100
3200
3400
3C00
3600
3300
3180
30C0
3040
3020
FCFC
ENDCHAR
STARTCHAR 004C
ENCODING 76
SWIDTH 600 0
DWIDTH 12 0
BBX 11 14 1 0
BITMAP
FC00
3000
3000
3000
3000
3000
3000
3000
3000
3000
3020
3020
3020
FFE0
ENDCHAR
STARTCHAR 004D
ENCODING 77
SWIDTH 950 0
DWIDTH 19 0
BBX 17 14 1 0
BITMAP
F00780
380A00
280A00
280A00
2C1200
241200
241200
262200
222200
234200
214200
214200
218200
F88F80
ENDCHAR
STARTCHAR 004E
ENCODING 78
SWIDTH 800 0
DWIDTH 16 0
BBX 15 14 1 0
BITMAP
F03E
3008
2808
2C08
2608
2208
2308
2188
2088
2048
2068
2038
2018
F818
ENDCHAR
STARTCHAR 004F
ENCODING 79
SWIDTH 800 0
DWIDTH 16 0
BBX 14 14 1 0
BITMAP
0FC0
1860
2010
6018
400C
C00C
C00C
C00C
C00C
400C
6018
2010
1860
0FC0
ENDCHAR
STARTCHAR 0050
ENCODING 80
SWIDTH 650 0
DWIDTH 13 0
BBX 12 14 1 0
BITMAP
FF80
3060
2020
2030
2030
2020
20E0
3F80
2000
2000
2000
2000
2000
FC00
ENDCHAR
STARTCHAR 0051
ENCODING 81
SWIDTH 800 0
DWIDTH 16 0
BBX 15 16 1 -2
BITMAP
0FC0
3860
7010
6018
C008
C00C
C00C
C00C
C00C
400C
4788
28D8
1850
0FE0
0032
001C
ENDCHAR
STARTCHAR 0052
ENCODING 82
SWIDTH 700 0
DWIDTH 14 0
BBX 13 14 1 0
BITMAP
FF80
2060
2020
2020
2020
2060
21C0
3F00
2180
20C0
2040
2060
2020
FC38
ENDCHAR
STARTCHAR 0053
ENCODING 83
SWIDTH 600 0
DWIDTH 12 0
BBX 10 14 1 0
BITMAP
3E40
61C0
40C0
4040
4000
6000
1C00
0300
0080
80C0
80C0
C0C0
E180
9F00
ENDCHAR
STARTCHAR 0054
ENCODING 84
SWIDTH 600 0
DWIDTH 12 0
BBX 12 14 0 0
BITMAP
FFF0
8210
8210
8200
0200
0200
0200
0200
0200
0200
0200
0200
0600
1F80
ENDCHAR
STARTCHAR 0055
ENCODING 85
SWIDTH 800 0
DWIDTH 16 0
BBX 16 14 0 0
BITMAP
FC1F
3004
1004
1004
1004
1004
1004
1004
1004
1004
1008
1808
0C10
07E0
ENDCHAR
STARTCHAR 0056
ENCODING 86
SWIDTH 700 0
DWIDTH 14 0
BBX 15 14 0 0
BITMAP
F83E
3018
3010
1010
1820
1820
0820
0C40
0440
0480
0280
0280
0300
0100
ENDCHAR
STARTCHAR 0057
ENCODING 87
SWIDTH 950 0
DWIDTH 19 0
BBX 19 14 0 0
BITMAP
F9F1E0
2060C0
306080
306080
106080
10B100
189100
089100
091A00
0D0A00
050A00
060C00
060C00
020400
ENDCHAR
STARTCHAR 0058
ENCODING 88
SWIDTH 700 0
DWIDTH 14 0
BBX 14 14 0 0
BITMAP
FC7C
3010
1820
0C40
0440
0680
0300
0380
0480
04C0
0860
1030
2010
F87C
ENDCHAR
STARTCHAR 0059
ENCODING 89
SWIDTH 700 0
DWIDTH 14 0
BBX 14 14 0 0
BITMAP
F87C
3010
1020
1860
0840
0C80
0480
0300
0300
0300
0300
0300
0300
0FC0
ENDCHAR
STARTCHAR 005A
ENCODING 90
SWIDTH 650 0
DWIDTH 13 0
BBX 11 14 1 0
BITMAP
FFC0
C0C0
8080
8180
0300
0600
0400
0C00
1800
1000
3020
6020
C020
FFE0
ENDCHAR
STARTCHAR 005B
ENCODING 91
SWIDTH 350 0
DWIDTH 7 0
BBX 4 19 2 -4
BITMAP
F0
C0
C0
C0
C0
C0
C0
C0
C0
C0
C0
C0
C0
C0
C0
C0
C0
C0
F0
ENDCHAR
STARTCHAR 005C
ENCODING 92
SWIDTH 500 0
DWIDTH 10 0
BBX 8 18 1 -3
BITMAP
80
40
40
20
20
20
10
10
10
08
08
04
04
04
02
02
01
01
ENDCHAR
STARTCHAR 005D
ENCODING 93
SWIDTH 350 0
DWIDTH 7 0
BBX 4 19 1 -4
BITMAP
F0
30
30
30
30
30
30
30
30
30
30
30
30
30
30
30
30
30
F0
ENDCHAR
STARTCHAR 005E
ENCODING 94
SWIDTH 500 0
DWIDTH 10 0
BBX 8 5 1 7
BITMAP
18
3C
24
42
81
ENDCHAR
STARTCHAR 005F
ENCODING 95
SWIDTH 500 0
DWIDTH 10 0
BBX 10 1 0 -2
BITMAP
FFC0
ENDCHAR
STARTCHAR 0060
ENCODING 96
SWIDTH 500 0
DWIDTH 10 0
BBX 3 3 3 12
BITMAP
80
C0
20
ENDCHAR
STARTCHAR 0061
ENCODING 97
SWIDTH 550 0
DWIDTH 11 0
BBX 9 10 1 0
BITMAP
3C00
4200
6300
0300
3F00
4300
C300
C300
C300
7D80
ENDCHAR
STARTCHAR 0062
ENCODING 98
SWIDTH 600 0
DWIDTH 12 0
BBX 10 15 1 0
BITMAP
C000
4000
4000
4000
4000
4F00
5180
6080
40C0
40C0
40C0
40C0
6080
7180
4F00
ENDCHAR
STARTCHAR 0063
ENCODING 99
SWIDTH 550 0
DWIDTH 11 0
BBX 9 10 1 0
BITMAP
1E00
6100
4100
C000
C000
C000
C000
4080
6100
1E00
ENDCHAR
STARTCHAR 0064
ENCODING 100
SWIDTH 600 0
DWIDTH 12 0
BBX 11 15 1 0
BITMAP
0180
0280
0080
0080
0080
3E80
6180
4080
C080
C080
C080
C080
4180
6380
3CE0
ENDCHAR
STARTCHAR 0065
ENCODING 101
SWIDTH 550 0
DWIDTH 11 0
BBX 9 10 1 0
BITMAP
1E00
6300
4180
C080
FF80
C000
C000
4080
6180
1E00
ENDCHAR
STARTCHAR 0066
ENCODING 102
SWIDTH 300 0
DWIDTH 6 0
BBX 7 14 1 0
BITMAP
1C
26
60
60
F8
60
60
60
60
60
60
60
60
F8
ENDCHAR
STARTCHAR 0067
ENCODING 103
SWIDTH 550 0
DWIDTH 11 0
BBX 10 15 1 -4
BITMAP
01C0
3E00
6300
C100
C100
4300
3E00
4000
4000
3E00
4180
8080
8080
C180
3E00
ENDCHAR
STARTCHAR 0068
ENCODING 104
SWIDTH 600 0
DWIDTH 12 0
BBX 11 15 1 0
BITMAP
6000
E000
6000
6000
6000
6F00
7180
6080
6080
6080
6080
6080
6080
6080
F3E0
ENDCHAR
STARTCHAR 0069
ENCODING 105
SWIDTH 300 0
DWIDTH 6 0
BBX 5 14 1 0
BITMAP
60
60
00
00
E0
60
60
60
60
60
60
60
60
F8
ENDCHAR
STARTCHAR 006A
ENCODING 106
SWIDTH 300 0
DWIDTH 6 0
BBX 5 18 -1 -4
BITMAP
18
18
00
00
38
18
18
18
18
18
18
18
18
18
18
18
D8
F0
ENDCHAR
STARTCHAR 006B
ENCODING 107
SWIDTH 550 0
DWIDTH 11 0
BBX 10 15 1 0
BITMAP
6000
E000
6000
6000
6000
67C0
6300
6600
6800
7800
6C00
6600
6300
6100
F3C0
ENDCHAR
STARTCHAR 006C
ENCODING 108
SWIDTH 300 0
DWIDTH 6 0
BBX 4 14 1 0
BITMAP
E0
60
60
60
60
60
60
60
60
60
60
60
60
F0
ENDCHAR
STARTCHAR 006D
ENCODING 109
SWIDTH 900 0
DWIDTH 18 0
BBX 17 10 1 0
BITMAP
EF3C00
714600
218600
208200
208200
208200
208200
208200
608200
FBEF80
ENDCHAR
STARTCHAR 006E
ENCODING 110
SWIDTH 650 0
DWIDTH 13 0
BBX 11 10 1 0
BITMAP
EF00
7180
2080
2080
2080
2080
2080
2080
6080
FBE0
ENDCHAR
STARTCHAR 006F
ENCODING 111
SWIDTH 600 0
DWIDTH 12 0
BBX 10 10 1 0
BITMAP
1E00
6100
4080
C080
C0C0
C0C0
C080
4080
6100
1E00
ENDCHAR
STARTCHAR 0070
ENCODING 112
SWIDTH 600 0
DWIDTH 12 0
BBX 10 13 1 -3
BITMAP
EF00
7180
60C0
6040
6040
6040
6040
60C0
7180
6F00
6000
6000
F000
ENDCHAR
STARTCHAR 0071
ENCODING 113
SWIDTH 600 0
DWIDTH 12 0
BBX 10 13 1 -3
BITMAP
1E80
6380
4080
C080
C080
C080
C080
4180
6280
3C80
0080
0080
03C0
ENDCHAR
STARTCHAR 0072
ENCODING 114
SWIDTH 400 0
DWIDTH 8 0
BBX 7 10 1 0
BITMAP
EE
76
20
20
20
20
20
20
60
F8
ENDCHAR
STARTCHAR 0073
ENCODING 115
SWIDTH 500 0
DWIDTH 10 0
BBX 7 10 1 0
BITMAP
3E
46
C2
40
30
0C
82
82
C2
BC
ENDCHAR
STARTCHAR 0074
ENCODING 116
SWIDTH 350 0
DWIDTH 7 0
BBX 6 12 0 1
BITMAP
20
20
FC
20
20
20
20
20
20
20
30
1C
ENDCHAR
STARTCHAR 0075
ENCODING 117
SWIDTH 600 0
DWIDTH 12 0
BBX 12 10 0 0
BITMAP
E1C0
2040
2040
2040
2040
2040
2040
30C0
31C0
1F70
ENDCHAR
STARTCHAR 0076
ENCODING 118
SWIDTH 550 0
DWIDTH 11 0
BBX 11 10 0 0
BITMAP
F1E0
2080
2080
3100
1100
1100
0A00
0A00
0C00
0400
ENDCHAR
STARTCHAR 0077
ENCODING 119
SWIDTH 800 0
DWIDTH 16 0
BBX 16 10 0 0
BITMAP
F3CF
6184
2184
3188
12C8
1248
1A50
0C30
0C30
0820
ENDCHAR
STARTCHAR 0078
ENCODING 120
SWIDTH 500 0
DWIDTH 10 0
BBX 10 10 0 0
BITMAP
FBC0
3100
1100
0A00
0C00
0C00
1200
2300
2180
F3C0
ENDCHAR
STARTCHAR 0079
ENCODING 121
SWIDTH 550 0
DWIDTH 11 0
BBX 11 13 0 -3
BITMAP
F1E0
2080
2080
3100
1100
1A00
0A00
0E00
0400
0400
0800
2800
3000
ENDCHAR
STARTCHAR 007A
ENCODING 122
SWIDTH 450 0
DWIDTH 9 0
BBX 8 10 1 0
BITMAP
FE
86
84
08
18
30
20
41
C3
FF
ENDCHAR
STARTCHAR 007B
ENCODING 123
SWIDTH 350 0
DWIDTH 7 0
BBX 5 19 1 -4
BITMAP
30
60
60
60
60
60
60
40
40
80
40
60
60
60
60
60
60
60
38
ENDCHAR
STARTCHAR 007C
ENCODING 124
SWIDTH 200 0
DWIDTH 4 0
BBX 1 18 1 -3
BITMAP
80
80
80
80
80
80
80
80
80
80
80
80
80
80
80
80
80
80
ENDCHAR
STARTCHAR 007D
ENCODING 125
SWIDTH 350 0
DWIDTH 7 0
BBX 5 19 1 -4
BITMAP
60
20
20
20
20
20
20
30
10
18
30
20
20
20
20
20
20
20
E0
ENDCHAR
STARTCHAR 007E
ENCODING 126
SWIDTH 500 0
DWIDTH 10 0
BBX 6 2 2 12
BITMAP
60
9C
ENDCHAR
STARTCHAR 00A0
ENCODING 160
SWIDTH 300 0
DWIDTH 6 0
BBX 0 0 0 0
BITMAP
ENDCHAR
STARTCHAR 00A1
ENCODING 161
SWIDTH 300 0
DWIDTH 6 0
BBX 2 14 2 0
BITMAP
C0
C0
00
00
80
80
80
80
80
C0
C0
C0
C0
80
ENDCHAR
STARTCHAR 00A2
ENCODING 162
SWIDTH 550 0
DWIDTH 11 0
BBX 9 14 1 1
BITMAP
0200
0200
1F00
2580
4580
4400
C800
C800
4800
7080
3100
1E00
2000
2000
ENDCHAR
STARTCHAR 00A3
ENCODING 163
SWIDTH 750 0
DWIDTH 15 0
BBX 11 14 2 1
BITMAP
0F80
18C0
10C0
1000
1000
1000
7F80
0800
0800
0800
FC00
8C20
8B20
71C0
ENDCHAR
STARTCHAR 00A4
ENCODING 164
SWIDTH 600 0
DWIDTH 12 0
BBX 9 8 2 2
BITMAP
FF00
C300
8100
8100
8100
8100
4300
BD80
ENDCHAR
STARTCHAR 00A5
ENCODING 165
SWIDTH 600 0
DWIDTH 12 0
BBX 12 14 0 0
BITMAP
F8F0
2020
3040
1880
0900
0500
7FE0
0600
0600
7FE0
0600
0600
0600
1F80
ENDCHAR
STARTCHAR 00A6
ENCODING 166
SWIDTH 200 0
DWIDTH 4 0
BBX 1 18 1 -3
BITMAP
80
80
80
80
80
80
80
80
00
00
00
80
80
80
80
80
80
80
ENDCHAR
STARTCHAR 00A7
ENCODING 167
SWIDTH 700 0
DWIDTH 14 0
BBX 8 18 3 -2
BITMAP
3C
C2
83
83
C0
60
5C
86
83
C1
61
1A
06
03
C1
C1
C2
7C
ENDCHAR
STARTCHAR 00A8
ENCODING 168
SWIDTH 500 0
DWIDTH 10 0
BBX 6 2 2 12
BITMAP
CC
CC
ENDCHAR
STARTCHAR 00A9
ENCODING 169
SWIDTH 1000 0
DWIDTH 20 0
BBX 16 16 2 -1
BITMAP
07E0
1818
23C4
4632
4C12
8811
9801
9801
9801
8801
8C11
4422
43C2
2004
1818
07E0
ENDCHAR
STARTCHAR 00AA
ENCODING 170
SWIDTH 400 0
DWIDTH 8 0
BBX 7 8 1 6
BITMAP
78
48
38
48
C8
76
00
FC
ENDCHAR
STARTCHAR 00AB
ENCODING 171
SWIDTH 500 0
DWIDTH 10 0
BBX 6 8 2 2
BITMAP
24
44
48
98
88
48
44
24
ENDCHAR
STARTCHAR 00AC
ENCODING 172
SWIDTH 700 0
DWIDTH 14 0
BBX 10 5 1 3
BITMAP
FFC0
0040
0040
0040
0040
ENDCHAR
STARTCHAR 00AD
ENCODING 173
SWIDTH 700 0
DWIDTH 14 0
BBX 11 1 1 6
BITMAP
FFE0
ENDCHAR
STARTCHAR 00AE
ENCODING 174
SWIDTH 1000 0
DWIDTH 20 0
BBX 16 16 2 -1
BITMAP
07E0
1818
2004
4FE2
4432
8411
8431
8461
87C1
8461
8421
4432
4F1A
2004
1818
07E0
ENDCHAR
STARTCHAR 00AF
ENCODING 175
SWIDTH 500 0
DWIDTH 10 0
BBX 6 1 2 12
BITMAP
FC
ENDCHAR
STARTCHAR 00B0
ENCODING 176
SWIDTH 300 0
DWIDTH 6 0
BBX 4 4 1 13
BITMAP
60
90
90
60
ENDCHAR
STARTCHAR 00B1
ENCODING 177
SWIDTH 700 0
DWIDTH 14 0
BBX 11 11 1 2
BITMAP
0400
0400
0400
0400
FFE0
0400
0400
0400
0400
0000
FFE0
ENDCHAR
STARTCHAR 00B2
ENCODING 178
SWIDTH 350 0
DWIDTH 7 0
BBX 5 7 1 7
BITMAP
78
C8
08
10
60
88
F8
ENDCHAR
STARTCHAR 00B3
ENCODING 179
SWIDTH 350 0
DWIDTH 7 0
BBX 5 7 1 7
BITMAP
78
C8
08
38
C8
88
78
ENDCHAR
STARTCHAR 00B4
ENCODING 180
SWIDTH 500 0
DWIDTH 10 0
BBX 3 3 4 12
BITMAP
20
60
C0
ENDCHAR
STARTCHAR 00B6
ENCODING 182
SWIDTH 1000 0
DWIDTH 20 0
BBX 8 18 5 -1
BITMAP
3F
79
F9
F9
F9
79
39
09
09
09
09
09
09
09
09
09
09
09
ENDCHAR
STARTCHAR 00B7
ENCODING 183
SWIDTH 250 0
DWIDTH 5 0
BBX 2 2 1 5
BITMAP
C0
C0
ENDCHAR
STARTCHAR 00B8
ENCODING 184
SWIDTH 500 0
DWIDTH 10 0
BBX 4 5 3 -5
BITMAP
40
60
10
30
C0
ENDCHAR
STARTCHAR 00B9
ENCODING 185
SWIDTH 350 0
DWIDTH 7 0
BBX 4 7 2 7
BITMAP
C0
40
40
40
40
40
F0
ENDCHAR
STARTCHAR 00BA
ENCODING 186
SWIDTH 400 0
DWIDTH 8 0
BBX 6 8 1 6
BITMAP
78
C4
84
84
C4
78
00
FC
ENDCHAR
STARTCHAR 00BB
ENCODING 187
SWIDTH 500 0
DWIDTH 10 0
BBX 6 8 2 2
BITMAP
90
88
4C
64
64
4C
88
90
ENDCHAR
STARTCHAR 00BC
ENCODING 188
SWIDTH 750 0
DWIDTH 15 0
BBX 12 14 2 1
BITMAP
C020
4040
4080
4080
4100
4200
F200
0460
08A0
1120
1120
23F0
4020
4070
ENDCHAR
STARTCHAR 00BD
ENCODING 189
SWIDTH 750 0
DWIDTH 15 0
BBX 12 14 2 1
BITMAP
C020
4040
4080
4080
4100
4200
F2E0
0510
0990
1010
1060
2080
4110
41F0
ENDCHAR
STARTCHAR 00BE
ENCODING 190
SWIDTH 750 0
DWIDTH 15 0
BBX 13 14 1 1
BITMAP
7810
C820
0860
3840
C880
8900
7910
0230
0450
0490
0890
11F8
2010
2038
ENDCHAR
STARTCHAR 00BF
ENCODING 191
SWIDTH 500 0
DWIDTH 10 0
BBX 8 14 1 0
BITMAP
0C
0C
00
00
08
08
10
20
40
C3
C3
C1
62
3C
ENDCHAR
STARTCHAR 00C0
ENCODING 192
SWIDTH 700 0
DWIDTH 14 0
BBX 15 18 0 0
BITMAP
0C00
0600
0100
0100
0100
0300
0380
0480
04C0
0840
0840
0860
1FE0
1030
1030
2010
2018
F87E
ENDCHAR
STARTCHAR 00C1
ENCODING 193
SWIDTH 700 0
DWIDTH 14 0
BBX 15 18 0 0
BITMAP
00C0
0180
0000
0100
0100
0300
0380
0480
04C0
0840
0840
0860
1FE0
1030
1030
2010
2018
F87E
ENDCHAR
STARTCHAR 00C2
ENCODING 194
SWIDTH 700 0
DWIDTH 14 0
BBX 15 18 0 0
BITMAP
0300
0480
0000
0100
0100
0300
0380
0480
04C0
0840
0840
0860
1FE0
1030
1030
2010
2018
F87E
ENDCHAR
STARTCHAR 00C3
ENCODING 195
SWIDTH 700 0
DWIDTH 14 0
BBX 15 18 0 0
BITMAP
0700
09C0
0000
0100
0100
0300
0380
0480
04C0
0840
0840
0860
1FE0
1030
1030
2010
2018
F87E
ENDCHAR
STARTCHAR 00C4
ENCODING 196
SWIDTH 700 0
DWIDTH 14 0
BBX 15 18 0 0
BITMAP
0CC0
0CC0
0000
0100
0100
0300
0380
0480
04C0
0840
0840
0860
1FE0
1030
1030
2010
2018
F87E
ENDCHAR
STARTCHAR 00C5
ENCODING 197
SWIDTH 700 0
DWIDTH 14 0
BBX 15 18 0 0
BITMAP
0300
0480
0300
0100
0100
0300
0380
0480
04C0
0840
0840
0860
1FE0
1030
1030
2010
2018
F87E
ENDCHAR
STARTCHAR 00C6
ENCODING 198
SWIDTH 1000 0
DWIDTH 20 0
BBX 18 14 0 0
BITMAP
03FFC0
00E040
016040
026000
026000
046200
07FE00
046200
086200
086000
106040
106040
206040
F9FFC0
ENDCHAR
STARTCHAR 00C7
ENCODING 199
SWIDTH 750 0
DWIDTH 15 0
BBX 13 20 1 -6
BITMAP
0FC0
1830
3010
6010
4000
C000
C000
C000
C000
C000
4008
6010
3010
1860
0780
0200
0180
0080
0180
0600
ENDCHAR
STARTCHAR 00C8
ENCODING 200
SWIDTH 700 0
DWIDTH 14 0
BBX 12 18 1 0
BITMAP
1800
0400
0200
0000
FFE0
2020
2020
2000
2000
2100
3F00
2100
2100
2000
2010
2010
2030
FFF0
ENDCHAR
STARTCHAR 00C9
ENCODING 201
SWIDTH 700 0
DWIDTH 14 0
BBX 12 18 1 0
BITMAP
0180
0300
0000
0000
FFE0
2020
2020
2000
2000
2100
3F00
2100
2100
2000
2010
2010
2030
FFF0
ENDCHAR
STARTCHAR 00CA
ENCODING 202
SWIDTH 700 0
DWIDTH 14 0
BBX 12 18 1 0
BITMAP
0200
0D00
0080
0000
FFE0
2020
2020
2000
2000
2100
3F00
2100
2100
2000
2010
2010
2030
FFF0
ENDCHAR
STARTCHAR 00CB
ENCODING 203
SWIDTH 700 0
DWIDTH 14 0
BBX 12 17 1 0
BITMAP
1880
1880
0000
FFE0
2020
2020
2000
2000
2100
3F00
2100
2100
2000
2010
2010
2030
FFF0
ENDCHAR
STARTCHAR 00CC
ENCODING 204
SWIDTH 400 0
DWIDTH 8 0
BBX 6 18 1 0
BITMAP
C0
60
00
00
FC
30
30
30
30
30
30
30
30
30
30
30
30
FC
ENDCHAR
STARTCHAR 00CD
ENCODING 205
SWIDTH 400 0
DWIDTH 8 0
BBX 6 18 1 0
BITMAP
0C
10
20
00
FC
30
30
30
30
30
30
30
30
30
30
30
30
FC
ENDCHAR
STARTCHAR 00CE
ENCODING 206
SWIDTH 400 0
DWIDTH 8 0
BBX 6 18 1 0
BITMAP
30
58
80
00
FC
30
30
30
30
30
30
30
30
30
30
30
30
FC
ENDCHAR
STARTCHAR 00CF
ENCODING 207
SWIDTH 400 0
DWIDTH 8 0
BBX 6 17 1 0
BITMAP
CC
CC
00
FC
30
30
30
30
30
30
30
30
30
30
30
30
FC
ENDCHAR
STARTCHAR 00D0
ENCODING 208
SWIDTH 800 0
DWIDTH 16 0
BBX 14 14 1 0
BITMAP
FF80
2060
2010
2018
2008
2008
FE0C
200C
2008
2008
2018
2010
3020
FFC0
ENDCHAR
STARTCHAR 00D1
ENCODING 209
SWIDTH 800 0
DWIDTH 16 0
BBX 15 17 1 0
BITMAP
0E40
01C0
0000
F03E
3008
2808
2C08
2608
2208
2308
2188
2088
2048
2068
2038
2018
F818
ENDCHAR
STARTCHAR 00D2
ENCODING 210
SWIDTH 800 0
DWIDTH 16 0
BBX 14 18 1 0
BITMAP
0C00
0600
0000
0000
0FC0
1060
2010
4018
400C
C00C
C00C
C00C
C00C
4008
6018
2010
1870
0FC0
ENDCHAR
STARTCHAR 00D3
ENCODING 211
SWIDTH 800 0
DWIDTH 16 0
BBX 14 18 1 0
BITMAP
00C0
0180
0200
0000
0FC0
1060
2010
4018
400C
C00C
C00C
C00C
C00C
4008
6018
2010
1870
0FC0
ENDCHAR
STARTCHAR 00D4
ENCODING 212
SWIDTH 800 0
DWIDTH 16 0
BBX 14 18 1 0
BITMAP
0300
0780
0040
0000
0FC0
1060
2010
4018
400C
C00C
C00C
C00C
C00C
4008
6018
2010
1870
0FC0
ENDCHAR
STARTCHAR 00D5
ENCODING 213
SWIDTH 800 0
DWIDTH 16 0
BBX 14 17 1 0
BITMAP
0E40
01C0
0000
0FC0
1060
2010
4018
400C
C00C
C00C
C00C
C00C
4008
6018
2010
1870
0FC0
ENDCHAR
STARTCHAR 00D6
ENCODING 214
SWIDTH 800 0
DWIDTH 16 0
BBX 14 17 1 0
BITMAP
0CC0
0CC0
0000
0FC0
1060
2010
4018
400C
C00C
C00C
C00C
C00C
4008
6018
2010
1870
0FC0
ENDCHAR
STARTCHAR 00D7
ENCODING 215
SWIDTH 700 0
DWIDTH 14 0
BBX 8 8 3 2
BITMAP
81
C2
64
38
18
2C
46
83
ENDCHAR
STARTCHAR 00D8
ENCODING 216
SWIDTH 800 0
DWIDTH 16 0
BBX 14 14 1 1
BITMAP
0FC8
1830
2038
6048
404C
C08C
C10C
C20C
C40C
4808
4818
7010
3060
4FC0
ENDCHAR
STARTCHAR 00D9
ENCODING 217
SWIDTH 800 0
DWIDTH 16 0
BBX 16 18 0 0
BITMAP
0600
0300
0080
0000
FC1F
3004
1004
1004
1004
1004
1004
1004
1004
1004
1008
1808
0C10
07E0
ENDCHAR
STARTCHAR 00DA
ENCODING 218
SWIDTH 800 0
DWIDTH 16 0
BBX 16 18 0 0
BITMAP
0060
00C0
0000
0000
FC1F
3004
1004
1004
1004
1004
1004
1004
1004
1004
1008
1808
0C10
07E0
ENDCHAR
STARTCHAR 00DB
ENCODING 219
SWIDTH 800 0
DWIDTH 16 0
BBX 16 18 0 0
BITMAP
0080
0340
0020
0000
FC1F
3004
1004
1004
1004
1004
1004
1004
1004
1004
1008
1808
0C10
07E0
ENDCHAR
STARTCHAR 00DC
ENCODING 220
SWIDTH 800 0
DWIDTH 16 0
BBX 16 17 0 0
BITMAP
0620
0620
0000
FC1F
3004
1004
1004
1004
1004
1004
1004
1004
1004
1008
1808
0C10
07E0
ENDCHAR
STARTCHAR 00DD
ENCODING 221
SWIDTH 700 0
DWIDTH 14 0
BBX 14 18 0 0
BITMAP
00C0
0180
0000
0000
F87C
3010
1020
1860
0840
0C80
0480
0300
0300
0300
0300
0300
0300
0FC0
ENDCHAR
STARTCHAR 00DE
ENCODING 222
SWIDTH 700 0
DWIDTH 14 0
BBX 12 14 1 0
BITMAP
F800
2000
2000
3FC0
2060
2030
2030
2030
2030
2060
23C0
3C00
2000
F800
ENDCHAR
STARTCHAR 00DF
ENCODING 223
SWIDTH 550 0
DWIDTH 11 0
BBX 10 14 0 0
BITMAP
0F00
3180
2080
2080
2180
2100
2600
2180
20C0
2040
2040
2040
24C0
FF80
ENDCHAR
STARTCHAR 00E0
ENCODING 224
SWIDTH 550 0
DWIDTH 11 0
BBX 9 14 1 1
BITMAP
3000
0800
0000
0000
3C00
4200
6300
0100
3F00
4100
C100
C300
C700
7980
ENDCHAR
STARTCHAR 00E1
ENCODING 225
SWIDTH 550 0
DWIDTH 11 0
BBX 9 14 1 1
BITMAP
0400
0800
0000
0000
3C00
4200
6300
0100
3F00
4100
C100
C300
C700
7980
ENDCHAR
STARTCHAR 00E2
ENCODING 226
SWIDTH 550 0
DWIDTH 11 0
BBX 9 14 1 0
BITMAP
1800
2600
0000
0000
3C00
4200
6300
0100
3F00
4100
C100
C300
C700
7980
ENDCHAR
STARTCHAR 00E3
ENCODING 227
SWIDTH 550 0
DWIDTH 11 0
BBX 9 14 1 0
BITMAP
3800
0E00
0000
0000
3C00
4200
6300
0100
3F00
4100
C100
C300
C700
7980
ENDCHAR
STARTCHAR 00E4
ENCODING 228
SWIDTH 550 0
DWIDTH 11 0
BBX 9 14 1 0
BITMAP
2600
2600
0000
0000
3C00
4200
6300
0100
3F00
4100
C100
C300
C700
7980
ENDCHAR
STARTCHAR 00E5
ENCODING 229
SWIDTH 550 0
DWIDTH 11 0
BBX 9 14 1 0
BITMAP
1C00
1C00
0000
0000
3C00
4200
6300
0100
3F00
4100
C100
C100
C300
7D80
ENDCHAR
STARTCHAR 00E6
ENCODING 230
SWIDTH 850 0
DWIDTH 17 0
BBX 15 10 1 0
BITMAP
3C78
438C
6306
0102
3FFE
6100
C100
C102
C384
7C78
ENDCHAR
STARTCHAR 00E7
ENCODING 231
SWIDTH 550 0
DWIDTH 11 0
BBX 9 14 1 -4
BITMAP
1E00
6100
4180
C000
C000
C000
C000
4080
6100
1E00
0800
0E00
0200
1E00
ENDCHAR
STARTCHAR 00E8
ENCODING 232
SWIDTH 550 0
DWIDTH 11 0
BBX 9 15 1 0
BITMAP
1000
1800
0C00
0000
0000
1E00
6100
4180
C080
FF80
C000
C000
4080
6180
1E00
ENDCHAR
STARTCHAR 00E9
ENCODING 233
SWIDTH 550 0
DWIDTH 11 0
BBX 9 14 1 1
BITMAP
0600
0800
0000
0000
1E00
6100
4180
C080
FF80
C000
C000
4080
6180
1E00
ENDCHAR
STARTCHAR 00EA
ENCODING 234
SWIDTH 550 0
DWIDTH 11 0
BBX 9 14 1 0
BITMAP
0C00
1200
0000
0000
1E00
6100
4180
C080
FF80
C000
C000
4080
6180
1E00
ENDCHAR
STARTCHAR 00EB
ENCODING 235
SWIDTH 550 0
DWIDTH 11 0
BBX 9 14 1 0
BITMAP
3200
3200
0000
0000
1E00
6100
4180
C080
FF80
C000
C000
4080
6180
1E00
ENDCHAR
STARTCHAR 00EC
ENCODING 236
SWIDTH 300 0
DWIDTH 6 0
BBX 5 15 1 0
BITMAP
80
C0
60
00
00
E0
60
60
60
60
60
60
60
60
F8
ENDCHAR
STARTCHAR 00ED
ENCODING 237
SWIDTH 300 0
DWIDTH 6 0
BBX 5 15 1 0
BITMAP
10
30
60
00
00
E0
60
60
60
60
60
60
60
60
F8
ENDCHAR
STARTCHAR 00EE
ENCODING 238
SWIDTH 300 0
DWIDTH 6 0
BBX 5 14 1 0
BITMAP
60
90
00
00
E0
60
60
60
60
60
60
60
60
F8
ENDCHAR
STARTCHAR 00EF
ENCODING 239
SWIDTH 300 0
DWIDTH 6 0
BBX 6 14 0 0
BITMAP
CC
CC
00
00
70
30
30
30
30
30
30
30
30
7C
ENDCHAR
STARTCHAR 00F0
ENCODING 240
SWIDTH 600 0
DWIDTH 12 0
BBX 9 14 1 1
BITMAP
3C00
1C00
2200
0100
1F80
6180
4180
C080
C080
C080
C080
4180
6100
1E00
ENDCHAR
STARTCHAR 00F1
ENCODING 241
SWIDTH 650 0
DWIDTH 13 0
BBX 11 14 1 0
BITMAP
1C00
0700
0000
0000
EF00
3180
2080
2080
2080
2080
2080
2080
2080
FBE0
ENDCHAR
STARTCHAR 00F2
ENCODING 242
SWIDTH 600 0
DWIDTH 12 0
BBX 10 15 1 0
BITMAP
1000
1800
0C00
0000
0000
1E00
6100
4180
C080
C0C0
C0C0
C080
4080
6100
1E00
ENDCHAR
STARTCHAR 00F3
ENCODING 243
SWIDTH 600 0
DWIDTH 12 0
BBX 10 15 1 0
BITMAP
0200
0600
0800
0000
0000
1E00
6100
4180
C080
C0C0
C0C0
C080
4080
6100
1E00
ENDCHAR
STARTCHAR 00F4
ENCODING 244
SWIDTH 600 0
DWIDTH 12 0
BBX 10 14 1 0
BITMAP
0C00
1200
0000
0000
1E00
6100
4180
C080
C0C0
C0C0
C080
4080
6100
1E00
ENDCHAR
STARTCHAR 00F5
ENCODING 245
SWIDTH 600 0
DWIDTH 12 0
BBX 10 14 1 0
BITMAP
1800
2600
0000
0000
1E00
6100
4180
C080
C0C0
C0C0
C080
4080
6100
1E00
ENDCHAR
STARTCHAR 00F6
ENCODING 246
SWIDTH 600 0
DWIDTH 12 0
BBX 10 14 1 0
BITMAP
3200
3200
0000
0000
1E00
6100
4180
C080
C0C0
C0C0
C080
4080
6100
1E00
ENDCHAR
STARTCHAR 00F7
ENCODING 247
SWIDTH 700 0
DWIDTH 14 0
BBX 11 8 1 2
BITMAP
0600
0E00
0600
FFE0
0000
0600
0E00
0600
ENDCHAR
STARTCHAR 00F8
ENCODING 248
SWIDTH 600 0
DWIDTH 12 0
BBX 10 10 1 0
BITMAP
1F80
6180
4280
C480
C4C0
C8C0
D080
6080
6100
7E00
ENDCHAR
STARTCHAR 00F9
ENCODING 249
SWIDTH 600 0
DWIDTH 12 0
BBX 12 15 0 0
BITMAP
0800
0C00
0600
0000
0000
E1C0
2040
2040
2040
2040
2040
2040
30C0
31C0
1F70
ENDCHAR
STARTCHAR 00FA
ENCODING 250
SWIDTH 600 0
DWIDTH 12 0
BBX 12 15 0 0
BITMAP
0100
0300
0600
0000
0000
E1C0
2040
2040
2040
2040
2040
2040
30C0
31C0
1F70
ENDCHAR
STARTCHAR 00FB
ENCODING 251
SWIDTH 600 0
DWIDTH 12 0
BBX 12 14 0 0
BITMAP
0600
0900
0000
0000
E1C0
2040
2040
2040
2040
2040
2040
30C0
31C0
1F70
ENDCHAR
STARTCHAR 00FC
ENCODING 252
SWIDTH 600 0
DWIDTH 12 0
BBX 12 14 0 0
BITMAP
1900
1980
0000
0000
E1C0
2040
2040
2040
2040
2040
2040
30C0
31C0
1F70
ENDCHAR
STARTCHAR 00FD
ENCODING 253
SWIDTH 550 0
DWIDTH 11 0
BBX 11 17 0 -2
BITMAP
0300
0400
0000
0000
F1E0
2080
2080
3100
1100
1A00
0A00
0E00
0400
0400
0800
2800
3000
ENDCHAR
STARTCHAR 00FE
ENCODING 254
SWIDTH 600 0
DWIDTH 12 0
BBX 10 18 1 -3
BITMAP
4000
C000
4000
4000
4000
4F00
7180
6080
40C0
40C0
40C0
40C0
6080
6180
5F00
4000
4000
F000
ENDCHAR
STARTCHAR 00FF
ENCODING 255
SWIDTH 550 0
DWIDTH 11 0
BBX 11 17 0 -3
BITMAP
1900
1900
0000
0000
F1E0
2080
2080
3100
1100
1A00
0A00
0E00
0400
0400
0800
2800
3000
ENDCHAR
STARTCHAR 0100
ENCODING 256
SWIDTH 700 0
DWIDTH 14 0
BBX 15 17 0 0
BITMAP
07C0
0000
0000
0100
0300
0380
0480
0480
0440
0840
0860
1FE0
1020
1030
2010
2018
F87E
ENDCHAR
STARTCHAR 0101
ENCODING 257
SWIDTH 550 0
DWIDTH 11 0
BBX 9 13 1 0
BITMAP
3E00
0000
0000
3C00
4200
6300
0100
3F00
4100
C100
C300
C700
7980
ENDCHAR
STARTCHAR 0102
ENCODING 258
SWIDTH 700 0
DWIDTH 14 0
BBX 15 18 0 0
BITMAP
0040
0780
0000
0100
0100
0300
0380
0480
04C0
0840
0840
0860
1FE0
1030
1030
2010
2018
F87E
ENDCHAR
STARTCHAR 0103
ENCODING 259
SWIDTH 550 0
DWIDTH 11 0
BBX 9 14 1 0
BITMAP
2200
1C00
0000
0000
3C00
4200
6300
0100
3F00
4100
C100
C300
C700
7980
ENDCHAR
STARTCHAR 0104
ENCODING 260
SWIDTH 700 0
DWIDTH 14 0
BBX 15 20 0 -5
BITMAP
0100
0100
0300
0380
0480
04C0
0840
0840
0860
1FE0
1030
1030
2010
2018
F87E
0010
0020
0020
0064
0038
ENDCHAR
STARTCHAR 0105
ENCODING 261
SWIDTH 550 0
DWIDTH 11 0
BBX 9 15 1 -5
BITMAP
3C00
4200
6300
0100
3F00
4100
C100
C300
C700
7900
0180
0200
0600
0480
0300
ENDCHAR
STARTCHAR 0106
ENCODING 262
SWIDTH 750 0
DWIDTH 15 0
BBX 13 18 1 0
BITMAP
0080
0100
0200
0000
0FC0
1830
2010
6010
4000
C000
C000
C000
C000
4008
6008
3010
1820
0FC0
ENDCHAR
STARTCHAR 0107
ENCODING 263
SWIDTH 550 0
DWIDTH 11 0
BBX 9 15 1 0
BITMAP
0200
0600
0800
0000
0000
1E00
6100
4180
C000
C000
C000
C000
4080
6100
1E00
ENDCHAR
STARTCHAR 0108
ENCODING 264
SWIDTH 750 0
DWIDTH 15 0
BBX 13 18 1 0
BITMAP
0300
0780
0800
0000
0FC0
1830
2010
6010
4000
C000
C000
C000
C000
4008
6008
3010
1820
0FC0
ENDCHAR
STARTCHAR 0109
ENCODING 265
SWIDTH 550 0
DWIDTH 11 0
BBX 9 14 1 0
BITMAP
0C00
1200
0000
0000
1E00
6100
4180
C000
C000
C000
C000
4080
6100
1E00
ENDCHAR
STARTCHAR 010C
ENCODING 268
SWIDTH 750 0
DWIDTH 15 0
BBX 13 18 1 0
BITMAP
0040
0680
0300
0000
0FC0
1830
2010
6010
4000
C000
C000
C000
C000
4008
6008
3010
1820
0FC0
ENDCHAR
STARTCHAR 010D
ENCODING 269
SWIDTH 550 0
DWIDTH 11 0
BBX 9 14 1 0
BITMAP
1200
0C00
0000
0000
1E00
6100
4180
C000
C000
C000
C000
4080
6100
1E00
ENDCHAR
STARTCHAR 010E
ENCODING 270
SWIDTH 800 0
DWIDTH 16 0
BBX 14 18 1 0
BITMAP
0800
0580
0200
0000
FF80
3060
2010
2018
2008
2008
200C
200C
2008
2008
2018
2010
3060
FF80
ENDCHAR
STARTCHAR 010F
ENCODING 271
SWIDTH 600 0
DWIDTH 12 0
BBX 12 15 1 0
BITMAP
0030
03B0
0090
00A0
0080
3E80
6380
4180
C080
C080
C080
C080
4180
6380
3CE0
ENDCHAR
STARTCHAR 0111
ENCODING 273
SWIDTH 600 0
DWIDTH 12 0
BBX 11 14 1 1
BITMAP
0380
0080
07C0
0080
3E80
6380
4180
C080
C080
C080
C080
4180
6380
3CE0
ENDCHAR
STARTCHAR 0112
ENCODING 274
SWIDTH 700 0
DWIDTH 14 0
BBX 12 17 1 0
BITMAP
0F80
0000
0000
FFE0
2020
2020
2000
2000
2100
3F00
2100
2100
2000
2010
2010
2030
FFF0
ENDCHAR
STARTCHAR 0113
ENCODING 275
SWIDTH 550 0
DWIDTH 11 0
BBX 9 13 1 0
BITMAP
3E00
0000
0000
1E00
6100
4180
C080
FF80
C000
C000
4080
6180
1E00
ENDCHAR
STARTCHAR 0118
ENCODING 280
SWIDTH 700 0
DWIDTH 14 0
BBX 12 19 1 -5
BITMAP
FFE0
2020
2020
2000
2000
2100
3F00
2100
2100
2000
2010
2010
2030
FFF0
0600
0C00
0800
1900
0E00
ENDCHAR
STARTCHAR 0119
ENCODING 281
SWIDTH 550 0
DWIDTH 11 0
BBX 9 15 1 -5
BITMAP
1E00
6100
4180
C080
FF80
C000
C000
4080
4080
2100
1E00
0800
1000
1200
1C00
ENDCHAR
STARTCHAR 011A
ENCODING 282
SWIDTH 700 0
DWIDTH 14 0
BBX 12 18 1 0
BITMAP
0080
0D00
0200
0000
FFE0
2020
2020
2000
2000
2100
3F00
2100
2100
2000
2010
2010
2030
FFF0
ENDCHAR
STARTCHAR 011B
ENCODING 283
SWIDTH 550 0
DWIDTH 11 0
BBX 9 14 1 0
BITMAP
1200
0C00
0000
0000
1E00
6100
4180
C080
FF80
C000
C000
4080
6180
1E00
ENDCHAR
STARTCHAR 011C
ENCODING 284
SWIDTH 800 0
DWIDTH 16 0
BBX 14 18 1 0
BITMAP
0300
0780
0800
0000
0FC0
1830
2010
6000
4000
C000
C000
C07C
C010
4010
6010
3010
1830
0FC0
ENDCHAR
STARTCHAR 011D
ENCODING 285
SWIDTH 550 0
DWIDTH 11 0
BBX 10 18 1 -4
BITMAP
0800
1400
2200
01C0
3E00
6300
C100
C100
4300
3E00
4000
4000
3E00
4180
8080
8080
C180
3E00
ENDCHAR
STARTCHAR 0124
ENCODING 292
SWIDTH 800 0
DWIDTH 16 0
BBX 14 18 1 0
BITMAP
0300
0680
0040
0000
F87C
2010
2010
2010
2010
2010
3FF0
2010
2010
2010
2010
2010
2010
F87C
ENDCHAR
STARTCHAR 0125
ENCODING 293
SWIDTH 600 0
DWIDTH 12 0
BBX 11 18 1 0
BITMAP
2000
5000
8800
2000
E000
6000
6000
6000
6F00
7180
6080
6080
6080
6080
6080
6080
6080
F3E0
ENDCHAR
STARTCHAR 0127
ENCODING 295
SWIDTH 600 0
DWIDTH 12 0
BBX 11 15 1 0
BITMAP
2000
E000
6000
F800
6000
6F00
7180
6080
6080
6080
6080
6080
6080
6080
F3E0
ENDCHAR
STARTCHAR 012A
ENCODING 298
SWIDTH 400 0
DWIDTH 8 0
BBX 6 17 1 0
BITMAP
F8
00
00
FC
30
30
30
30
30
30
30
30
30
30
30
30
FC
ENDCHAR
STARTCHAR 012B
ENCODING 299
SWIDTH 300 0
DWIDTH 6 0
BBX 6 13 0 0
BITMAP
F8
00
00
30
70
30
30
30
30
30
30
30
7C
ENDCHAR
STARTCHAR 0134
ENCODING 308
SWIDTH 450 0
DWIDTH 9 0
BBX 9 18 0 0
BITMAP
0400
0B00
1000
0000
1F80
0600
0600
0600
0600
0600
0600
0600
0600
0600
0600
C600
C400
7800
ENDCHAR
STARTCHAR 0135
ENCODING 309
SWIDTH 300 0
DWIDTH 6 0
BBX 6 18 -1 -4
BITMAP
18
24
00
00
38
18
18
18
18
18
18
18
18
18
18
18
D0
F0
ENDCHAR
STARTCHAR 0139
ENCODING 313
SWIDTH 600 0
DWIDTH 12 0
BBX 11 18 1 0
BITMAP
0C00
1800
2000
0000
FC00
3000
3000
3000
3000
3000
3000
3000
3000
3000
3020
3020
3020
FFE0
ENDCHAR
STARTCHAR 013A
ENCODING 314
SWIDTH 300 0
DWIDTH 6 0
BBX 4 18 1 0
BITMAP
30
60
00
20
E0
60
60
60
60
60
60
60
60
60
60
60
60
F0
ENDCHAR
STARTCHAR 013D
ENCODING 317
SWIDTH 600 0
DWIDTH 12 0
BBX 11 15 1 0
BITMAP
0180
FD80
3080
3180
3000
3000
3000
3000
3000
3000
3000
3020
3020
3020
FFE0
ENDCHAR
STARTCHAR 013E
ENCODING 318
SWIDTH 300 0
DWIDTH 6 0
BBX 6 15 1 0
BITMAP
2C
EC
64
68
60
60
60
60
60
60
60
60
60
60
F0
ENDCHAR
STARTCHAR 0141
ENCODING 321
SWIDTH 600 0
DWIDTH 12 0
BBX 11 14 1 0
BITMAP
FC00
3000
3000
3000
3000
3C00
3000
7000
B000
3000
3020
3020
3020
FFE0
ENDCHAR
STARTCHAR 0142
ENCODING 322
SWIDTH 300 0
DWIDTH 6 0
BBX 5 15 1 0
BITMAP
60
E0
60
60
60
68
70
60
E0
60
60
60
60
60
F0
ENDCHAR
STARTCHAR 0143
ENCODING 323
SWIDTH 800 0
DWIDTH 16 0
BBX 15 18 1 0
BITMAP
00C0
0180
0200
0000
F03E
3008
2808
2C08
2608
2208
2308
2188
2088
2048
2068
2038
2018
F808
ENDCHAR
STARTCHAR 0144
ENCODING 324
SWIDTH 650 0
DWIDTH 13 0
BBX 11 14 1 1
BITMAP
0300
0400
0000
0000
EF00
3180
2080
2080
2080
2080
2080
2080
2080
FBE0
ENDCHAR
STARTCHAR 0147
ENCODING 327
SWIDTH 800 0
DWIDTH 16 0
BBX 15 18 1 0
BITMAP
0040
0680
0300
0000
F03E
3008
2808
2C08
2608
2208
2308
2188
2088
2048
2068
2038
2018
F808
ENDCHAR
STARTCHAR 0148
ENCODING 328
SWIDTH 650 0
DWIDTH 13 0
BBX 11 14 1 0
BITMAP
1100
0E00
0000
0000
EF00
3180
2080
2080
2080
2080
2080
2080
2080
FBE0
ENDCHAR
STARTCHAR 014B
ENCODING 331
SWIDTH 650 0
DWIDTH 13 0
BBX 9 14 1 -4
BITMAP
EF00
3180
2080
2080
2080
2080
2080
2080
2080
F880
0080
0080
0480
0700
ENDCHAR
STARTCHAR 014C
ENCODING 332
SWIDTH 800 0
DWIDTH 16 0
BBX 14 17 1 0
BITMAP
07C0
0000
0000
0FC0
1060
2010
4018
400C
C00C
C00C
C00C
C00C
4008
6018
2010
1870
0FC0
ENDCHAR
STARTCHAR 014D
ENCODING 333
SWIDTH 600 0
DWIDTH 12 0
BBX 10 13 1 0
BITMAP
3E00
0000
0000
1E00
6100
4080
C080
C0C0
C0C0
C080
4080
6100
1E00
ENDCHAR
STARTCHAR 0150
ENCODING 336
SWIDTH 800 0
DWIDTH 16 0
BBX 14 18 1 0
BITMAP
0240
0280
0400
0000
0FC0
1060
2010
4018
400C
C00C
C00C
C00C
C00C
4008
6018
2010
1870
0FC0
ENDCHAR
STARTCHAR 0151
ENCODING 337
SWIDTH 600 0
DWIDTH 12 0
BBX 10 15 1 0
BITMAP
0900
0B00
1200
0000
0000
1E00
6100
4080
C080
C0C0
C0C0
C080
4080
6100
1E00
ENDCHAR
STARTCHAR 0152
ENCODING 338
SWIDTH 1050 0
DWIDTH 21 0
BBX 19 14 1 0
BITMAP
0FFFC0
106040
206040
606000
406000
C06200
C07E00
C06200
C06200
406000
406020
206020
106060
0FFFE0
ENDCHAR
STARTCHAR 0153
ENCODING 339
SWIDTH 900 0
DWIDTH 18 0
BBX 16 10 1 0
BITMAP
3E3C
63C2
4183
C181
C0FF
C080
C080
4180
63C3
3E3C
ENDCHAR
STARTCHAR 0154
ENCODING 340
SWIDTH 700 0
DWIDTH 14 0
BBX 13 18 1 0
BITMAP
0180
0200
0400
0000
FF80
2060
2020
2020
2020
2060
21C0
3F00
2180
20C0
2040
2060
2020
FC38
ENDCHAR
STARTCHAR 0155
ENCODING 341
SWIDTH 400 0
DWIDTH 8 0
BBX 7 15 1 0
BITMAP
08
18
30
00
00
EE
32
20
20
20
20
20
20
20
F8
ENDCHAR
STARTCHAR 0158
ENCODING 344
SWIDTH 700 0
DWIDTH 14 0
BBX 13 17 1 1
BITMAP
0F00
0600
0000
FF80
2060
2020
2020
2020
2060
21C0
3F00
2180
20C0
2040
2060
2020
FC38
ENDCHAR
STARTCHAR 0159
ENCODING 345
SWIDTH 400 0
DWIDTH 8 0
BBX 7 14 1 0
BITMAP
48
30
00
00
EE
32
20
20
20
20
20
20
20
F8
ENDCHAR
STARTCHAR 015A
ENCODING 346
SWIDTH 600 0
DWIDTH 12 0
BBX 10 18 1 0
BITMAP
0300
0400
0800
0000
3E40
61C0
40C0
4040
4000
6000
1C00
0300
0080
80C0
80C0
C0C0
E180
9F00
ENDCHAR
STARTCHAR 015B
ENCODING 347
SWIDTH 500 0
DWIDTH 10 0
BBX 7 14 1 1
BITMAP
0C
10
00
00
3E
46
C2
40
30
0C
82
82
C2
BC
ENDCHAR
STARTCHAR 015C
ENCODING 348
SWIDTH 600 0
DWIDTH 12 0
BBX 10 18 1 0
BITMAP
0C00
1A00
0100
0000
3E40
61C0
40C0
4040
4000
6000
1C00
0300
0080
80C0
80C0
C0C0
E180
9F00
ENDCHAR
STARTCHAR 015D
ENCODING 349
SWIDTH 500 0
DWIDTH 10 0
BBX 7 14 1 0
BITMAP
18
24
00
00
3E
46
C2
40
30
0C
82
82
C2
BC
ENDCHAR
STARTCHAR 015E
ENCODING 350
SWIDTH 600 0
DWIDTH 12 0
BBX 10 19 1 -5
BITMAP
3E40
61C0
40C0
4040
4000
6000
1C00
0300
0080
80C0
80C0
C0C0
E180
9F00
0000
0C00
0400
0400
0800
ENDCHAR
STARTCHAR 015F
ENCODING 351
SWIDTH 500 0
DWIDTH 10 0
BBX 7 15 1 -5
BITMAP
3E
46
C2
40
30
0C
82
82
C2
BC
00
18
08
08
10
ENDCHAR
STARTCHAR 0160
ENCODING 352
SWIDTH 600 0
DWIDTH 12 0
BBX 10 17 1 1
BITMAP
1E00
0C00
0000
3E40
61C0
40C0
4040
4000
6000
1C00
0300
0080
80C0
80C0
C0C0
E180
9F00
ENDCHAR
STARTCHAR 0161
ENCODING 353
SWIDTH 500 0
DWIDTH 10 0
BBX 7 14 1 0
BITMAP
64
18
00
00
3E
46
C2
40
30
0C
82
82
C2
BC
ENDCHAR
STARTCHAR 0162
ENCODING 354
SWIDTH 600 0
DWIDTH 12 0
BBX 12 19 0 -5
BITMAP
FFF0
8210
8210
8200
0200
0200
0200
0200
0200
0200
0200
0200
0600
1F80
0000
0600
0200
0200
0400
ENDCHAR
STARTCHAR 0163
ENCODING 355
SWIDTH 350 0
DWIDTH 7 0
BBX 6 17 0 -4
BITMAP
20
20
FC
20
20
20
20
20
20
20
30
1C
00
18
18
08
10
ENDCHAR
STARTCHAR 0164
ENCODING 356
SWIDTH 600 0
DWIDTH 12 0
BBX 12 18 0 0
BITMAP
0080
0D00
0600
0000
FFF0
8210
8210
8200
0200
0200
0200
0200
0200
0200
0200
0200
0600
1F80
ENDCHAR
STARTCHAR 0165
ENCODING 357
SWIDTH 350 0
DWIDTH 7 0
BBX 7 15 0 0
BITMAP
06
06
02
24
20
FC
20
20
20
20
20
20
20
30
1C
ENDCHAR
STARTCHAR 016A
ENCODING 362
SWIDTH 800 0
DWIDTH 16 0
BBX 16 17 0 0
BITMAP
03E0
0000
0000
FC1F
3004
1004
1004
1004
1004
1004
1004
1004
1008
1008
1808
0C10
07E0
ENDCHAR
STARTCHAR 016B
ENCODING 363
SWIDTH 600 0
DWIDTH 12 0
BBX 11 13 1 0
BITMAP
1F00
0000
0000
4180
C080
4080
4080
4080
4080
4080
6080
6180
3EE0
ENDCHAR
STARTCHAR 016C
ENCODING 364
SWIDTH 800 0
DWIDTH 16 0
BBX 16 18 0 0
BITMAP
0020
0220
01C0
0000
FC1F
3004
1004
1004
1004
1004
1004
1004
1004
1008
1008
1808
0C10
07E0
ENDCHAR
STARTCHAR 016D
ENCODING 365
SWIDTH 600 0
DWIDTH 12 0
BBX 12 14 0 0
BITMAP
0080
0F00
0000
0000
E1C0
2040
2040
2040
2040
2040
2040
3040
30C0
1F70
ENDCHAR
STARTCHAR 016E
ENCODING 366
SWIDTH 800 0
DWIDTH 16 0
BBX 16 18 0 0
BITMAP
01C0
0240
0180
0000
FC1F
3004
1004
1004
1004
1004
1004
1004
1004
1008
1008
1808
0C10
07E0
ENDCHAR
STARTCHAR 016F
ENCODING 367
SWIDTH 600 0
DWIDTH 12 0
BBX 12 14 0 0
BITMAP
0600
0900
0600
0000
E1C0
2040
2040
2040
2040
2040
2040
3040
30C0
1F70
ENDCHAR
STARTCHAR 0170
ENCODING 368
SWIDTH 800 0
DWIDTH 16 0
BBX 16 18 0 0
BITMAP
01A0
0140
0200
0000
FC1F
3004
1004
1004
1004
1004
1004
1004
1004
1008
1008
1808
0C10
07E0
ENDCHAR
STARTCHAR 0171
ENCODING 369
SWIDTH 600 0
DWIDTH 12 0
BBX 12 15 0 0
BITMAP
0480
0480
0900
0000
0000
E1C0
2040
2040
2040
2040
2040
2040
3040
30C0
1F70
ENDCHAR
STARTCHAR 0179
ENCODING 377
SWIDTH 650 0
DWIDTH 13 0
BBX 11 18 1 0
BITMAP
0300
0600
0000
0000
FFC0
C0C0
8080
8100
0300
0600
0400
0800
1800
3000
6020
4020
C060
FFE0
ENDCHAR
STARTCHAR 017A
ENCODING 378
SWIDTH 450 0
DWIDTH 9 0
BBX 8 15 1 0
BITMAP
04
0C
18
00
00
FE
86
84
08
18
30
20
41
C3
FF
ENDCHAR
STARTCHAR 017B
ENCODING 379
SWIDTH 650 0
DWIDTH 13 0
BBX 11 18 1 0
BITMAP
0C00
0C00
0000
0000
FFC0
C0C0
8080
8100
0300
0600
0400
0800
1800
3000
6020
4020
C060
FFE0
ENDCHAR
STARTCHAR 017C
ENCODING 380
SWIDTH 450 0
DWIDTH 9 0
BBX 8 14 1 0
BITMAP
18
18
00
00
FE
86
84
08
18
30
20
41
C3
FF
ENDCHAR
STARTCHAR 017D
ENCODING 381
SWIDTH 650 0
DWIDTH 13 0
BBX 11 18 1 0
BITMAP
0100
1A00
0C00
0000
FFC0
C0C0
8080
8100
0300
0600
0400
0800
1800
3000
6020
4020
C060
FFE0
ENDCHAR
STARTCHAR 017E
ENCODING 382
SWIDTH 450 0
DWIDTH 9 0
BBX 8 14 1 0
BITMAP
24
18
00
00
FE
86
84
08
18
30
20
41
C3
FF
ENDCHAR
STARTCHAR 0193
ENCODING 403
SWIDTH 800 0
DWIDTH 16 0
BBX 16 17 1 0
BITMAP
0007
000B
0010
0FD0
1830
2010
6000
4000
C000
C000
C07C
C010
4010
6010
3010
1830
0FC0
ENDCHAR
STARTCHAR 01C2
ENCODING 450
SWIDTH 500 0
DWIDTH 10 0
BBX 8 14 1 0
BITMAP
10
10
10
10
FF
10
10
10
FF
10
10
10
10
10
ENDCHAR
STARTCHAR 01CD
ENCODING 461
SWIDTH 700 0
DWIDTH 14 0
BBX 15 18 0 0
BITMAP
0440
0380
0000
0100
0100
0300
0380
0480
04C0
0840
0840
0860
1FE0
1030
1030
2010
2018
F87E
ENDCHAR
STARTCHAR 01CE
ENCODING 462
SWIDTH 550 0
DWIDTH 11 0
BBX 9 14 1 0
BITMAP
2400
1800
0000
0000
3C00
4200
6300
0300
3F00
4300
C300
C300
C700
7980
ENDCHAR
STARTCHAR 01D0
ENCODING 464
SWIDTH 300 0
DWIDTH 6 0
BBX 5 14 1 0
BITMAP
90
60
00
00
E0
60
60
60
60
60
60
60
60
F8
ENDCHAR
STARTCHAR 01D1
ENCODING 465
SWIDTH 800 0
DWIDTH 16 0
BBX 14 18 1 0
BITMAP
0040
0680
0300
0000
0FC0
1860
2010
6018
400C
C00C
C00C
C00C
C00C
400C
6018
2010
1860
0FC0
ENDCHAR
STARTCHAR 01D2
ENCODING 466
SWIDTH 600 0
DWIDTH 12 0
BBX 10 14 1 0
BITMAP
1200
0C00
0000
0000
1E00
6100
4080
C080
C0C0
C0C0
C080
4080
6100
1E00
ENDCHAR
STARTCHAR 01D4
ENCODING 468
SWIDTH 600 0
DWIDTH 12 0
BBX 12 14 0 0
BITMAP
0900
0600
0000
0000
E1C0
2040
2040
2040
2040
2040
2040
3040
30C0
1F70
ENDCHAR
STARTCHAR 01D6
ENCODING 470
SWIDTH 600 0
DWIDTH 12 0
BBX 12 16 0 0
BITMAP
1F00
0000
1900
1980
0000
0000
E1C0
2040
2040
2040
2040
2040
2040
3040
30C0
1F70
ENDCHAR
STARTCHAR 01D8
ENCODING 472
SWIDTH 600 0
DWIDTH 12 0
BBX 12 17 0 0
BITMAP
0100
0300
0400
1900
1980
0000
0000
E1C0
2040
2040
2040
2040
2040
2040
3040
30C0
1F70
ENDCHAR
STARTCHAR 01DA
ENCODING 474
SWIDTH 600 0
DWIDTH 12 0
BBX 12 16 0 1
BITMAP
0F00
0600
1900
1980
0000
0000
E1C0
2040
2040
2040
2040
2040
2040
3040
30C0
1F70
ENDCHAR
STARTCHAR 01DC
ENCODING 476
SWIDTH 600 0
DWIDTH 12 0
BBX 12 17 0 0
BITMAP
0800
0C00
0200
1900
1980
0000
0000
E1C0
2040
2040
2040
2040
2040
2040
3040
30C0
1F70
ENDCHAR
STARTCHAR 01F8
ENCODING 504
SWIDTH 800 0
DWIDTH 16 0
BBX 15 18 1 0
BITMAP
0C00
0600
0000
0000
F03E
3008
2808
2C08
2608
2208
2308
2188
2088
2048
2068
2038
2018
F808
ENDCHAR
STARTCHAR 01F9
ENCODING 505
SWIDTH 650 0
DWIDTH 13 0
BBX 11 14 1 1
BITMAP
1000
0800
0000
0000
EF00
3180
2080
2080
2080
2080
2080
2080
2080
FBE0
ENDCHAR
STARTCHAR 01FD
ENCODING 509
SWIDTH 850 0
DWIDTH 17 0
BBX 15 15 1 0
BITMAP
0040
00C0
0100
0000
0000
3C78
438C
6306
0102
3FFE
6100
C100
C302
C784
7C78
ENDCHAR
STARTCHAR 0250
ENCODING 592
SWIDTH 550 0
DWIDTH 11 0
BBX 9 10 1 0
BITMAP
CF00
7180
6080
6180
6100
7E00
6000
6100
2100
1E00
ENDCHAR
STARTCHAR 0251
ENCODING 593
SWIDTH 600 0
DWIDTH 12 0
BBX 10 10 1 0
BITMAP
3E80
6380
4180
C180
C180
C180
C180
4180
6280
3CC0
ENDCHAR
STARTCHAR 0252
ENCODING 594
SWIDTH 600 0
DWIDTH 12 0
BBX 10 10 1 0
BITMAP
CE00
5180
6080
4080
40C0
40C0
4080
6080
6100
5E00
ENDCHAR
STARTCHAR 0253
ENCODING 595
SWIDTH 600 0
DWIDTH 12 0
BBX 9 14 2 0
BITMAP
3E00
4300
C300
8000
9E00
A300
C100
8180
8180
8080
8180
C100
E300
9E00
ENDCHAR
STARTCHAR 0254
ENCODING 596
SWIDTH 550 0
DWIDTH 11 0
BBX 9 10 1 0
BITMAP
3C00
4600
8300
0100
0180
0180
0100
C100
C200
7C00
ENDCHAR
STARTCHAR 0255
ENCODING 597
SWIDTH 550 0
DWIDTH 11 0
BBX 9 11 1 -2
BITMAP
1E00
6100
4180
C000
C000
C000
C380
4480
6880
1F00
1000
ENDCHAR
STARTCHAR 0256
ENCODING 598
SWIDTH 600 0
DWIDTH 12 0
BBX 13 19 1 -4
BITMAP
0180
0280
0080
0080
0080
3E80
6380
4080
C080
C080
C080
C080
4180
6280
3C80
0080
0080
0098
0070
ENDCHAR
STARTCHAR 0257
ENCODING 599
SWIDTH 600 0
DWIDTH 12 0
BBX 13 14 1 0
BITMAP
0070
0098
0080
0080
3E80
6380
4180
C080
C080
C080
C080
4180
6380
3CE0
ENDCHAR
STARTCHAR 0258
ENCODING 600
SWIDTH 550 0
DWIDTH 11 0
BBX 9 10 1 0
BITMAP
3E00
6300
4180
C080
FF80
0080
0080
8180
4300
3E00
ENDCHAR
STARTCHAR 0259
ENCODING 601
SWIDTH 550 0
DWIDTH 11 0
BBX 9 10 1 0
BITMAP
3E00
4300
0180
0080
0080
FF80
C080
4180
6300
3E00
ENDCHAR
STARTCHAR 025A
ENCODING 602
SWIDTH 800 0
DWIDTH 16 0
BBX 14 10 1 0
BITMAP
3E00
6300
81F0
8090
83D8
0C4C
1040
6080
3180
1E00
ENDCHAR
STARTCHAR 025C
ENCODING 604
SWIDTH 500 0
DWIDTH 10 0
BBX 8 10 1 0
BITMAP
7E
03
03
02
3C
03
01
01
83
7E
ENDCHAR
STARTCHAR 025E
ENCODING 606
SWIDTH 550 0
DWIDTH 11 0
BBX 9 10 1 0
BITMAP
1E00
6100
4180
8100
9E00
8180
8080
4080
6180
3E00
ENDCHAR
STARTCHAR 025F
ENCODING 607
SWIDTH 300 0
DWIDTH 6 0
BBX 7 14 -1 -4
BITMAP
3E
08
08
08
08
08
08
08
08
7E
08
08
98
F0
ENDCHAR
STARTCHAR 0260
ENCODING 608
SWIDTH 600 0
DWIDTH 12 0
BBX 13 18 1 -4
BITMAP
0070
0098
0080
0080
3E80
6180
4080
C080
C080
C080
C080
4180
6280
3C80
4080
6180
4100
3E00
ENDCHAR
STARTCHAR 0261
ENCODING 609
SWIDTH 600 0
DWIDTH 12 0
BBX 9 14 1 -4
BITMAP
1E80
6180
4080
C080
C080
C080
C080
4180
6280
3C80
4080
6180
4100
3E00
ENDCHAR
STARTCHAR 0264
ENCODING 612
SWIDTH 600 0
DWIDTH 12 0
BBX 10 10 1 0
BITMAP
E1C0
3300
1C00
0C00
1600
1200
2300
2300
3200
1E00
ENDCHAR
STARTCHAR 0265
ENCODING 613
SWIDTH 600 0
DWIDTH 12 0
BBX 12 14 0 -4
BITMAP
F9F0
2040
2040
2040
2040
2040
2040
30C0
1140
1E40
0040
0040
0040
0070
ENDCHAR
STARTCHAR 0266
ENCODING 614
SWIDTH 600 0
DWIDTH 12 0
BBX 11 14 1 0
BITMAP
1F00
3080
6080
6000
6F00
7180
6080
6080
6080
6080
6080
6080
6080
F3E0
ENDCHAR
STARTCHAR 0267
ENCODING 615
SWIDTH 600 0
DWIDTH 12 0
BBX 9 18 1 -4
BITMAP
1F00
3080
6080
6000
6F00
7180
6080
6080
6080
6080
6080
6080
6080
F080
0080
0080
0C80
0700
ENDCHAR
STARTCHAR 0268
ENCODING 616
SWIDTH 350 0
DWIDTH 7 0
BBX 5 14 1 0
BITMAP
20
20
00
00
E0
20
20
20
F8
20
20
20
20
F8
ENDCHAR
STARTCHAR 026C
ENCODING 620
SWIDTH 400 0
DWIDTH 8 0
BBX 8 14 0 0
BITMAP
1C
0C
0C
7C
8C
8C
7C
0E
0C
0C
0C
0C
0C
1F
ENDCHAR
STARTCHAR 026D
ENCODING 621
SWIDTH 350 0
DWIDTH 7 0
BBX 6 19 1 -4
BITMAP
20
E0
60
60
60
60
60
60
60
60
60
60
60
60
60
60
60
2C
3C
ENDCHAR
STARTCHAR 026E
ENCODING 622
SWIDTH 600 0
DWIDTH 12 0
BBX 11 19 1 -4
BITMAP
6000
E000
6000
6000
6000
7FC0
60C0
6180
6300
6600
6400
6F80
60C0
6040
F060
0060
3040
30C0
1F00
ENDCHAR
STARTCHAR 026F
ENCODING 623
SWIDTH 900 0
DWIDTH 18 0
BBX 16 10 1 0
BITMAP
F3CF
6186
6186
6186
6186
6186
6186
6186
228E
3CF7
ENDCHAR
STARTCHAR 0270
ENCODING 624
SWIDTH 900 0
DWIDTH 18 0
BBX 16 14 1 -4
BITMAP
F3CF
6186
6186
6186
6186
6186
6186
6186
228E
3CF6
0006
0006
0006
0007
ENDCHAR
STARTCHAR 0271
ENCODING 625
SWIDTH 900 0
DWIDTH 18 0
BBX 15 14 1 -4
BITMAP
EF3C
31C6
2186
2082
2082
2082
2082
2082
2082
FBE2
0002
0002
0036
003C
ENDCHAR
STARTCHAR 0272
ENCODING 626
SWIDTH 650 0
DWIDTH 13 0
BBX 13 14 -1 -4
BITMAP
3BC0
0C60
0820
0820
0820
0820
0820
0820
0820
08F8
0800
1800
D800
F000
ENDCHAR
STARTCHAR 0273
ENCODING 627
SWIDTH 650 0
DWIDTH 13 0
BBX 13 14 1 -4
BITMAP
EF00
3180
2080
2080
2080
2080
2080
2080
2080
F880
0080
0080
00D8
0070
ENDCHAR
STARTCHAR 0275
ENCODING 629
SWIDTH 600 0
DWIDTH 12 0
BBX 10 10 1 0
BITMAP
1E00
6100
4080
C080
FFC0
C0C0
C080
4080
6100
1E00
ENDCHAR
STARTCHAR 0279
ENCODING 633
SWIDTH 400 0
DWIDTH 8 0
BBX 8 10 0 0
BITMAP
1F
0C
0C
0C
0C
0C
0C
0C
D4
E7
ENDCHAR
STARTCHAR 027A
ENCODING 634
SWIDTH 400 0
DWIDTH 8 0
BBX 8 14 0 0
BITMAP
1F
0C
0C
0C
0C
0C
0C
0C
0C
0C
0C
0C
D4
E7
ENDCHAR
STARTCHAR 027B
ENCODING 635
SWIDTH 400 0
DWIDTH 8 0
BBX 9 14 0 -4
BITMAP
3E00
0C00
0C00
0C00
0C00
0C00
0C00
0C00
DC00
EC00
0C00
0C00
0580
0780
ENDCHAR
STARTCHAR 027D
ENCODING 637
SWIDTH 400 0
DWIDTH 8 0
BBX 7 14 1 -4
BITMAP
EE
32
20
20
20
20
20
20
20
20
20
24
24
1C
ENDCHAR
STARTCHAR 027E
ENCODING 638
SWIDTH 350 0
DWIDTH 7 0
BBX 6 10 1 0
BITMAP
1C
24
20
20
20
20
20
20
20
F8
ENDCHAR
STARTCHAR 0281
ENCODING 641
SWIDTH 550 0
DWIDTH 11 0
BBX 10 10 1 0
BITMAP
F1C0
4100
4300
4600
4C00
7600
4100
4100
4100
FE00
ENDCHAR
STARTCHAR 0282
ENCODING 642
SWIDTH 500 0
DWIDTH 10 0
BBX 7 14 1 -4
BITMAP
3E
46
C2
40
30
0C
82
82
C2
BC
80
80
D8
70
ENDCHAR
STARTCHAR 0283
ENCODING 643
SWIDTH 400 0
DWIDTH 8 0
BBX 8 18 0 -4
BITMAP
07
09
08
08
08
08
08
08
08
08
08
08
08
08
08
18
D0
F0
ENDCHAR
STARTCHAR 0284
ENCODING 644
SWIDTH 300 0
DWIDTH 6 0
BBX 9 18 -1 -4
BITMAP
0700
0980
1800
1800
1800
1800
1800
1800
1800
1800
1800
1800
1800
7E00
1800
1800
D000
F000
ENDCHAR
STARTCHAR 0288
ENCODING 648
SWIDTH 350 0
DWIDTH 7 0
BBX 7 16 0 -3
BITMAP
20
20
FC
20
20
20
20
20
20
20
20
20
20
20
36
1E
ENDCHAR
STARTCHAR 0289
ENCODING 649
SWIDTH 600 0
DWIDTH 12 0
BBX 12 10 0 0
BITMAP
71C0
3040
3040
3040
FFF0
3040
3040
3040
10C0
1F70
ENDCHAR
STARTCHAR 028A
ENCODING 650
SWIDTH 600 0
DWIDTH 12 0
BBX 10 10 1 0
BITMAP
F3C0
2100
2080
4080
40C0
40C0
40C0
6080
3180
1E00
ENDCHAR
STARTCHAR 028B
ENCODING 651
SWIDTH 550 0
DWIDTH 11 0
BBX 9 10 1 0
BITMAP
4180
C180
4080
4080
4080
4080
4080
6100
6300
3E00
ENDCHAR
STARTCHAR 028C
ENCODING 652
SWIDTH 550 0
DWIDTH 11 0
BBX 11 10 0 0
BITMAP
0400
0C00
0A00
1200
1300
1100
2100
2180
4080
F1E0
ENDCHAR
STARTCHAR 028D
ENCODING 653
SWIDTH 800 0
DWIDTH 16 0
BBX 16 10 0 0
BITMAP
0820
0C30
1450
1650
1298
2288
2388
2104
4104
F3CF
ENDCHAR
STARTCHAR 028E
ENCODING 654
SWIDTH 550 0
DWIDTH 11 0
BBX 11 14 0 0
BITMAP
0180
0280
0400
0400
0400
0C00
0E00
1200
1200
1100
2100
2180
4080
F1E0
ENDCHAR
STARTCHAR 0290
ENCODING 656
SWIDTH 550 0
DWIDTH 11 0
BBX 11 14 1 -4
BITMAP
FE00
8600
8400
0800
1800
3000
2000
4100
C300
FF00
0100
0100
0160
00C0
ENDCHAR
STARTCHAR 0291
ENCODING 657
SWIDTH 500 0
DWIDTH 10 0
BBX 9 11 1 -2
BITMAP
FE00
8600
8400
0800
1800
3000
2380
4C80
C880
FF00
1000
ENDCHAR
STARTCHAR 0292
ENCODING 658
SWIDTH 500 0
DWIDTH 10 0
BBX 8 14 1 -4
BITMAP
FF
82
84
08
10
3C
46
03
01
01
01
C3
86
7C
ENDCHAR
STARTCHAR 0294
ENCODING 660
SWIDTH 500 0
DWIDTH 10 0
BBX 8 14 1 0
BITMAP
3C
C3
C1
C1
01
03
0C
18
18
18
18
18
18
7C
ENDCHAR
STARTCHAR 0295
ENCODING 661
SWIDTH 500 0
DWIDTH 10 0
BBX 8 14 1 0
BITMAP
3E
41
C3
83
80
40
30
08
08
08
08
08
08
3E
ENDCHAR
STARTCHAR 0298
ENCODING 664
SWIDTH 650 0
DWIDTH 13 0
BBX 10 10 1 0
BITMAP
1F00
2180
4040
8C40
8E40
8C40
8040
4040
2080
1F00
ENDCHAR
STARTCHAR 029D
ENCODING 669
SWIDTH 300 0
DWIDTH 6 0
BBX 7 18 -2 -4
BITMAP
0C
0C
00
00
1C
0C
0C
0C
0C
0C
0C
0C
0C
0C
7C
8E
8C
78
ENDCHAR
STARTCHAR 02A1
ENCODING 673
SWIDTH 500 0
DWIDTH 10 0
BBX 8 14 1 0
BITMAP
3E
C3
C1
C1
01
03
1C
18
7E
18
18
18
18
7C
ENDCHAR
STARTCHAR 02A2
ENCODING 674
SWIDTH 500 0
DWIDTH 10 0
BBX 8 14 1 0
BITMAP
3E
C1
C3
83
C0
40
38
08
7E
08
08
08
08
3E
ENDCHAR
STARTCHAR 02BB
ENCODING 699
SWIDTH 1000 0
DWIDTH 20 0
BBX 2 5 16 12
BITMAP
40
80
C0
C0
C0
ENDCHAR
STARTCHAR 02BC
ENCODING 700
SWIDTH 1000 0
DWIDTH 20 0
BBX 2 5 2 11
BITMAP
C0
C0
C0
40
80
ENDCHAR
STARTCHAR 02C6
ENCODING 710
SWIDTH 500 0
DWIDTH 10 0
BBX 4 2 3 12
BITMAP
60
90
ENDCHAR
STARTCHAR 02C7
ENCODING 711
SWIDTH 500 0
DWIDTH 10 0
BBX 4 2 3 12
BITMAP
90
60
ENDCHAR
STARTCHAR 02C8
ENCODING 712
SWIDTH 200 0
DWIDTH 4 0
BBX 1 8 1 7
BITMAP
80
80
80
80
80
80
80
80
ENDCHAR
STARTCHAR 02CC
ENCODING 716
SWIDTH 200 0
DWIDTH 4 0
BBX 1 7 1 -3
BITMAP
80
80
80
80
80
80
80
ENDCHAR
STARTCHAR 02D0
ENCODING 720
SWIDTH 300 0
DWIDTH 6 0
BBX 2 10 2 0
BITMAP
C0
80
00
00
00
00
00
00
80
C0
ENDCHAR
STARTCHAR 02D1
ENCODING 721
SWIDTH 300 0
DWIDTH 6 0
BBX 2 2 2 8
BITMAP
C0
80
ENDCHAR
STARTCHAR 02D8
ENCODING 728
SWIDTH 500 0
DWIDTH 10 0
BBX 4 2 3 12
BITMAP
90
F0
ENDCHAR
STARTCHAR 02D9
ENCODING 729
SWIDTH 500 0
DWIDTH 10 0
BBX 2 2 4 12
BITMAP
C0
C0
ENDCHAR
STARTCHAR 02DB
ENCODING 731
SWIDTH 500 0
DWIDTH 10 0
BBX 4 5 3 -5
BITMAP
20
40
C0
D0
60
ENDCHAR
STARTCHAR 02DC
ENCODING 732
SWIDTH 500 0
DWIDTH 10 0
BBX 6 2 2 12
BITMAP
60
9C
ENDCHAR
STARTCHAR 02DD
ENCODING 733
SWIDTH 500 0
DWIDTH 10 0
BBX 5 3 3 12
BITMAP
40
D8
A0
ENDCHAR
STARTCHAR 02DE
ENCODING 734
SWIDTH 500 0
DWIDTH 10 0
BBX 5 5 3 0
BITMAP
60
A0
20
28
30
ENDCHAR
STARTCHAR 02E5
ENCODING 741
SWIDTH 500 0
DWIDTH 10 0
BBX 4 14 1 0
BITMAP
F0
10
10
10
10
10
10
10
10
10
10
10
10
10
ENDCHAR
STARTCHAR 02E6
ENCODING 742
SWIDTH 500 0
DWIDTH 10 0
BBX 4 13 1 0
BITMAP
10
10
10
F0
10
10
10
10
10
10
10
10
10
ENDCHAR
STARTCHAR 02E7
ENCODING 743
SWIDTH 500 0
DWIDTH 10 0
BBX 4 13 1 1
BITMAP
10
10
10
10
10
10
F0
10
10
10
10
10
10
ENDCHAR
STARTCHAR 02E8
ENCODING 744
SWIDTH 500 0
DWIDTH 10 0
BBX 4 13 1 2
BITMAP
10
10
10
10
10
10
10
10
10
F0
10
10
10
ENDCHAR
STARTCHAR 02E9
ENCODING 745
SWIDTH 500 0
DWIDTH 10 0
BBX 4 14 1 0
BITMAP
10
10
10
10
10
10
10
10
10
10
10
10
10
F0
ENDCHAR
STARTCHAR 0300
ENCODING 768
SWIDTH 500 0
DWIDTH 10 0
BBX 3 3 3 12
BITMAP
80
C0
20
ENDCHAR
STARTCHAR 0301
ENCODING 769
SWIDTH 500 0
DWIDTH 10 0
BBX 3 3 4 12
BITMAP
20
60
C0
ENDCHAR
STARTCHAR 0302
ENCODING 770
SWIDTH 500 0
DWIDTH 10 0
BBX 4 2 3 12
BITMAP
60
90
ENDCHAR
STARTCHAR 0303
ENCODING 771
SWIDTH 500 0
DWIDTH 10 0
BBX 6 2 2 12
BITMAP
60
9C
ENDCHAR
STARTCHAR 0304
ENCODING 772
SWIDTH 500 0
DWIDTH 10 0
BBX 6 1 2 12
BITMAP
FC
ENDCHAR
STARTCHAR 0305
ENCODING 773
SWIDTH 500 0
DWIDTH 10 0
BBX 6 1 2 12
BITMAP
FC
ENDCHAR
STARTCHAR 0306
ENCODING 774
SWIDTH 500 0
DWIDTH 10 0
BBX 4 2 3 12
BITMAP
90
F0
ENDCHAR
STARTCHAR 0308
ENCODING 776
SWIDTH 500 0
DWIDTH 10 0
BBX 6 2 2 12
BITMAP
CC
CC
ENDCHAR
STARTCHAR 030B
ENCODING 779
SWIDTH 500 0
DWIDTH 10 0
BBX 5 3 3 12
BITMAP
40
D8
A0
ENDCHAR
STARTCHAR 030C
ENCODING 780
SWIDTH 500 0
DWIDTH 10 0
BBX 4 2 3 12
BITMAP
90
60
ENDCHAR
STARTCHAR 030F
ENCODING 783
SWIDTH 500 0
DWIDTH 10 0
BBX 5 3 2 12
BITMAP
10
D8
28
ENDCHAR
STARTCHAR 0318
ENCODING 792
SWIDTH 500 0
DWIDTH 10 0
BBX 3 5 3 -6
BITMAP
20
20
E0
20
20
ENDCHAR
STARTCHAR 0319
ENCODING 793
SWIDTH 500 0
DWIDTH 10 0
BBX 3 5 4 -6
BITMAP
80
80
E0
80
80
ENDCHAR
STARTCHAR 031A
ENCODING 794
SWIDTH 500 0
DWIDTH 10 0
BBX 4 5 1 9
BITMAP
F0
10
10
10
10
ENDCHAR
STARTCHAR 031C
ENCODING 796
SWIDTH 500 0
DWIDTH 10 0
BBX 2 4 4 -5
BITMAP
C0
80
80
C0
ENDCHAR
STARTCHAR 031D
ENCODING 797
SWIDTH 500 0
DWIDTH 10 0
BBX 6 3 2 -4
BITMAP
20
20
FC
ENDCHAR
STARTCHAR 031E
ENCODING 798
SWIDTH 500 0
DWIDTH 10 0
BBX 6 3 2 -4
BITMAP
FC
20
20
ENDCHAR
STARTCHAR 031F
ENCODING 799
SWIDTH 500 0
DWIDTH 10 0
BBX 6 5 2 -6
BITMAP
20
20
FC
20
20
ENDCHAR
STARTCHAR 0320
ENCODING 800
SWIDTH 500 0
DWIDTH 10 0
BBX 6 1 2 -2
BITMAP
FC
ENDCHAR
STARTCHAR 0324
ENCODING 804
SWIDTH 500 0
DWIDTH 10 0
BBX 6 2 2 -2
BITMAP
CC
CC
ENDCHAR
STARTCHAR 0325
ENCODING 805
SWIDTH 500 0
DWIDTH 10 0
BBX 4 3 3 -3
BITMAP
60
90
60
ENDCHAR
STARTCHAR 0327
ENCODING 807
SWIDTH 500 0
DWIDTH 10 0
BBX 4 5 3 -5
BITMAP
40
60
10
30
C0
ENDCHAR
STARTCHAR 0329
ENCODING 809
SWIDTH 500 0
DWIDTH 10 0
BBX 1 4 4 -6
BITMAP
80
80
80
80
ENDCHAR
STARTCHAR 032A
ENCODING 810
SWIDTH 500 0
DWIDTH 10 0
BBX 6 3 2 -4
BITMAP
FC
84
84
ENDCHAR
STARTCHAR 032C
ENCODING 812
SWIDTH 500 0
DWIDTH 10 0
BBX 4 2 3 -2
BITMAP
F0
60
ENDCHAR
STARTCHAR 032F
ENCODING 815
SWIDTH 500 0
DWIDTH 10 0
BBX 4 1 3 -3
BITMAP
F0
ENDCHAR
STARTCHAR 0330
ENCODING 816
SWIDTH 500 0
DWIDTH 10 0
BBX 5 1 3 -2
BITMAP
F8
ENDCHAR
STARTCHAR 0332
ENCODING 818
SWIDTH 500 0
DWIDTH 10 0
BBX 10 1 0 -2
BITMAP
FFC0
ENDCHAR
STARTCHAR 0334
ENCODING 820
SWIDTH 500 0
DWIDTH 10 0
BBX 5 2 3 5
BITMAP
C8
38
ENDCHAR
STARTCHAR 0336
ENCODING 822
SWIDTH 900 0
DWIDTH 18 0
BBX 18 1 0 7
BITMAP
FFFFC0
ENDCHAR
STARTCHAR 0339
ENCODING 825
SWIDTH 500 0
DWIDTH 10 0
BBX 2 4 4 -5
BITMAP
C0
40
40
C0
ENDCHAR
STARTCHAR 033A
ENCODING 826
SWIDTH 500 0
DWIDTH 10 0
BBX 6 3 2 -5
BITMAP
84
84
FC
ENDCHAR
STARTCHAR 033B
ENCODING 827
SWIDTH 500 0
DWIDTH 10 0
BBX 6 4 2 -5
BITMAP
FC
84
84
FC
ENDCHAR
STARTCHAR 033C
ENCODING 828
SWIDTH 500 0
DWIDTH 10 0
BBX 4 1 3 -2
BITMAP
F0
ENDCHAR
STARTCHAR 033D
ENCODING 829
SWIDTH 500 0
DWIDTH 10 0
BBX 4 4 3 11
BITMAP
90
60
60
90
ENDCHAR
STARTCHAR 0361
ENCODING 865
SWIDTH 0 0
DWIDTH 0 0
BBX 10 2 -5 16
BITMAP
3F00
C0C0
ENDCHAR
STARTCHAR 0391
ENCODING 913
SWIDTH 1000 0
DWIDTH 20 0
BBX 14 14 3 2
BITMAP
0300
0300
0580
0480
0880
08C0
0840
1060
1FE0
2020
2030
4010
4018
E03C
ENDCHAR
STARTCHAR 0392
ENCODING 914
SWIDTH 1000 0
DWIDTH 20 0
BBX 12 14 4 1
BITMAP
FF80
2060
2060
2020
2060
20C0
3F00
20E0
2030
2030
2030
2030
2020
FFC0
ENDCHAR
STARTCHAR 0393
ENCODING 915
SWIDTH 1000 0
DWIDTH 20 0
BBX 12 14 4 1
BITMAP
FFF0
3030
2010
2010
2000
2000
2000
2000
2000
2000
2000
2000
2000
7800
ENDCHAR
STARTCHAR 0394
ENCODING 916
SWIDTH 1000 0
DWIDTH 20 0
BBX 14 14 3 1
BITMAP
0200
0300
0500
0580
0880
08C0
0840
1060
1020
2030
2010
4018
4018
FFFC
ENDCHAR
STARTCHAR 0395
ENCODING 917
SWIDTH 1000 0
DWIDTH 20 0
BBX 12 14 4 1
BITMAP
FFE0
6020
2020
2000
2080
2080
3F80
2080
2080
2000
2010
2010
6030
FFF0
ENDCHAR
STARTCHAR 0396
ENCODING 918
SWIDTH 1000 0
DWIDTH 20 0
BBX 12 14 4 1
BITMAP
7FE0
6060
4040
4080
0180
0300
0600
0400
0800
1810
3010
6010
4030
FFF0
ENDCHAR
STARTCHAR 0397
ENCODING 919
SWIDTH 1000 0
DWIDTH 20 0
BBX 14 14 3 1
BITMAP
7038
2010
2010
2010
2010
2010
3FF0
2010
2010
2010
2010
2010
2010
F03C
ENDCHAR
STARTCHAR 0398
ENCODING 920
SWIDTH 1000 0
DWIDTH 20 0
BBX 14 15 3 0
BITMAP
0FC0
1860
3030
6018
4008
5028
DFEC
D02C
D02C
4008
4018
6018
3030
1860
0FC0
ENDCHAR
STARTCHAR 0399
ENCODING 921
SWIDTH 1000 0
DWIDTH 20 0
BBX 4 14 8 1
BITMAP
F0
60
60
60
60
60
60
60
60
60
60
60
60
F0
ENDCHAR
STARTCHAR 039A
ENCODING 922
SWIDTH 1000 0
DWIDTH 20 0
BBX 13 14 4 1
BITMAP
F0F0
4040
4080
4100
4200
4400
4E00
5200
6300
4180
40C0
4060
4030
F078
ENDCHAR
STARTCHAR 039B
ENCODING 923
SWIDTH 1000 0
DWIDTH 20 0
BBX 14 14 3 1
BITMAP
0300
0300
0500
0580
0480
08C0
08C0
1040
1060
1020
2030
2030
4010
F07C
ENDCHAR
STARTCHAR 039C
ENCODING 924
SWIDTH 1000 0
DWIDTH 20 0
BBX 16 14 2 1
BITMAP
E007
700E
500E
5816
4816
4826
4C26
4426
4646
4246
4386
4386
4186
F10F
ENDCHAR
STARTCHAR 039D
ENCODING 925
SWIDTH 1000 0
DWIDTH 20 0
BBX 14 14 3 1
BITMAP
E03C
7008
5808
4C08
4408
4608
4308
4188
4088
40C8
4068
4038
4018
F018
ENDCHAR
STARTCHAR 039E
ENCODING 926
SWIDTH 1000 0
DWIDTH 20 0
BBX 12 14 4 1
BITMAP
7FE0
4020
0000
0000
0000
2080
1F80
2080
0000
0000
0000
8010
8010
FFF0
ENDCHAR
STARTCHAR 039F
ENCODING 927
SWIDTH 1000 0
DWIDTH 20 0
BBX 14 15 3 0
BITMAP
0FC0
1860
3030
6018
4008
4008
C00C
C00C
C00C
4008
4018
6018
3030
1860
0FC0
ENDCHAR
STARTCHAR 03A0
ENCODING 928
SWIDTH 1000 0
DWIDTH 20 0
BBX 14 14 3 1
BITMAP
FFFC
2010
2010
2010
2010
2010
2010
2010
2010
2010
2010
2010
2010
F03C
ENDCHAR
STARTCHAR 03A1
ENCODING 929
SWIDTH 1000 0
DWIDTH 20 0
BBX 11 14 5 1
BITMAP
FF80
6040
6060
6020
6060
6060
60C0
7F80
6000
6000
6000
6000
6000
F000
ENDCHAR
STARTCHAR 03A3
ENCODING 931
SWIDTH 1000 0
DWIDTH 20 0
BBX 12 14 4 1
BITMAP
FFE0
4020
2020
1000
0800
0400
0200
0200
0400
0800
1010
2010
4030
FFF0
ENDCHAR
STARTCHAR 03A4
ENCODING 932
SWIDTH 1000 0
DWIDTH 20 0
BBX 13 14 4 1
BITMAP
FFF8
8618
0608
0608
0600
0600
0600
0600
0600
0600
0600
0600
0600
0F00
ENDCHAR
STARTCHAR 03A5
ENCODING 933
SWIDTH 1000 0
DWIDTH 20 0
BBX 14 14 3 1
BITMAP
3CF0
6498
4308
8308
8304
0300
0300
0300
0300
0300
0300
0300
0300
0780
ENDCHAR
STARTCHAR 03A6
ENCODING 934
SWIDTH 1000 0
DWIDTH 20 0
BBX 14 14 3 1
BITMAP
0780
0300
0FC0
3330
6318
4308
C30C
C30C
4308
6318
3330
0FC0
0300
0780
ENDCHAR
STARTCHAR 03A7
ENCODING 935
SWIDTH 1000 0
DWIDTH 20 0
BBX 14 14 3 1
BITMAP
F878
3020
1840
0840
0C80
0700
0300
0300
0480
08C0
1060
2030
2018
F07C
ENDCHAR
STARTCHAR 03A8
ENCODING 936
SWIDTH 1000 0
DWIDTH 20 0
BBX 16 14 2 1
BITMAP
63C6
B18D
1188
1188
1188
1188
1188
1188
0990
05A0
03C0
0180
0180
03C0
ENDCHAR
STARTCHAR 03A9
ENCODING 937
SWIDTH 1000 0
DWIDTH 20 0
BBX 12 14 4 1
BITMAP
1F80
30C0
6060
C030
C030
8010
8010
C030
C030
4020
6060
1080
8910
F9F0
ENDCHAR
STARTCHAR 03B1
ENCODING 945
SWIDTH 1000 0
DWIDTH 20 0
BBX 12 10 4 0
BITMAP
0F20
1940
3140
2180
6180
4100
4100
C310
45A0
78C0
ENDCHAR
STARTCHAR 03B2
ENCODING 946
SWIDTH 1000 0
DWIDTH 20 0
BBX 10 17 4 -2
BITMAP
0780
0CC0
0840
1040
1040
2080
2F00
2100
2080
2080
4080
4080
4180
6300
5E00
C000
C000
ENDCHAR
STARTCHAR 03B3
ENCODING 947
SWIDTH 1000 0
DWIDTH 20 0
BBX 11 12 4 -2
BITMAP
7060
8840
0880
0980
0500
0600
0600
0400
0400
0C00
0C00
0C00
ENDCHAR
STARTCHAR 03B4
ENCODING 948
SWIDTH 1000 0
DWIDTH 20 0
BBX 9 15 5 0
BITMAP
1F00
2180
2000
1000
0C00
1A00
2100
4100
4180
4180
C180
C100
4300
4600
3C00
ENDCHAR
STARTCHAR 03B5
ENCODING 949
SWIDTH 1000 0
DWIDTH 20 0
BBX 9 10 5 0
BITMAP
1E00
2100
4000
2000
3C00
4000
C000
C080
6100
3E00
ENDCHAR
STARTCHAR 03B6
ENCODING 950
SWIDTH 1000 0
DWIDTH 20 0
BBX 9 17 5 -2
BITMAP
1180
2300
3600
0800
1000
2000
6000
4000
C000
8000
8000
C000
7000
1E00
0200
1200
0E00
ENDCHAR
STARTCHAR 03B7
ENCODING 951
SWIDTH 1000 0
DWIDTH 20 0
BBX 10 12 4 -2
BITMAP
7380
9C40
1840
18C0
1080
1080
2080
2180
6100
0100
0100
0300
ENDCHAR
STARTCHAR 03B8
ENCODING 952
SWIDTH 1000 0
DWIDTH 20 0
BBX 9 15 5 0
BITMAP
0F00
1980
1080
2080
6080
4080
7F80
4080
C180
C180
C100
C300
4200
4400
3800
ENDCHAR
STARTCHAR 03B9
ENCODING 953
SWIDTH 1000 0
DWIDTH 20 0
BBX 5 10 7 0
BITMAP
20
20
40
40
40
80
80
88
88
70
ENDCHAR
STARTCHAR 03BA
ENCODING 954
SWIDTH 1000 0
DWIDTH 20 0
BBX 10 10 5 0
BITMAP
10C0
3300
2400
3800
7C00
4400
4400
C480
8480
0700
ENDCHAR
STARTCHAR 03BB
ENCODING 955
SWIDTH 1000 0
DWIDTH 20 0
BBX 10 15 5 0
BITMAP
1800
2400
0400
0400
0400
0400
0C00
0C00
1400
3400
2400
4400
C440
8280
0300
ENDCHAR
STARTCHAR 03BC
ENCODING 956
SWIDTH 1000 0
DWIDTH 20 0
BBX 12 13 4 -2
BITMAP
1040
1840
1040
2080
2080
2080
6100
6110
6320
6320
9CC0
8000
8000
ENDCHAR
STARTCHAR 03BD
ENCODING 957
SWIDTH 1000 0
DWIDTH 20 0
BBX 10 9 5 1
BITMAP
60C0
B0C0
1040
1040
1080
1180
3300
2C00
3000
ENDCHAR
STARTCHAR 03BE
ENCODING 958
SWIDTH 1000 0
DWIDTH 20 0
BBX 8 17 6 -1
BITMAP
27
3C
10
20
20
20
2E
30
40
80
80
80
60
1C
04
64
38
ENDCHAR
STARTCHAR 03BF
ENCODING 959
SWIDTH 1000 0
DWIDTH 20 0
BBX 8 10 6 0
BITMAP
1C
62
41
C1
81
81
81
C3
46
3C
ENDCHAR
STARTCHAR 03C0
ENCODING 960
SWIDTH 1000 0
DWIDTH 20 0
BBX 10 10 5 1
BITMAP
7FC0
9200
1200
2200
2200
2400
6400
4480
C680
0300
ENDCHAR
STARTCHAR 03C1
ENCODING 961
SWIDTH 1000 0
DWIDTH 20 0
BBX 10 12 4 -2
BITMAP
0780
18C0
1040
3040
2040
2040
50C0
5180
4F00
4000
4000
C000
ENDCHAR
STARTCHAR 03C2
ENCODING 962
SWIDTH 500 0
DWIDTH 10 0
BBX 8 14 1 -4
BITMAP
3E
41
41
C3
C0
40
60
30
18
0C
04
84
CC
78
ENDCHAR
STARTCHAR 03C3
ENCODING 963
SWIDTH 1000 0
DWIDTH 20 0
BBX 10 11 6 0
BITMAP
1FC0
6200
4300
C100
C100
8100
8100
8300
C200
4600
3C00
ENDCHAR
STARTCHAR 03C4
ENCODING 964
SWIDTH 1000 0
DWIDTH 20 0
BBX 10 10 5 1
BITMAP
7FC0
8800
0800
0800
1000
1000
3000
3100
3200
1C00
ENDCHAR
STARTCHAR 03C5
ENCODING 965
SWIDTH 1000 0
DWIDTH 20 0
BBX 10 10 4 0
BITMAP
70C0
90C0
1040
1040
1040
2040
2040
2080
3180
1E00
ENDCHAR
STARTCHAR 03C6
ENCODING 966
SWIDTH 1000 0
DWIDTH 20 0
BBX 10 16 5 -2
BITMAP
0300
0200
0200
0E00
3580
44C0
C440
8840
8840
8840
88C0
5180
3E00
1000
1000
2000
ENDCHAR
STARTCHAR 03C7
ENCODING 967
SWIDTH 1000 0
DWIDTH 20 0
BBX 10 12 5 -2
BITMAP
7080
9180
0900
0A00
0C00
0C00
0800
1400
2400
6440
C480
8380
ENDCHAR
STARTCHAR 03C8
ENCODING 968
SWIDTH 1000 0
DWIDTH 20 0
BBX 11 16 5 -2
BITMAP
0300
0300
0200
1280
2240
4440
8460
8460
8460
8840
88C0
4980
3E00
1000
1000
3000
ENDCHAR
STARTCHAR 03C9
ENCODING 969
SWIDTH 1000 0
DWIDTH 20 0
BBX 12 11 4 0
BITMAP
0020
3020
2010
4210
C210
8210
8610
8410
8420
CA60
71C0
ENDCHAR
STARTCHAR 0401
ENCODING 1025
SWIDTH 1000 0
DWIDTH 20 0
BBX 12 17 4 1
BITMAP
30C0
30C0
0000
FFE0
6020
2020
2000
2080
2080
3F80
2080
2080
2000
2010
2010
6030
FFF0
ENDCHAR
STARTCHAR 0410
ENCODING 1040
SWIDTH 1000 0
DWIDTH 20 0
BBX 14 14 3 2
BITMAP
0300
0300
0580
0480
0880
08C0
0840
1060
1FE0
2020
2030
4010
4018
E03C
ENDCHAR
STARTCHAR 0411
ENCODING 1041
SWIDTH 1000 0
DWIDTH 20 0
BBX 12 14 4 1
BITMAP
FFE0
2020
2020
2000
2000
2000
3FC0
2060
2030
2030
2030
2030
2020
FFC0
ENDCHAR
STARTCHAR 0412
ENCODING 1042
SWIDTH 1000 0
DWIDTH 20 0
BBX 12 14 4 1
BITMAP
FF80
2060
2060
2020
2060
20C0
3F00
20E0
2030
2030
2030
2030
2020
FFC0
ENDCHAR
STARTCHAR 0413
ENCODING 1043
SWIDTH 1000 0
DWIDTH 20 0
BBX 12 14 4 1
BITMAP
FFF0
3030
2010
2010
2000
2000
2000
2000
2000
2000
2000
2000
2000
7800
ENDCHAR
STARTCHAR 0414
ENCODING 1044
SWIDTH 1000 0
DWIDTH 20 0
BBX 14 16 3 -1
BITMAP
3FFC
0830
0830
0830
0830
0830
1030
1030
1030
1030
2030
2030
4030
FFFC
8004
8004
ENDCHAR
STARTCHAR 0415
ENCODING 1045
SWIDTH 1000 0
DWIDTH 20 0
BBX 12 14 4 1
BITMAP
FFE0
6020
2020
2000
2080
2080
3F80
2080
2080
2000
2010
2010
6030
FFF0
ENDCHAR
STARTCHAR 0416
ENCODING 1046
SWIDTH 1000 0
DWIDTH 20 0
BBX 18 14 1 1
BITMAP
71E380
70C380
10C400
08C400
08C400
04C800
03F000
06D800
04C800
08C400
18C600
10C200
20C100
F1E3C0
ENDCHAR
STARTCHAR 0417
ENCODING 1047
SWIDTH 1000 0
DWIDTH 20 0
BBX 10 15 5 0
BITMAP
3F00
6180
40C0
00C0
00C0
0180
1E00
0180
00C0
0040
8040
8040
C0C0
6180
3F00
ENDCHAR
STARTCHAR 0418
ENCODING 1048
SWIDTH 1000 0
DWIDTH 20 0
BBX 14 14 3 1
BITMAP
F87C
2010
2010
2030
2050
2090
2110
2210
2C10
3010
2010
2010
2010
F87C
ENDCHAR
STARTCHAR 0419
ENCODING 1049
SWIDTH 1000 0
DWIDTH 20 0
BBX 14 16 3 1
BITMAP
0CC0
0780
F87C
2010
2010
2030
2050
2090
2110
2210
2C10
3010
2010
2010
2010
F87C
ENDCHAR
STARTCHAR 041A
ENCODING 1050
SWIDTH 1000 0
DWIDTH 20 0
BBX 13 14 4 1
BITMAP
F070
40B0
40B0
4100
4100
4600
7E00
4200
4300
4180
40C0
4060
4030
F078
ENDCHAR
STARTCHAR 041B
ENCODING 1051
SWIDTH 1000 0
DWIDTH 20 0
BBX 14 15 2 0
BITMAP
07FC
0218
0208
0208
0208
0208
0208
0208
0208
0208
6408
E408
8408
483C
7800
ENDCHAR
STARTCHAR 041C
ENCODING 1052
SWIDTH 1000 0
DWIDTH 20 0
BBX 16 14 2 1
BITMAP
F00F
3814
3814
2814
2C24
2424
2444
4644
4244
4386
4186
4106
4006
F00F
ENDCHAR
STARTCHAR 041D
ENCODING 1053
SWIDTH 1000 0
DWIDTH 20 0
BBX 14 14 3 1
BITMAP
7038
2010
2010
2010
2010
2010
3FF0
2010
2010
2010
2010
2010
2010
F03C
ENDCHAR
STARTCHAR 041E
ENCODING 1054
SWIDTH 1000 0
DWIDTH 20 0
BBX 14 15 3 0
BITMAP
0FC0
1860
3030
6018
4008
4008
C00C
C00C
C00C
4008
4018
6018
3030
1860
0FC0
ENDCHAR
STARTCHAR 041F
ENCODING 1055
SWIDTH 1000 0
DWIDTH 20 0
BBX 14 14 3 1
BITMAP
FFFC
2010
2010
2010
2010
2010
2010
2010
2010
2010
2010
2010
2010
F03C
ENDCHAR
STARTCHAR 0420
ENCODING 1056
SWIDTH 1000 0
DWIDTH 20 0
BBX 11 14 5 1
BITMAP
FF80
6040
6060
6020
6060
6060
60C0
7F80
6000
6000
6000
6000
6000
F000
ENDCHAR
STARTCHAR 0421
ENCODING 1057
SWIDTH 1000 0
DWIDTH 20 0
BBX 13 15 3 0
BITMAP
07E0
1818
3008
2008
4000
4000
4000
C000
4000
4000
6008
6008
3008
1C38
07E0
ENDCHAR
STARTCHAR 0422
ENCODING 1058
SWIDTH 1000 0
DWIDTH 20 0
BBX 13 14 4 1
BITMAP
FFF8
8618
0608
0608
0600
0600
0600
0600
0600
0600
0600
0600
0600
0F00
ENDCHAR
STARTCHAR 0423
ENCODING 1059
SWIDTH 1000 0
DWIDTH 20 0
BBX 12 15 4 0
BITMAP
F070
2020
3040
1040
1880
0880
0D00
0500
0700
0200
0200
C400
C800
C800
7000
ENDCHAR
STARTCHAR 0424
ENCODING 1060
SWIDTH 1000 0
DWIDTH 20 0
BBX 14 14 3 1
BITMAP
0780
0300
0FC0
3330
6318
4308
C30C
C30C
4308
6318
3330
0FC0
0300
0780
ENDCHAR
STARTCHAR 0425
ENCODING 1061
SWIDTH 1000 0
DWIDTH 20 0
BBX 14 14 3 1
BITMAP
F878
3020
1840
0840
0C80
0700
0300
0300
0480
08C0
1060
2030
2018
F07C
ENDCHAR
STARTCHAR 0426
ENCODING 1062
SWIDTH 1000 0
DWIDTH 20 0
BBX 14 16 3 -1
BITMAP
F078
2030
2030
2030
2030
2030
2030
2030
2030
2030
2030
2030
6030
FFFC
0004
0004
ENDCHAR
STARTCHAR 0427
ENCODING 1063
SWIDTH 1000 0
DWIDTH 20 0
BBX 12 14 4 1
BITMAP
F0F0
4060
4060
4060
4060
4060
6060
20E0
1F60
0060
0060
0060
0060
00F0
ENDCHAR
STARTCHAR 0428
ENCODING 1064
SWIDTH 1000 0
DWIDTH 20 0
BBX 16 14 2 1
BITMAP
F3CF
6186
6186
6186
6186
6186
6186
6186
6186
6186
6186
6186
6186
FFFF
ENDCHAR
STARTCHAR 0429
ENCODING 1065
SWIDTH 1000 0
DWIDTH 20 0
BBX 17 16 2 -1
BITMAP
F3CF00
618400
610400
610400
610400
610400
610400
610400
610400
610400
610400
610400
618400
FFFF80
000180
000080
ENDCHAR
STARTCHAR 042A
ENCODING 1066
SWIDTH 1000 0
DWIDTH 20 0
BBX 15 14 3 1
BITMAP
FE00
8C00
8C00
0C00
0C00
0C00
0FF0
0C1C
0C04
0C06
0C06
0C04
0C0C
1FF0
ENDCHAR
STARTCHAR 042B
ENCODING 1067
SWIDTH 1000 0
DWIDTH 20 0
BBX 16 14 2 1
BITMAP
F00F
2004
2004
2004
2004
2004
3F84
20C4
2064
2024
2024
2064
2044
FF8F
ENDCHAR
STARTCHAR 042C
ENCODING 1068
SWIDTH 1000 0
DWIDTH 20 0
BBX 11 14 5 1
BITMAP
F000
4000
4000
4000
4000
4000
7F80
40C0
4060
4020
4020
4060
4040
FF80
ENDCHAR
STARTCHAR 042D
ENCODING 1069
SWIDTH 1000 0
DWIDTH 20 0
BBX 12 15 4 0
BITMAP
3F00
C0C0
8060
0030
0030
1C10
6630
01D0
0010
0010
8030
8030
8060
E1C0
3F00
ENDCHAR
STARTCHAR 042E
ENCODING 1070
SWIDTH 1000 0
DWIDTH 20 0
BBX 16 15 2 0
BITMAP
F0F8
610C
6206
6202
6603
6603
7E01
6601
6601
6603
6203
6202
6306
F18C
00F8
ENDCHAR
STARTCHAR 042F
ENCODING 1071
SWIDTH 1000 0
DWIDTH 20 0
BBX 13 14 3 1
BITMAP
0FF8
3030
2030
2030
3030
3830
0FF0
0630
0630
0C30
0830
1830
3030
C078
ENDCHAR
STARTCHAR 0430
ENCODING 1072
SWIDTH 1000 0
DWIDTH 20 0
BBX 9 10 6 0
BITMAP
7C00
C600
C200
0600
3A00
C200
8200
8200
C680
7980
ENDCHAR
STARTCHAR 0431
ENCODING 1073
SWIDTH 1000 0
DWIDTH 20 0
BBX 10 15 5 0
BITMAP
0040
0780
1E00
2000
4000
5E00
A100
C080
C0C0
C0C0
C0C0
C0C0
4180
2180
1E00
ENDCHAR
STARTCHAR 0432
ENCODING 1074
SWIDTH 1000 0
DWIDTH 20 0
BBX 9 9 5 1
BITMAP
FF00
4180
4180
4100
7E00
4180
4080
4080
FF00
ENDCHAR
STARTCHAR 0433
ENCODING 1075
SWIDTH 1000 0
DWIDTH 20 0
BBX 10 9 5 1
BITMAP
FFC0
20C0
2040
2040
2000
2000
2000
2000
7000
ENDCHAR
STARTCHAR 0434
ENCODING 1076
SWIDTH 1000 0
DWIDTH 20 0
BBX 12 11 4 -1
BITMAP
1FE0
08C0
10C0
10C0
10C0
10C0
20C0
40C0
FFF0
8010
8010
ENDCHAR
STARTCHAR 0435
ENCODING 1077
SWIDTH 1000 0
DWIDTH 20 0
BBX 9 10 5 0
BITMAP
1E00
2180
4080
FF80
C000
C000
C000
6080
7100
1E00
ENDCHAR
STARTCHAR 0436
ENCODING 1078
SWIDTH 1000 0
DWIDTH 20 0
BBX 14 9 3 1
BITMAP
C78C
E31C
1320
0B40
17A0
3330
2310
4318
E31C
ENDCHAR
STARTCHAR 0437
ENCODING 1079
SWIDTH 1000 0
DWIDTH 20 0
BBX 8 10 6 0
BITMAP
7C
C2
83
02
3C
03
81
81
C3
3C
ENDCHAR
STARTCHAR 0438
ENCODING 1080
SWIDTH 1000 0
DWIDTH 20 0
BBX 10 9 5 1
BITMAP
E1C0
4080
4380
4480
4880
5080
6080
4080
E1C0
ENDCHAR
STARTCHAR 0439
ENCODING 1081
SWIDTH 1000 0
DWIDTH 20 0
BBX 10 13 5 1
BITMAP
3300
3300
1E00
0000
E1C0
4080
4380
4480
4880
5080
6080
4080
E1C0
ENDCHAR
STARTCHAR 043A
ENCODING 1082
SWIDTH 1000 0
DWIDTH 20 0
BBX 11 9 5 1
BITMAP
61C0
6200
6200
7C00
6200
6300
6100
6080
F1E0
ENDCHAR
STARTCHAR 043B
ENCODING 1083
SWIDTH 1000 0
DWIDTH 20 0
BBX 12 10 3 0
BITMAP
0FF0
0460
0460
0460
0460
0460
C860
C860
C8F0
7000
ENDCHAR
STARTCHAR 043C
ENCODING 1084
SWIDTH 1000 0
DWIDTH 20 0
BBX 12 9 4 1
BITMAP
E070
60A0
50A0
5120
5920
4A20
4E20
4620
E470
ENDCHAR
STARTCHAR 043D
ENCODING 1085
SWIDTH 1000 0
DWIDTH 20 0
BBX 10 9 5 1
BITMAP
E1C0
4080
4080
4080
7F80
4080
4080
4080
E1C0
ENDCHAR
STARTCHAR 043E
ENCODING 1086
SWIDTH 1000 0
DWIDTH 20 0
BBX 10 10 5 0
BITMAP
1E00
6180
4080
C0C0
C0C0
C0C0
C0C0
4180
6180
1E00
ENDCHAR
STARTCHAR 043F
ENCODING 1087
SWIDTH 1000 0
DWIDTH 20 0
BBX 12 9 4 1
BITMAP
FFF0
2040
2040
2040
2040
2040
2040
2040
70E0
ENDCHAR
STARTCHAR 0440
ENCODING 1088
SWIDTH 1000 0
DWIDTH 20 0
BBX 10 12 5 -2
BITMAP
DF00
6180
60C0
60C0
60C0
60C0
6180
7F00
6000
6000
6000
F000
ENDCHAR
STARTCHAR 0441
ENCODING 1089
SWIDTH 1000 0
DWIDTH 20 0
BBX 9 10 5 0
BITMAP
1F00
3180
4180
4000
C000
C000
4000
6080
3100
1E00
ENDCHAR
STARTCHAR 0442
ENCODING 1090
SWIDTH 1000 0
DWIDTH 20 0
BBX 10 9 5 1
BITMAP
FFC0
8C40
8C40
0C00
0C00
0C00
0C00
0C00
1E00
ENDCHAR
STARTCHAR 0443
ENCODING 1091
SWIDTH 1000 0
DWIDTH 20 0
BBX 11 12 5 -2
BITMAP
F1E0
6080
2080
3100
1100
0A00
0E00
0400
0400
0800
6800
7000
ENDCHAR
STARTCHAR 0444
ENCODING 1092
SWIDTH 1000 0
DWIDTH 20 0
BBX 12 17 4 -2
BITMAP
0600
0E00
0600
0600
0600
3FC0
4660
4630
C630
C630
4630
6660
3FC0
0600
0600
0600
0F00
ENDCHAR
STARTCHAR 0445
ENCODING 1093
SWIDTH 1000 0
DWIDTH 20 0
BBX 11 9 4 1
BITMAP
70E0
1080
0900
0600
0600
0B00
1180
20C0
F0E0
ENDCHAR
STARTCHAR 0446
ENCODING 1094
SWIDTH 1000 0
DWIDTH 20 0
BBX 12 11 4 -1
BITMAP
71C0
20C0
20C0
20C0
20C0
20C0
20C0
20C0
FFF0
0030
0010
ENDCHAR
STARTCHAR 0447
ENCODING 1095
SWIDTH 1000 0
DWIDTH 20 0
BBX 10 9 5 1
BITMAP
E3C0
4180
4180
4180
6180
3F80
0180
0180
03C0
ENDCHAR
STARTCHAR 0448
ENCODING 1096
SWIDTH 1000 0
DWIDTH 20 0
BBX 14 9 3 1
BITMAP
E31C
4308
4308
4308
4308
4308
4308
4308
FFFC
ENDCHAR
STARTCHAR 0449
ENCODING 1097
SWIDTH 1000 0
DWIDTH 20 0
BBX 15 11 3 -1
BITMAP
E31C
4308
4308
4308
4308
4308
4308
4308
FFFC
0002
0002
ENDCHAR
STARTCHAR 044A
ENCODING 1098
SWIDTH 1000 0
DWIDTH 20 0
BBX 12 9 4 1
BITMAP
FC00
9800
1800
1800
1FC0
1860
1830
1820
1FC0
ENDCHAR
STARTCHAR 044B
ENCODING 1099
SWIDTH 1000 0
DWIDTH 20 0
BBX 12 9 4 1
BITMAP
E070
4020
4020
4020
7E20
4320
4120
4120
FE70
ENDCHAR
STARTCHAR 044C
ENCODING 1100
SWIDTH 1000 0
DWIDTH 20 0
BBX 9 9 6 1
BITMAP
E000
4000
4000
4000
7F00
4180
4180
4180
FF00
ENDCHAR
STARTCHAR 044D
ENCODING 1101
SWIDTH 1000 0
DWIDTH 20 0
BBX 10 10 5 0
BITMAP
3F00
4180
0080
00C0
3FC0
00C0
00C0
8080
4300
3E00
ENDCHAR
STARTCHAR 044E
ENCODING 1102
SWIDTH 1000 0
DWIDTH 20 0
BBX 14 10 3 0
BITMAP
F1F0
6318
660C
6404
7C04
6404
6404
660C
6318
01F0
ENDCHAR
STARTCHAR 044F
ENCODING 1103
SWIDTH 1000 0
DWIDTH 20 0
BBX 10 9 5 1
BITMAP
3FC0
4180
4180
6180
3F80
1980
1180
2180
C180
ENDCHAR
STARTCHAR 0451
ENCODING 1105
SWIDTH 1000 0
DWIDTH 20 0
BBX 9 14 5 0
BITMAP
2100
2100
0000
0000
1E00
2180
4080
FF80
C000
C000
C000
6080
7100
1E00
ENDCHAR
STARTCHAR 1E3E
ENCODING 7742
SWIDTH 950 0
DWIDTH 19 0
BBX 17 18 1 0
BITMAP
006000
00C000
010000
000000
F00780
380A00
280A00
280A00
2C1200
241200
241200
262200
222200
234200
214200
214200
218200
F88F80
ENDCHAR
STARTCHAR 1E3F
ENCODING 7743
SWIDTH 900 0
DWIDTH 18 0
BBX 17 15 1 0
BITMAP
004000
00C000
018000
000000
000000
EF3C00
31C600
218600
208200
208200
208200
208200
208200
208200
FBEF80
ENDCHAR
STARTCHAR 1F70
ENCODING 8048
SWIDTH 600 0
DWIDTH 12 0
BBX 10 14 1 1
BITMAP
3000
0800
0000
0000
3E80
6380
4180
C180
C180
C180
C180
4180
6280
3CC0
ENDCHAR
STARTCHAR 1F71
ENCODING 8049
SWIDTH 600 0
DWIDTH 12 0
BBX 10 15 1 0
BITMAP
0200
0600
0800
0000
0000
3E80
6380
4180
C180
C180
C180
C180
4180
6280
3CC0
ENDCHAR
STARTCHAR 1F72
ENCODING 8050
SWIDTH 500 0
DWIDTH 10 0
BBX 8 15 1 0
BITMAP
20
30
08
00
00
3F
60
40
40
3C
60
C0
C0
40
3F
ENDCHAR
STARTCHAR 1F73
ENCODING 8051
SWIDTH 500 0
DWIDTH 10 0
BBX 8 15 1 0
BITMAP
02
06
08
00
00
3F
60
40
40
3C
60
C0
C0
40
3F
ENDCHAR
STARTCHAR 2002
ENCODING 8194
SWIDTH 500 0
DWIDTH 10 0
BBX 0 0 0 0
BITMAP
ENDCHAR
STARTCHAR 2003
ENCODING 8195
SWIDTH 1000 0
DWIDTH 20 0
BBX 0 0 0 0
BITMAP
ENDCHAR
STARTCHAR 2010
ENCODING 8208
SWIDTH 300 0
DWIDTH 6 0
BBX 4 1 1 5
BITMAP
F0
ENDCHAR
STARTCHAR 2011
ENCODING 8209
SWIDTH 300 0
DWIDTH 6 0
BBX 4 1 1 5
BITMAP
F0
ENDCHAR
STARTCHAR 2012
ENCODING 8210
SWIDTH 300 0
DWIDTH 6 0
BBX 4 1 1 5
BITMAP
F0
ENDCHAR
STARTCHAR 2013
ENCODING 8211
SWIDTH 550 0
DWIDTH 11 0
BBX 9 1 1 5
BITMAP
FF80
ENDCHAR
STARTCHAR 2014
ENCODING 8212
SWIDTH 900 0
DWIDTH 18 0
BBX 18 1 0 7
BITMAP
FFFFC0
ENDCHAR
STARTCHAR 2015
ENCODING 8213
SWIDTH 1000 0
DWIDTH 20 0
BBX 18 1 1 7
BITMAP
FFFFC0
ENDCHAR
STARTCHAR 2016
ENCODING 8214
SWIDTH 1000 0
DWIDTH 20 0
BBX 4 20 8 -2
BITMAP
90
90
90
90
90
90
90
90
90
90
90
90
90
90
90
90
90
90
90
90
ENDCHAR
STARTCHAR 2018
ENCODING 8216
SWIDTH 1000 0
DWIDTH 20 0
BBX 2 5 16 12
BITMAP
40
80
C0
C0
C0
ENDCHAR
STARTCHAR 2019
ENCODING 8217
SWIDTH 1000 0
DWIDTH 20 0
BBX 2 5 2 11
BITMAP
C0
C0
C0
40
80
ENDCHAR
STARTCHAR 201C
ENCODING 8220
SWIDTH 1000 0
DWIDTH 20 0
BBX 6 5 12 12
BITMAP
44
88
CC
CC
CC
ENDCHAR
STARTCHAR 201D
ENCODING 8221
SWIDTH 1000 0
DWIDTH 20 0
BBX 6 5 2 11
BITMAP
CC
CC
CC
44
88
ENDCHAR
STARTCHAR 2020
ENCODING 8224
SWIDTH 1000 0
DWIDTH 20 0
BBX 8 17 6 -1
BITMAP
18
18
18
F7
FF
18
18
18
18
18
10
10
10
10
10
10
10
ENDCHAR
STARTCHAR 2021
ENCODING 8225
SWIDTH 1000 0
DWIDTH 20 0
BBX 8 19 6 -2
BITMAP
18
18
18
F7
FF
18
18
10
10
10
10
10
18
18
F7
FF
18
18
18
ENDCHAR
STARTCHAR 2022
ENCODING 8226
SWIDTH 350 0
DWIDTH 7 0
BBX 3 3 2 5
BITMAP
E0
E0
E0
ENDCHAR
STARTCHAR 2025
ENCODING 8229
SWIDTH 1000 0
DWIDTH 20 0
BBX 12 3 4 6
BITMAP
C030
C030
C030
ENDCHAR
STARTCHAR 2026
ENCODING 8230
SWIDTH 1000 0
DWIDTH 20 0
BBX 16 2 2 6
BITMAP
C183
C183
ENDCHAR
STARTCHAR 2030
ENCODING 8240
SWIDTH 1000 0
DWIDTH 20 0
BBX 18 18 1 -1
BITMAP
002000
704000
484000
C88000
8C8000
8D0000
C90000
4A0000
720000
040000
05C380
092480
0A24C0
122C40
122C40
2224C0
212480
41C380
ENDCHAR
STARTCHAR 2032
ENCODING 8242
SWIDTH 250 0
DWIDTH 5 0
BBX 3 6 1 11
BITMAP
60
40
40
40
80
80
ENDCHAR
STARTCHAR 2033
ENCODING 8243
SWIDTH 400 0
DWIDTH 8 0
BBX 6 6 1 11
BITMAP
6C
48
48
48
90
90
ENDCHAR
STARTCHAR 203B
ENCODING 8251
SWIDTH 1000 0
DWIDTH 20 0
BBX 16 16 2 0
BITMAP
0180
C183
6186
300C
1818
0C30
0660
E3C7
E187
E3C7
0660
0C30
1818
318C
6186
C183
ENDCHAR
STARTCHAR 203C
ENCODING 8252
SWIDTH 450 0
DWIDTH 9 0
BBX 5 14 2 0
BITMAP
C8
C8
C8
C8
C8
88
88
88
88
08
00
00
D8
D8
ENDCHAR
STARTCHAR 203E
ENCODING 8254
SWIDTH 500 0
DWIDTH 10 0
BBX 6 1 2 12
BITMAP
FC
ENDCHAR
STARTCHAR 203F
ENCODING 8255
SWIDTH 450 0
DWIDTH 9 0
BBX 9 2 0 -2
BITMAP
8080
7F00
ENDCHAR
STARTCHAR 2042
ENCODING 8258
SWIDTH 1000 0
DWIDTH 20 0
BBX 14 15 3 0
BITMAP
0300
0A40
0680
0300
0EC0
0300
0000
0000
2010
2010
ECEC
3030
FCEC
2010
2010
ENDCHAR
STARTCHAR 2047
ENCODING 8263
SWIDTH 950 0
DWIDTH 19 0
BBX 17 14 1 0
BITMAP
3C3E00
466300
834180
C16180
C36180
020100
040200
080400
100800
100800
000000
000000
180800
180800
ENDCHAR
STARTCHAR 2048
ENCODING 8264
SWIDTH 700 0
DWIDTH 14 0
BBX 11 14 1 0
BITMAP
3C20
4620
8320
C120
C320
0220
0420
0820
1020
1020
0000
0000
1860
1860
ENDCHAR
STARTCHAR 2049
ENCODING 8265
SWIDTH 700 0
DWIDTH 14 0
BBX 11 14 2 0
BITMAP
C780
C860
D060
D820
D820
8040
8080
8100
8200
0200
0000
0000
C300
C300
ENDCHAR
STARTCHAR 2051
ENCODING 8273
SWIDTH 1000 0
DWIDTH 20 0
BBX 6 15 7 0
BITMAP
30
EC
30
68
A4
30
00
00
00
30
A4
78
78
AC
30
ENDCHAR
STARTCHAR 205A
ENCODING 8282
SWIDTH 1000 0
DWIDTH 20 0
BBX 2 13 9 1
BITMAP
C0
C0
C0
00
00
00
00
00
00
00
C0
C0
C0
ENDCHAR
STARTCHAR 205D
ENCODING 8285
SWIDTH 1000 0
DWIDTH 20 0
BBX 2 15 9 0
BITMAP
C0
C0
00
00
00
00
00
C0
C0
00
00
00
00
C0
C0
ENDCHAR
STARTCHAR 20AC
ENCODING 8364
SWIDTH 600 0
DWIDTH 12 0
BBX 11 14 0 0
BITMAP
07A0
1860
1020
3020
2000
FF00
6000
FF00
2000
2000
3000
3020
1840
0780
ENDCHAR
STARTCHAR 2103
ENCODING 8451
SWIDTH 1000 0
DWIDTH 20 0
BBX 16 16 1 1
BITMAP
6000
9000
90F9
6307
0603
0C01
0C00
0800
0800
0800
0800
0C00
0C01
0601
0306
00F8
ENDCHAR
STARTCHAR 210F
ENCODING 8463
SWIDTH 550 0
DWIDTH 11 0
BBX 9 15 1 0
BITMAP
1000
3000
1E00
6000
2000
2700
2900
5100
6100
4100
4300
C200
8280
8680
8300
ENDCHAR
STARTCHAR 2113
ENCODING 8467
SWIDTH 1000 0
DWIDTH 20 0
BBX 10 15 5 0
BITMAP
0300
0480
0880
0880
1180
1100
3100
2200
2200
2400
2800
3040
6080
9100
1E00
ENDCHAR
STARTCHAR 2116
ENCODING 8470
SWIDTH 1000 0
DWIDTH 20 0
BBX 18 14 1 1
BITMAP
E38000
610000
710000
510000
511C00
492200
492200
4D2300
456300
476300
432300
432200
4122C0
E11CC0
ENDCHAR
STARTCHAR 2121
ENCODING 8481
SWIDTH 1000 0
DWIDTH 20 0
BBX 18 14 1 1
BITMAP
FE0000
920000
920000
100000
11F600
111200
110200
112200
11E200
112200
110200
111240
111240
39F7C0
ENDCHAR
STARTCHAR 2127
ENCODING 8487
SWIDTH 850 0
DWIDTH 17 0
BBX 15 14 1 0
BITMAP
7EFC
4444
8824
9012
3018
2008
6008
600C
600C
6008
2018
3018
1830
07C0
ENDCHAR
STARTCHAR 212B
ENCODING 8491
SWIDTH 1000 0
DWIDTH 20 0
BBX 13 16 3 1
BITMAP
0300
0480
0500
0200
0300
0500
0580
0480
0880
08C0
1040
1FE0
1060
2030
2030
E038
ENDCHAR
STARTCHAR 2135
ENCODING 8501
SWIDTH 700 0
DWIDTH 14 0
BBX 11 14 1 0
BITMAP
2000
40C0
4060
4060
60A0
3900
3D00
4700
4180
60C0
6060
2020
2060
C040
ENDCHAR
STARTCHAR 2153
ENCODING 8531
SWIDTH 750 0
DWIDTH 15 0
BBX 12 14 2 1
BITMAP
C020
4040
4080
4080
4100
4200
F2E0
0510
0990
1010
1070
2010
4110
41F0
ENDCHAR
STARTCHAR 2154
ENCODING 8532
SWIDTH 750 0
DWIDTH 15 0
BBX 13 14 1 1
BITMAP
7810
C820
0860
1040
6080
8900
F970
0288
04C8
0408
0838
1008
2088
20F8
ENDCHAR
STARTCHAR 2155
ENCODING 8533
SWIDTH 750 0
DWIDTH 15 0
BBX 12 14 2 1
BITMAP
C020
4040
4080
4080
4100
4200
4200
24F0
0900
1160
1190
2010
4110
40E0
ENDCHAR
STARTCHAR 2160
ENCODING 8544
SWIDTH 1000 0
DWIDTH 20 0
BBX 4 14 8 1
BITMAP
F0
60
60
60
60
60
60
60
60
60
60
60
60
F0
ENDCHAR
STARTCHAR 2161
ENCODING 8545
SWIDTH 1000 0
DWIDTH 20 0
BBX 12 14 4 1
BITMAP
FFF0
2040
2040
2040
2040
2040
2040
2040
2040
2040
2040
2040
3040
FFF0
ENDCHAR
STARTCHAR 2162
ENCODING 8546
SWIDTH 1000 0
DWIDTH 20 0
BBX 16 14 2 1
BITMAP
FFFF
2184
2184
2184
2184
2184
2184
2184
2184
2184
2184
2184
2184
FFFF
ENDCHAR
STARTCHAR 2163
ENCODING 8547
SWIDTH 1000 0
DWIDTH 20 0
BBX 17 14 2 1
BITMAP
FF8780
220100
230200
210200
210400
218400
208400
208800
20C800
204800
207000
207000
203000
F82000
ENDCHAR
STARTCHAR 2164
ENCODING 8548
SWIDTH 1000 0
DWIDTH 20 0
BBX 14 14 3 1
BITMAP
F83C
2018
3010
3010
1020
1820
0840
0C40
0C40
0480
0680
0300
0300
0100
ENDCHAR
STARTCHAR 2165
ENCODING 8549
SWIDTH 1000 0
DWIDTH 20 0
BBX 17 14 1 1
BITMAP
F07F80
602200
202200
304200
104200
104200
188200
088200
088200
0D0200
050200
050200
060200
020F80
ENDCHAR
STARTCHAR 2166
ENCODING 8550
SWIDTH 1000 0
DWIDTH 20 0
BBX 18 14 1 1
BITMAP
F1FFC0
605900
209900
209900
209900
311900
111900
111900
1A1900
0A1900
0A1900
0C1900
041900
043FC0
ENDCHAR
STARTCHAR 2167
ENCODING 8551
SWIDTH 1000 0
DWIDTH 20 0
BBX 18 14 1 1
BITMAP
F3FFC0
40B480
613480
213480
213480
223480
323480
123480
123480
1C3480
0C3480
0C3480
0C3480
087FC0
ENDCHAR
STARTCHAR 2168
ENCODING 8552
SWIDTH 1000 0
DWIDTH 20 0
BBX 17 14 2 1
BITMAP
FFCF00
218400
208800
20C800
205000
207000
202000
203000
205800
208800
208C00
210400
210600
FF8F80
ENDCHAR
STARTCHAR 2169
ENCODING 8553
SWIDTH 1000 0
DWIDTH 20 0
BBX 14 14 3 1
BITMAP
F878
3020
1840
0840
0C80
0700
0300
0300
0480
08C0
1060
2030
2018
F07C
ENDCHAR
STARTCHAR 216A
ENCODING 8554
SWIDTH 1000 0
DWIDTH 20 0
BBX 17 14 1 1
BITMAP
78FF80
104200
188200
088200
0D0200
060200
060200
070200
050200
098200
108200
10C200
204200
F8FF80
ENDCHAR
STARTCHAR 216B
ENCODING 8555
SWIDTH 1000 0
DWIDTH 20 0
BBX 18 14 1 1
BITMAP
F1FFC0
208900
110900
110900
0A0900
0C0900
040900
060900
0A0900
130900
118900
208900
40C900
F1FFC0
ENDCHAR
STARTCHAR 2170
ENCODING 8560
SWIDTH 1000 0
DWIDTH 20 0
BBX 4 14 8 1
BITMAP
60
60
00
00
60
E0
60
60
60
60
60
60
60
F0
ENDCHAR
STARTCHAR 2171
ENCODING 8561
SWIDTH 1000 0
DWIDTH 20 0
BBX 10 14 5 1
BITMAP
6180
6180
0000
0000
6080
E380
6080
6080
6080
6080
6080
6080
6080
F3C0
ENDCHAR
STARTCHAR 2172
ENCODING 8562
SWIDTH 1000 0
DWIDTH 20 0
BBX 14 14 3 1
BITMAP
6318
6318
0000
0000
6318
E738
6318
6318
6318
6318
6318
6318
6318
FFFC
ENDCHAR
STARTCHAR 2173
ENCODING 8563
SWIDTH 1000 0
DWIDTH 20 0
BBX 15 14 3 1
BITMAP
6000
6000
0000
0000
0000
E70E
2208
2308
2108
2190
2090
20A0
2060
7040
ENDCHAR
STARTCHAR 2174
ENCODING 8564
SWIDTH 1000 0
DWIDTH 20 0
BBX 10 9 5 0
BITMAP
E1C0
4080
2100
2100
3100
1200
1A00
0C00
0C00
ENDCHAR
STARTCHAR 2175
ENCODING 8565
SWIDTH 1000 0
DWIDTH 20 0
BBX 15 14 2 1
BITMAP
000C
000C
0000
0000
0000
F1FC
208C
208C
310C
110C
1A0C
0A0C
0C0C
041E
ENDCHAR
STARTCHAR 2176
ENCODING 8566
SWIDTH 1000 0
DWIDTH 20 0
BBX 17 14 1 1
BITMAP
001980
001980
000000
000000
000000
F1FB00
209900
309900
111900
111900
1A1900
0A1900
0C1900
043F80
ENDCHAR
STARTCHAR 2177
ENCODING 8567
SWIDTH 1000 0
DWIDTH 20 0
BBX 18 14 1 1
BITMAP
006D80
006D80
000000
000000
000000
F1FF80
60A480
212480
212480
122480
122480
1C2480
0C2480
087FC0
ENDCHAR
STARTCHAR 2178
ENCODING 8568
SWIDTH 1000 0
DWIDTH 20 0
BBX 15 14 3 1
BITMAP
6000
6000
0000
0000
0000
E39C
2190
2090
2060
2060
20A0
2110
2208
7F1E
ENDCHAR
STARTCHAR 2179
ENCODING 8569
SWIDTH 1000 0
DWIDTH 20 0
BBX 11 9 4 1
BITMAP
70E0
1080
0900
0600
0600
0B00
1180
20C0
F0E0
ENDCHAR
STARTCHAR 217A
ENCODING 8570
SWIDTH 1000 0
DWIDTH 20 0
BBX 15 14 2 1
BITMAP
000C
000C
0000
0000
0000
71DC
110C
1A0C
0C0C
040C
0A0C
130C
218C
E3FE
ENDCHAR
STARTCHAR 217B
ENCODING 8571
SWIDTH 1000 0
DWIDTH 20 0
BBX 17 14 1 1
BITMAP
001980
001980
000000
000000
000000
79FB00
111900
0A1900
0C1900
041900
0A1900
111900
219900
F1FF80
ENDCHAR
STARTCHAR 2190
ENCODING 8592
SWIDTH 1000 0
DWIDTH 20 0
BBX 18 7 1 4
BITMAP
080000
100000
600000
FFFFC0
600000
100000
080000
ENDCHAR
STARTCHAR 2191
ENCODING 8593
SWIDTH 1000 0
DWIDTH 20 0
BBX 7 17 7 -1
BITMAP
30
78
68
A4
22
20
20
20
20
20
20
20
20
20
20
20
20
ENDCHAR
STARTCHAR 2192
ENCODING 8594
SWIDTH 1000 0
DWIDTH 20 0
BBX 18 7 1 4
BITMAP
000400
000200
000180
FFFFC0
000180
000200
000400
ENDCHAR
STARTCHAR 2193
ENCODING 8595
SWIDTH 1000 0
DWIDTH 20 0
BBX 7 17 7 -1
BITMAP
20
20
20
20
20
20
20
20
20
20
20
20
22
A4
68
30
30
ENDCHAR
STARTCHAR 2194
ENCODING 8596
SWIDTH 750 0
DWIDTH 15 0
BBX 13 7 1 2
BITMAP
1880
2060
4030
FFF8
4010
2020
1040
ENDCHAR
STARTCHAR 2196
ENCODING 8598
SWIDTH 1000 0
DWIDTH 20 0
BBX 14 14 3 0
BITMAP
8000
FC00
A000
9000
8800
4400
4200
0100
0080
0040
0020
0010
0008
0004
ENDCHAR
STARTCHAR 2197
ENCODING 8599
SWIDTH 1000 0
DWIDTH 20 0
BBX 14 14 3 0
BITMAP
0004
00FC
0014
0024
0044
0088
0108
0200
0400
0800
1000
2000
4000
8000
ENDCHAR
STARTCHAR 2198
ENCODING 8600
SWIDTH 1000 0
DWIDTH 20 0
BBX 14 14 3 1
BITMAP
8000
C000
6000
3000
1800
0C00
0600
0300
0188
00C8
0064
0034
001C
00FC
ENDCHAR
STARTCHAR 2199
ENCODING 8601
SWIDTH 1000 0
DWIDTH 20 0
BBX 14 14 3 1
BITMAP
0004
000C
0018
0030
0060
00C0
0180
0300
4600
4C00
9800
B000
E000
FC00
ENDCHAR
STARTCHAR 21C4
ENCODING 8644
SWIDTH 1000 0
DWIDTH 20 0
BBX 18 15 1 0
BITMAP
000400
000200
000180
FFFFC0
000180
000200
000400
000000
080000
100000
600000
FFFFC0
600000
100000
080000
ENDCHAR
STARTCHAR 21D2
ENCODING 8658
SWIDTH 750 0
DWIDTH 15 0
BBX 12 8 1 2
BITMAP
0080
0040
FFE0
0010
0010
FFE0
0040
0080
ENDCHAR
STARTCHAR 21D4
ENCODING 8660
SWIDTH 750 0
DWIDTH 15 0
BBX 11 8 2 2
BITMAP
3100
6080
7FC0
8020
8020
FFC0
6080
3100
ENDCHAR
STARTCHAR 21E6
ENCODING 8678
SWIDTH 1000 0
DWIDTH 20 0
BBX 16 6 2 5
BITMAP
0800
3800
47FF
8001
6FFE
1800
ENDCHAR
STARTCHAR 21E7
ENCODING 8679
SWIDTH 1000 0
DWIDTH 20 0
BBX 6 16 7 0
BITMAP
20
30
50
88
84
CC
50
50
50
50
50
50
50
50
50
70
ENDCHAR
STARTCHAR 21E8
ENCODING 8680
SWIDTH 1000 0
DWIDTH 20 0
BBX 16 6 2 5
BITMAP
0010
0028
FFE6
8001
7FE6
0018
ENDCHAR
STARTCHAR 21E9
ENCODING 8681
SWIDTH 1000 0
DWIDTH 20 0
BBX 6 15 7 -1
BITMAP
70
50
50
50
50
50
50
50
50
50
CC
88
88
50
30
ENDCHAR
STARTCHAR 2200
ENCODING 8704
SWIDTH 750 0
DWIDTH 15 0
BBX 13 14 1 0
BITMAP
8008
8018
4010
6030
3FE0
2060
1040
10C0
0880
0980
0500
0500
0200
0200
ENDCHAR
STARTCHAR 2202
ENCODING 8706
SWIDTH 600 0
DWIDTH 12 0
BBX 9 15 1 0
BITMAP
0E00
1100
0180
0080
0080
0080
1C80
6280
4180
C180
C180
C100
C300
4600
3C00
ENDCHAR
STARTCHAR 2203
ENCODING 8707
SWIDTH 750 0
DWIDTH 15 0
BBX 10 14 2 0
BITMAP
FFC0
0040
0040
0040
0040
0040
FFC0
0040
0040
0040
0040
0040
0040
FFC0
ENDCHAR
STARTCHAR 2205
ENCODING 8709
SWIDTH 800 0
DWIDTH 16 0
BBX 13 13 1 0
BITMAP
0F88
1070
2030
4048
4088
8108
8208
8408
4808
5010
2010
5860
0780
ENDCHAR
STARTCHAR 2207
ENCODING 8711
SWIDTH 750 0
DWIDTH 15 0
BBX 13 14 1 0
BITMAP
FFF8
4010
6010
6020
3020
3040
1040
18C0
0880
0C80
0500
0700
0200
0200
ENDCHAR
STARTCHAR 2208
ENCODING 8712
SWIDTH 700 0
DWIDTH 14 0
BBX 11 10 1 1
BITMAP
1FE0
2000
4000
8000
FFE0
8000
C000
4000
2000
1FE0
ENDCHAR
STARTCHAR 2209
ENCODING 8713
SWIDTH 700 0
DWIDTH 14 0
BBX 11 13 1 0
BITMAP
0080
0080
1FE0
2100
4300
8200
FFE0
8400
C400
4400
2800
1FE0
1000
ENDCHAR
STARTCHAR 220B
ENCODING 8715
SWIDTH 700 0
DWIDTH 14 0
BBX 11 10 1 1
BITMAP
FF00
00C0
0020
0020
FFE0
0020
0020
0060
00C0
FF80
ENDCHAR
STARTCHAR 2212
ENCODING 8722
SWIDTH 700 0
DWIDTH 14 0
BBX 11 1 1 6
BITMAP
FFE0
ENDCHAR
STARTCHAR 2213
ENCODING 8723
SWIDTH 700 0
DWIDTH 14 0
BBX 11 11 1 1
BITMAP
FFE0
0000
0400
0400
0400
0400
FFE0
0400
0400
0400
0400
ENDCHAR
STARTCHAR 2219
ENCODING 8729
SWIDTH 250 0
DWIDTH 5 0
BBX 2 2 1 5
BITMAP
C0
C0
ENDCHAR
STARTCHAR 221A
ENCODING 8730
SWIDTH 550 0
DWIDTH 11 0
BBX 10 19 1 -1
BITMAP
0040
0040
0080
0080
0100
0100
0100
0200
0200
0200
4400
4400
4400
A800
A800
2800
3000
1000
1000
ENDCHAR
STARTCHAR 221D
ENCODING 8733
SWIDTH 700 0
DWIDTH 14 0
BBX 10 7 2 3
BITMAP
71C0
8A00
8600
8400
8600
8A00
71C0
ENDCHAR
STARTCHAR 221E
ENCODING 8734
SWIDTH 700 0
DWIDTH 14 0
BBX 12 7 1 3
BITMAP
71C0
8B20
8610
8410
8620
CB20
71C0
ENDCHAR
STARTCHAR 221F
ENCODING 8735
SWIDTH 700 0
DWIDTH 14 0
BBX 10 12 2 1
BITMAP
8000
8000
8000
8000
8000
8000
8000
8000
8000
8000
8000
FFC0
ENDCHAR
STARTCHAR 2220
ENCODING 8736
SWIDTH 700 0
DWIDTH 14 0
BBX 12 12 1 1
BITMAP
0200
0200
0400
0C00
0800
1000
1000
2000
2000
4000
4000
FFF0
ENDCHAR
STARTCHAR 2225
ENCODING 8741
SWIDTH 700 0
DWIDTH 14 0
BBX 9 17 2 0
BITMAP
0480
0480
0480
0900
0900
0900
1200
1200
1200
2400
2400
2400
4800
4800
4800
9000
9000
ENDCHAR
STARTCHAR 2226
ENCODING 8742
SWIDTH 700 0
DWIDTH 14 0
BBX 9 17 2 0
BITMAP
0480
0480
0480
8900
4900
2900
1200
1A00
1E00
2600
2600
2500
4880
4800
4800
9000
9000
ENDCHAR
STARTCHAR 2227
ENCODING 8743
SWIDTH 700 0
DWIDTH 14 0
BBX 10 10 2 0
BITMAP
0C00
0C00
1400
1200
2200
2100
4100
4080
8080
8040
ENDCHAR
STARTCHAR 2228
ENCODING 8744
SWIDTH 700 0
DWIDTH 14 0
BBX 10 11 2 1
BITMAP
0040
8040
8080
4080
4100
2100
2200
1200
1400
0C00
0800
ENDCHAR
STARTCHAR 2229
ENCODING 8745
SWIDTH 700 0
DWIDTH 14 0
BBX 10 11 2 1
BITMAP
3E00
6100
C080
8080
8040
8040
8040
8040
8040
8040
8040
ENDCHAR
STARTCHAR 222A
ENCODING 8746
SWIDTH 700 0
DWIDTH 14 0
BBX 10 12 2 0
BITMAP
8040
8040
8040
8040
8040
8040
8040
8080
8080
4080
6100
1E00
ENDCHAR
STARTCHAR 222B
ENCODING 8747
SWIDTH 550 0
DWIDTH 11 0
BBX 10 17 1 -3
BITMAP
0380
06C0
0400
0400
0C00
0C00
0800
0800
0800
0800
0800
0800
0800
0800
9800
9000
E000
ENDCHAR
STARTCHAR 222C
ENCODING 8748
SWIDTH 900 0
DWIDTH 18 0
BBX 16 17 1 -3
BITMAP
038F
06C9
0410
0410
0C10
0C10
0810
0810
0830
0830
0830
0820
0820
0820
9B20
9260
E1C0
ENDCHAR
STARTCHAR 222E
ENCODING 8750
SWIDTH 550 0
DWIDTH 11 0
BBX 10 17 1 -3
BITMAP
0380
04C0
0400
0400
0C00
0800
3E00
2A00
4900
2A00
1C00
0800
0800
0800
9000
9000
E000
ENDCHAR
STARTCHAR 2234
ENCODING 8756
SWIDTH 700 0
DWIDTH 14 0
BBX 11 11 1 1
BITMAP
0600
0E00
0600
0000
0000
0000
0000
0000
6060
E060
6060
ENDCHAR
STARTCHAR 2235
ENCODING 8757
SWIDTH 700 0
DWIDTH 14 0
BBX 11 11 1 1
BITMAP
6060
E060
6060
0000
0000
0000
0000
0000
0600
0E00
0600
ENDCHAR
STARTCHAR 223C
ENCODING 8764
SWIDTH 500 0
DWIDTH 10 0
BBX 6 2 2 12
BITMAP
60
9C
ENDCHAR
STARTCHAR 223D
ENCODING 8765
SWIDTH 700 0
DWIDTH 14 0
BBX 12 6 1 4
BITMAP
01C0
7320
8610
8410
8820
78C0
ENDCHAR
STARTCHAR 2243
ENCODING 8771
SWIDTH 700 0
DWIDTH 14 0
BBX 11 6 1 4
BITMAP
3800
4620
01C0
0000
0000
FFE0
ENDCHAR
STARTCHAR 2245
ENCODING 8773
SWIDTH 700 0
DWIDTH 14 0
BBX 11 8 1 2
BITMAP
7C20
C3C0
0000
0000
FFE0
0000
0000
FFE0
ENDCHAR
STARTCHAR 2248
ENCODING 8776
SWIDTH 700 0
DWIDTH 14 0
BBX 11 6 1 3
BITMAP
7C20
43C0
0000
3800
4E20
83C0
ENDCHAR
STARTCHAR 2252
ENCODING 8786
SWIDTH 700 0
DWIDTH 14 0
BBX 11 13 1 0
BITMAP
3000
7000
3000
0000
FFE0
0000
0000
0000
FFE0
0000
00C0
00C0
00C0
ENDCHAR
STARTCHAR 2260
ENCODING 8800
SWIDTH 700 0
DWIDTH 14 0
BBX 11 12 1 0
BITMAP
0100
0100
0100
0200
FFE0
0200
0400
0400
FFE0
0800
0800
0800
ENDCHAR
STARTCHAR 2261
ENCODING 8801
SWIDTH 700 0
DWIDTH 14 0
BBX 11 7 1 3
BITMAP
FFE0
0000
0000
FFE0
0000
0000
FFE0
ENDCHAR
STARTCHAR 2262
ENCODING 8802
SWIDTH 700 0
DWIDTH 14 0
BBX 11 11 1 0
BITMAP
0100
0100
FFE0
0200
0200
FFE0
0400
0400
FFE0
0800
0800
ENDCHAR
STARTCHAR 2266
ENCODING 8806
SWIDTH 700 0
DWIDTH 14 0
BBX 11 12 1 1
BITMAP
0020
01C0
0E00
7000
C000
3C00
0380
0060
0000
FFE0
0000
FFE0
ENDCHAR
STARTCHAR 2267
ENCODING 8807
SWIDTH 700 0
DWIDTH 14 0
BBX 11 12 1 1
BITMAP
8000
7000
0E00
01C0
0060
0380
1C00
E000
0000
FFE0
0000
FFE0
ENDCHAR
STARTCHAR 226A
ENCODING 8810
SWIDTH 700 0
DWIDTH 14 0
BBX 11 11 1 1
BITMAP
0200
0660
0880
3100
6600
8800
4400
3300
1980
0440
0220
ENDCHAR
STARTCHAR 226B
ENCODING 8811
SWIDTH 700 0
DWIDTH 14 0
BBX 11 10 1 2
BITMAP
4400
3300
1880
0440
0220
0660
0880
1100
6600
8C00
ENDCHAR
STARTCHAR 2276
ENCODING 8822
SWIDTH 700 0
DWIDTH 14 0
BBX 11 13 1 0
BITMAP
00E0
0700
3800
E000
1C00
03C0
7020
0E00
01C0
0060
0780
7800
8000
ENDCHAR
STARTCHAR 2277
ENCODING 8823
SWIDTH 700 0
DWIDTH 14 0
BBX 11 13 1 0
BITMAP
E000
1E00
01C0
0060
0780
3800
C0E0
0F00
7000
E000
1C00
03C0
0020
ENDCHAR
STARTCHAR 2282
ENCODING 8834
SWIDTH 700 0
DWIDTH 14 0
BBX 11 10 1 1
BITMAP
1FE0
2000
4000
4000
8000
8000
C000
4000
2000
1FE0
ENDCHAR
STARTCHAR 2283
ENCODING 8835
SWIDTH 700 0
DWIDTH 14 0
BBX 11 10 1 1
BITMAP
FF00
00C0
0060
0020
0020
0020
0020
0020
00C0
FF80
ENDCHAR
STARTCHAR 2284
ENCODING 8836
SWIDTH 700 0
DWIDTH 14 0
BBX 11 12 1 1
BITMAP
0080
1FE0
2080
4100
4100
8200
8200
C200
4400
2400
1FE0
0800
ENDCHAR
STARTCHAR 2285
ENCODING 8837
SWIDTH 700 0
DWIDTH 14 0
BBX 11 12 1 1
BITMAP
0100
FF80
02C0
0420
0420
0420
0820
0820
1060
10C0
FF00
2000
ENDCHAR
STARTCHAR 2286
ENCODING 8838
SWIDTH 700 0
DWIDTH 14 0
BBX 11 12 1 1
BITMAP
1FE0
6000
4000
8000
8000
8000
4000
6000
3FE0
0000
0000
FFE0
ENDCHAR
STARTCHAR 2287
ENCODING 8839
SWIDTH 700 0
DWIDTH 14 0
BBX 11 12 1 1
BITMAP
FF80
0040
0020
0020
0020
0020
0020
0040
FF80
0000
0000
FFE0
ENDCHAR
STARTCHAR 228A
ENCODING 8842
SWIDTH 700 0
DWIDTH 14 0
BBX 11 13 1 0
BITMAP
1FE0
6000
4000
8000
8000
8000
4000
6000
3FE0
0000
0200
FFE0
0400
ENDCHAR
STARTCHAR 228B
ENCODING 8843
SWIDTH 700 0
DWIDTH 14 0
BBX 11 13 1 0
BITMAP
FF80
0040
0020
0020
0020
0020
0020
0040
FF80
0000
0200
FFE0
0400
ENDCHAR
STARTCHAR 2295
ENCODING 8853
SWIDTH 850 0
DWIDTH 17 0
BBX 15 14 1 0
BITMAP
07C0
1830
2108
4104
4104
8102
9FFA
8102
8102
4106
4104
2108
1830
07C0
ENDCHAR
STARTCHAR 2296
ENCODING 8854
SWIDTH 850 0
DWIDTH 17 0
BBX 15 14 1 0
BITMAP
07C0
1830
2008
4004
4004
8002
9FFA
8002
8002
4006
4004
2008
1830
07C0
ENDCHAR
STARTCHAR 2297
ENCODING 8855
SWIDTH 850 0
DWIDTH 17 0
BBX 15 14 1 0
BITMAP
07C0
1830
2008
5834
4C64
86C2
8382
8382
8642
4C22
5814
2008
1830
07C0
ENDCHAR
STARTCHAR 22A5
ENCODING 8869
SWIDTH 700 0
DWIDTH 14 0
BBX 12 12 1 1
BITMAP
0400
0400
0400
0400
0400
0400
0400
0400
0400
0400
0400
FFF0
ENDCHAR
STARTCHAR 22BF
ENCODING 8895
SWIDTH 700 0
DWIDTH 14 0
BBX 12 12 1 1
BITMAP
0010
0030
0050
0090
0110
0210
0410
0810
1010
3010
6010
FFF0
ENDCHAR
STARTCHAR 22DA
ENCODING 8922
SWIDTH 700 0
DWIDTH 14 0
BBX 11 14 1 0
BITMAP
0060
0F80
F000
3C00
03E0
0000
FFE0
0000
E000
1E00
01E0
01E0
1E00
E000
ENDCHAR
STARTCHAR 22DB
ENCODING 8923
SWIDTH 700 0
DWIDTH 14 0
BBX 11 14 1 0
BITMAP
C000
3E00
01E0
03C0
FC00
0000
FFE0
0000
00E0
0F00
F000
7000
0F80
0060
ENDCHAR
STARTCHAR 2305
ENCODING 8965
SWIDTH 700 0
DWIDTH 14 0
BBX 11 9 1 1
BITMAP
FFE0
0600
0A00
0B00
0900
1100
1080
2080
2000
ENDCHAR
STARTCHAR 2306
ENCODING 8966
SWIDTH 700 0
DWIDTH 14 0
BBX 11 12 1 0
BITMAP
FFE0
0000
0000
FFE0
0600
0A00
0B00
0900
1100
1080
2080
2000
ENDCHAR
STARTCHAR 2312
ENCODING 8978
SWIDTH 1000 0
DWIDTH 20 0
BBX 18 4 1 12
BITMAP
07F800
380700
400080
800040
ENDCHAR
STARTCHAR 2318
ENCODING 8984
SWIDTH 1000 0
DWIDTH 20 0
BBX 18 19 1 -2
BITMAP
700380
880440
880440
880840
8808C0
7FFF80
080800
080800
080800
080800
080800
080800
080800
7FFF80
C80840
880840
880440
880440
700380
ENDCHAR
STARTCHAR 23BE
ENCODING 9150
SWIDTH 1000 0
DWIDTH 20 0
BBX 10 20 10 -2
BITMAP
FFC0
8000
8000
8000
8000
8000
8000
8000
8000
8000
8000
8000
8000
8000
8000
8000
8000
8000
8000
8000
ENDCHAR
STARTCHAR 23BF
ENCODING 9151
SWIDTH 1000 0
DWIDTH 20 0
BBX 10 20 10 -2
BITMAP
8000
8000
8000
8000
8000
8000
8000
8000
8000
8000
8000
8000
8000
8000
8000
8000
8000
8000
8000
FFC0
ENDCHAR
STARTCHAR 23C0
ENCODING 9152
SWIDTH 1000 0
DWIDTH 20 0
BBX 16 19 2 -1
BITMAP
0100
0100
07E0
1918
2104
4102
4102
8102
8101
8101
8101
4102
4102
2104
2104
1918
07E0
0100
0100
ENDCHAR
STARTCHAR 23C1
ENCODING 9153
SWIDTH 1000 0
DWIDTH 20 0
BBX 20 20 0 -2
BITMAP
FFFFF0
004000
004000
03FC00
044200
084100
104080
104080
204080
204040
204040
204080
104080
104080
084100
044200
024400
01F800
004000
004000
ENDCHAR
STARTCHAR 23C2
ENCODING 9154
SWIDTH 1000 0
DWIDTH 20 0
BBX 20 20 0 -2
BITMAP
004000
004000
00F000
034C00
044200
084100
104080
104080
204080
204040
204040
204080
104080
104080
084100
044200
03DC00
006000
004000
FFFFF0
ENDCHAR
STARTCHAR 23C3
ENCODING 9155
SWIDTH 1000 0
DWIDTH 20 0
BBX 16 20 2 -2
BITMAP
0100
0100
0100
0180
0180
0340
0520
0520
0910
0910
1108
2108
2104
4102
4102
8101
FFFF
0100
0100
0100
ENDCHAR
STARTCHAR 23C4
ENCODING 9156
SWIDTH 1000 0
DWIDTH 20 0
BBX 20 20 0 -2
BITMAP
FFFFF0
004000
004000
006000
006000
00D000
015000
014800
024400
024400
044200
084200
084100
104080
104080
204040
3FFFC0
004000
004000
004000
ENDCHAR
STARTCHAR 23C5
ENCODING 9157
SWIDTH 1000 0
DWIDTH 20 0
BBX 20 20 0 -2
BITMAP
004000
004000
004000
006000
006000
00D000
014800
014800
024400
024400
044200
084200
084100
104080
104080
204040
3FFFC0
004000
004000
FFFFF0
ENDCHAR
STARTCHAR 23C6
ENCODING 9158
SWIDTH 1000 0
DWIDTH 20 0
BBX 17 19 1 -1
BITMAP
008000
008000
008000
008000
008000
008000
008000
3C8000
C38000
00C000
00B080
008F00
008000
008000
008000
008000
008000
008000
008000
ENDCHAR
STARTCHAR 23C7
ENCODING 9159
SWIDTH 1000 0
DWIDTH 20 0
BBX 20 20 0 -2
BITMAP
FFFFF0
004000
004000
004000
004000
004000
004000
004000
1F4000
60C000
002020
005840
004780
004000
004000
004000
004000
004000
004000
004000
ENDCHAR
STARTCHAR 23C8
ENCODING 9160
SWIDTH 1000 0
DWIDTH 20 0
BBX 20 20 0 -2
BITMAP
004000
004000
004000
004000
004000
004000
004000
1E4000
21C000
404000
003060
004F80
004000
004000
004000
004000
004000
004000
004000
FFFFF0
ENDCHAR
STARTCHAR 23C9
ENCODING 9161
SWIDTH 1000 0
DWIDTH 20 0
BBX 20 20 0 -2
BITMAP
FFFFF0
004000
004000
004000
004000
004000
004000
004000
004000
004000
004000
004000
004000
004000
004000
004000
004000
004000
004000
004000
ENDCHAR
STARTCHAR 23CA
ENCODING 9162
SWIDTH 1000 0
DWIDTH 20 0
BBX 20 20 0 -2
BITMAP
004000
004000
004000
004000
004000
004000
004000
004000
004000
004000
004000
004000
004000
004000
004000
004000
004000
004000
004000
FFFFF0
ENDCHAR
STARTCHAR 23CB
ENCODING 9163
SWIDTH 1000 0
DWIDTH 20 0
BBX 10 20 0 -2
BITMAP
FFC0
0040
0040
0040
0040
0040
0040
0040
0040
0040
0040
0040
0040
0040
0040
0040
0040
0040
0040
0040
ENDCHAR
STARTCHAR 23CC
ENCODING 9164
SWIDTH 1000 0
DWIDTH 20 0
BBX 10 20 0 -2
BITMAP
0040
0040
0040
0040
0040
0040
0040
0040
0040
0040
0040
0040
0040
0040
0040
0040
0040
0040
0040
FFC0
ENDCHAR
STARTCHAR 23CE
ENCODING 9166
SWIDTH 1000 0
DWIDTH 20 0
BBX 17 17 1 -1
BITMAP
001F80
001080
001080
001080
001080
001080
021080
061080
1A1080
23E080
400080
800080
400100
33FE00
0A0000
060000
020000
ENDCHAR
STARTCHAR 2423
ENCODING 9251
SWIDTH 1000 0
DWIDTH 20 0
BBX 16 4 2 0
BITMAP
8001
8001
8001
FFFF
ENDCHAR
STARTCHAR 2460
ENCODING 9312
SWIDTH 1000 0
DWIDTH 20 0
BBX 18 18 1 -1
BITMAP
03F000
0C0C00
100200
21C100
40C080
804080
804040
804040
804040
804040
804040
804040
804080
404080
21E100
100200
0C0C00
03F000
ENDCHAR
STARTCHAR 2461
ENCODING 9313
SWIDTH 1000 0
DWIDTH 20 0
BBX 18 18 1 -1
BITMAP
03F000
0C0C00
100200
21E100
423080
861880
861840
801840
801040
802040
804040
808040
810880
420880
27F900
100200
0C0C00
03F000
ENDCHAR
STARTCHAR 2462
ENCODING 9314
SWIDTH 1000 0
DWIDTH 20 0
BBX 18 18 1 -1
BITMAP
03F000
040800
180600
21E100
421080
461880
861840
801040
802040
81E040
801840
800840
860880
460880
261900
11E200
0C0400
03F800
ENDCHAR
STARTCHAR 2463
ENCODING 9315
SWIDTH 1000 0
DWIDTH 20 0
BBX 18 18 1 -1
BITMAP
03F000
0C0800
100600
202100
406080
40A080
812040
822040
822040
842040
882040
8FF840
802080
402080
207100
100200
0C0400
03F800
ENDCHAR
STARTCHAR 2464
ENCODING 9316
SWIDTH 1000 0
DWIDTH 20 0
BBX 18 18 1 -1
BITMAP
03F000
0C0C00
100200
23F100
420080
820080
820040
83E040
821840
800840
800840
860840
861880
423080
21E100
100200
0C0C00
03F000
ENDCHAR
STARTCHAR 2465
ENCODING 9317
SWIDTH 1000 0
DWIDTH 20 0
BBX 18 18 1 -1
BITMAP
03F000
040800
180600
20F100
411080
421880
860040
840040
85E040
861040
841840
840840
840880
421880
233100
11E200
0C0400
03F800
ENDCHAR
STARTCHAR 2466
ENCODING 9318
SWIDTH 1000 0
DWIDTH 20 0
BBX 18 18 1 -2
BITMAP
03F000
0C0C00
300200
47F900
460880
841080
841040
802040
802040
804040
804040
804040
80C080
40C080
20C100
100200
0C0C00
03F000
ENDCHAR
STARTCHAR 2467
ENCODING 9319
SWIDTH 1000 0
DWIDTH 20 0
BBX 18 18 1 -1
BITMAP
03F000
040800
180600
21E100
421080
461880
861040
821040
81E040
816040
821040
840840
840880
440880
261900
11E200
0C0400
03F800
ENDCHAR
STARTCHAR 2468
ENCODING 9320
SWIDTH 1000 0
DWIDTH 20 0
BBX 18 18 1 -1
BITMAP
03F000
040800
180600
21E100
433080
461880
840840
840840
860840
821840
81E840
800840
861880
461080
223100
11E200
0C0400
03F800
ENDCHAR
STARTCHAR 2469
ENCODING 9321
SWIDTH 1000 0
DWIDTH 20 0
BBX 18 18 1 -1
BITMAP
03F000
0C0C00
100200
243900
4C6480
844480
844440
844640
84C640
84C640
844640
844440
844480
446480
2E3900
100200
0C0400
03F800
ENDCHAR
STARTCHAR 246A
ENCODING 9322
SWIDTH 1000 0
DWIDTH 20 0
BBX 18 18 1 -1
BITMAP
03F000
0C0C00
100200
200900
4C1880
840880
840840
840840
840840
840840
840840
840840
840880
440880
2E1D00
100200
0C0400
03F800
ENDCHAR
STARTCHAR 246B
ENCODING 9323
SWIDTH 1000 0
DWIDTH 20 0
BBX 18 18 1 -1
BITMAP
03F000
0C0C00
100200
203900
4C4C80
844480
844440
840440
840840
840840
841040
842040
844480
444480
2EFD00
100200
0C0400
03F800
ENDCHAR
STARTCHAR 246C
ENCODING 9324
SWIDTH 1000 0
DWIDTH 20 0
BBX 18 18 1 -1
BITMAP
03F000
0C0C00
100200
243900
4C4C80
844480
844440
840440
840840
841840
840440
840640
84C480
44C480
2E7900
100200
0C0400
03F800
ENDCHAR
STARTCHAR 246D
ENCODING 9325
SWIDTH 1000 0
DWIDTH 20 0
BBX 18 18 1 -1
BITMAP
03F000
0C0C00
100200
200900
4C1880
841880
842840
844840
844840
848840
848840
84FE40
840880
440880
2E1D00
100200
0C0400
03F800
ENDCHAR
STARTCHAR 246E
ENCODING 9326
SWIDTH 1000 0
DWIDTH 20 0
BBX 18 17 1 -1
BITMAP
03F000
0C0C00
300200
4C7D00
444080
844080
844040
84B840
844440
840640
840640
84C480
44CC80
2E7900
100200
0C0400
03F800
ENDCHAR
STARTCHAR 246F
ENCODING 9327
SWIDTH 1000 0
DWIDTH 20 0
BBX 18 18 1 -1
BITMAP
03F000
0C0C00
100200
243900
4C2480
844480
844040
844040
84F840
84C440
84C640
84C640
844680
444480
2E3900
100200
0C0400
03F800
ENDCHAR
STARTCHAR 2470
ENCODING 9328
SWIDTH 1000 0
DWIDTH 20 0
BBX 18 17 1 -1
BITMAP
03F000
0C0C00
300200
4CFF00
448480
848480
840840
840840
840840
841040
841040
841080
441080
2E1100
100200
0C0400
03F800
ENDCHAR
STARTCHAR 2471
ENCODING 9329
SWIDTH 1000 0
DWIDTH 20 0
BBX 18 18 1 -1
BITMAP
03F000
0C0C00
100200
243900
4C4480
844480
844440
846440
843840
843840
844440
848640
848680
444480
2E3900
100200
0C0400
03F800
ENDCHAR
STARTCHAR 2472
ENCODING 9330
SWIDTH 1000 0
DWIDTH 20 0
BBX 18 18 1 -1
BITMAP
03F000
0C0C00
100200
243900
4C4C80
844480
84C440
84C640
844640
844640
843C40
840440
844480
444C80
2E7900
100200
0C0400
03F800
ENDCHAR
STARTCHAR 2473
ENCODING 9331
SWIDTH 1000 0
DWIDTH 20 0
BBX 18 18 1 -1
BITMAP
03F000
0C0C00
100200
2E1D00
513480
99A280
992240
812240
812240
822240
842240
842240
88A280
50B480
3F9D00
100200
0C0400
03F800
ENDCHAR
STARTCHAR 24D0
ENCODING 9424
SWIDTH 1000 0
DWIDTH 20 0
BBX 18 18 1 -1
BITMAP
03F000
040800
180600
200100
400080
41E080
822040
821040
803040
81D040
821040
861040
823880
43D880
200100
100200
0C0400
03F800
ENDCHAR
STARTCHAR 24D1
ENCODING 9425
SWIDTH 1000 0
DWIDTH 20 0
BBX 18 18 1 -1
BITMAP
03F000
040800
180600
220100
420080
420080
820040
82F040
831840
820840
820840
820840
820880
431880
22F100
100200
0C0400
03F800
ENDCHAR
STARTCHAR 24D2
ENCODING 9426
SWIDTH 1000 0
DWIDTH 20 0
BBX 18 18 1 -1
BITMAP
03F000
040800
180600
200100
400080
41E080
831040
823040
860040
860040
860040
821040
831080
41E080
200100
100200
0C0400
03F800
ENDCHAR
STARTCHAR 24D3
ENCODING 9427
SWIDTH 1000 0
DWIDTH 20 0
BBX 18 18 1 -1
BITMAP
03F000
040800
180600
203100
403080
401080
801040
83D040
863040
841040
841040
841040
841080
463080
23D900
100200
0C0400
03F800
ENDCHAR
STARTCHAR 24D4
ENCODING 9428
SWIDTH 1000 0
DWIDTH 20 0
BBX 18 17 1 -1
BITMAP
03F000
0C0C00
300300
400100
400080
81E080
821040
861840
85E040
860040
831040
81E080
400080
200100
100200
0C0400
03F800
ENDCHAR
STARTCHAR 24D5
ENCODING 9429
SWIDTH 1000 0
DWIDTH 20 0
BBX 18 18 1 -1
BITMAP
03F000
0C0C00
100200
207100
409080
808080
808040
83E040
808040
808040
808040
808040
808080
408080
41C100
300200
0C0400
03F800
ENDCHAR
STARTCHAR 24D6
ENCODING 9430
SWIDTH 1000 0
DWIDTH 20 0
BBX 18 18 1 -1
BITMAP
03F000
040800
180600
200100
41D880
422880
821040
822040
822040
83C040
83E040
821840
840880
461880
23F100
100200
0C0400
03F800
ENDCHAR
STARTCHAR 24D7
ENCODING 9431
SWIDTH 1000 0
DWIDTH 20 0
BBX 18 18 1 -1
BITMAP
03F000
040800
180600
200100
460080
420080
820040
82F040
831040
820840
820840
820840
820880
420880
471900
300200
0C0400
03F800
ENDCHAR
STARTCHAR 24D8
ENCODING 9432
SWIDTH 1000 0
DWIDTH 20 0
BBX 18 18 1 -1
BITMAP
03F000
040800
180600
20C100
40C080
400080
800040
81C040
804040
804040
804040
804040
804080
404080
40C100
300200
0C0400
03F800
ENDCHAR
STARTCHAR 24D9
ENCODING 9433
SWIDTH 1000 0
DWIDTH 20 0
BBX 18 18 1 -1
BITMAP
03F000
040800
184600
204100
400080
400080
80C040
804040
804040
804040
804040
804040
804080
404080
224100
128200
0D0400
03F800
ENDCHAR
STARTCHAR 24DA
ENCODING 9434
SWIDTH 1000 0
DWIDTH 20 0
BBX 18 19 1 -2
BITMAP
03F000
0C0800
100600
220100
420100
420080
820080
823840
822040
824040
82C040
836040
822040
421080
431C80
200100
100200
0C0C00
03F000
ENDCHAR
STARTCHAR 24DB
ENCODING 9435
SWIDTH 1000 0
DWIDTH 20 0
BBX 18 18 1 -1
BITMAP
03F000
040800
180600
204100
40C080
404080
804040
804040
804040
804040
804040
804040
804080
404080
40C100
300200
0C0400
03F800
ENDCHAR
STARTCHAR 24DC
ENCODING 9436
SWIDTH 1000 0
DWIDTH 20 0
BBX 18 18 1 -1
BITMAP
03F000
0C0C00
100200
200100
400080
9B9880
8CE440
884440
884440
884440
884440
884440
8CE680
400080
200100
100200
0C0400
03F800
ENDCHAR
STARTCHAR 24DD
ENCODING 9437
SWIDTH 1000 0
DWIDTH 20 0
BBX 18 18 1 -1
BITMAP
03F000
0C0C00
100200
200100
400080
86E080
831040
821840
821840
821840
821840
821840
871880
400080
200100
100200
0C0400
03F800
ENDCHAR
STARTCHAR 24DE
ENCODING 9438
SWIDTH 1000 0
DWIDTH 20 0
BBX 18 18 1 -1
BITMAP
03F000
040800
180600
200100
400080
41E080
833040
821040
861840
840840
861840
821040
833080
41E080
200100
100200
0C0400
03F800
ENDCHAR
STARTCHAR 24DF
ENCODING 9439
SWIDTH 1000 0
DWIDTH 20 0
BBX 18 18 1 -1
BITMAP
03F000
0C0800
100600
200100
400080
46F080
831840
830840
830840
830840
831840
83F040
830080
430080
230100
100200
0C0400
03F800
ENDCHAR
STARTCHAR 24E0
ENCODING 9440
SWIDTH 1000 0
DWIDTH 20 0
BBX 18 18 1 -1
BITMAP
03F000
0C0800
100600
200100
400080
43F080
863040
843040
8C3040
843040
863040
83F040
803080
403080
203100
100200
0C0400
03F800
ENDCHAR
STARTCHAR 24E1
ENCODING 9441
SWIDTH 1000 0
DWIDTH 20 0
BBX 18 18 1 -1
BITMAP
03F000
0C0C00
100200
200100
400080
83B880
81D840
808040
808040
808040
808040
808040
818080
400080
200100
100200
0C0400
03F800
ENDCHAR
STARTCHAR 24E2
ENCODING 9442
SWIDTH 1000 0
DWIDTH 20 0
BBX 18 18 1 -1
BITMAP
03F000
040800
180600
200100
400080
41C080
833040
821040
810040
80C040
803040
821040
831080
40E080
200100
100200
0C0400
03F800
ENDCHAR
STARTCHAR 24E3
ENCODING 9443
SWIDTH 1000 0
DWIDTH 20 0
BBX 18 19 1 -2
BITMAP
03F000
0C0C00
100200
200100
408080
818080
83E040
808040
808040
808040
808040
808040
808040
40E080
400080
200100
100200
0C0C00
03F000
ENDCHAR
STARTCHAR 24E4
ENCODING 9444
SWIDTH 1000 0
DWIDTH 20 0
BBX 18 18 1 -1
BITMAP
03F000
040800
180600
200100
400080
421080
863040
821040
821040
821040
821040
821040
823080
41C880
200100
100200
0C0400
03F800
ENDCHAR
STARTCHAR 24E5
ENCODING 9445
SWIDTH 1000 0
DWIDTH 20 0
BBX 18 18 1 -1
BITMAP
03F000
040800
180600
200100
400080
400080
861840
821040
821040
812040
812040
80C040
80C080
400080
400100
300200
0C0400
03F800
ENDCHAR
STARTCHAR 24E6
ENCODING 9446
SWIDTH 1000 0
DWIDTH 20 0
BBX 18 18 1 -1
BITMAP
03F000
040800
180600
200100
400080
400080
9CC640
8C4440
84C440
84A840
872840
833040
831080
401080
400100
300200
0C0400
03F800
ENDCHAR
STARTCHAR 24E7
ENCODING 9447
SWIDTH 1000 0
DWIDTH 20 0
BBX 18 17 1 -1
BITMAP
03F000
0C0C00
300200
400100
400080
871880
812040
80C040
80C040
812040
821040
861880
400080
200100
100200
0C0400
03F800
ENDCHAR
STARTCHAR 24E8
ENCODING 9448
SWIDTH 1000 0
DWIDTH 20 0
BBX 18 18 1 -1
BITMAP
03F000
040800
180600
200100
400080
471C80
830840
811040
809040
80A040
806040
804040
804080
428080
438100
300200
0C0400
03F800
ENDCHAR
STARTCHAR 24E9
ENCODING 9449
SWIDTH 1000 0
DWIDTH 20 0
BBX 18 17 1 -1
BITMAP
03F000
0C0C00
300200
400100
400080
83F080
842040
804040
80C040
818040
811040
821080
41E080
200100
100200
0C0400
03F800
ENDCHAR
STARTCHAR 24EB
ENCODING 9451
SWIDTH 1000 0
DWIDTH 20 0
BBX 18 18 1 -1
BITMAP
03F000
0FFC00
1FFE00
3BFF00
73E780
7BF780
FBF7C0
FBF7C0
FBF7C0
FBF7C0
FBF7C0
FBF7C0
7BF780
7BF780
31E300
1FFE00
0FFC00
03F000
ENDCHAR
STARTCHAR 24EC
ENCODING 9452
SWIDTH 1000 0
DWIDTH 20 0
BBX 18 18 1 -1
BITMAP
03F000
0FFC00
1FFE00
3BC700
73BB80
7BBB80
FBBBC0
FBFBC0
FBF3C0
FBF7C0
FBEFC0
FBDFC0
7BDD80
7BBD80
318100
1FFE00
0FFC00
03F000
ENDCHAR
STARTCHAR 24ED
ENCODING 9453
SWIDTH 1000 0
DWIDTH 20 0
BBX 18 18 1 -1
BITMAP
03F000
0FFC00
1FFE00
3BC700
73BB80
7BBB80
FBBBC0
FBFBC0
FBF7C0
FBF3C0
FBFBC0
FBF9C0
7BB980
7BBB80
31FF00
1FFE00
0FFC00
03F000
ENDCHAR
STARTCHAR 24EE
ENCODING 9454
SWIDTH 1000 0
DWIDTH 20 0
BBX 18 18 1 -1
BITMAP
03F000
0FFC00
1FFE00
3BF700
73F780
7BE780
FBF7C0
FBD7C0
FBB7C0
FBB7C0
FB77C0
FB01C0
7BF780
7BF780
31E300
1FFE00
0FFC00
03F000
ENDCHAR
STARTCHAR 24EF
ENCODING 9455
SWIDTH 1000 0
DWIDTH 20 0
BBX 18 17 1 -1
BITMAP
03F000
0FFC00
3FFE00
238300
7BBF80
FBBF80
FBBFC0
FB83C0
FBBBC0
FBF9C0
FBFDC0
7BBD80
7BBB80
31FF00
1FFE00
0FFC00
03F000
ENDCHAR
STARTCHAR 24F0
ENCODING 9456
SWIDTH 1000 0
DWIDTH 20 0
BBX 18 18 1 -1
BITMAP
03F000
0FFC00
1FFE00
3BE300
73DB80
7BBB80
FBBFC0
FBBFC0
FBDBC0
FBBBC0
FBBDC0
FBBDC0
7BBD80
7BBB80
31DF00
1FFE00
0FFC00
03F000
ENDCHAR
STARTCHAR 24F1
ENCODING 9457
SWIDTH 1000 0
DWIDTH 20 0
BBX 18 17 1 -1
BITMAP
03F000
0FFC00
3FFE00
338100
7BBF80
FBFB80
FBFFC0
FBF7C0
FBF7C0
FBE7C0
FBEFC0
7BEF80
7BEF80
31EF00
1FFE00
0FFC00
03F000
ENDCHAR
STARTCHAR 24F2
ENCODING 9458
SWIDTH 1000 0
DWIDTH 20 0
BBX 18 18 1 -1
BITMAP
03F000
0FFC00
1FFE00
3BC700
739B80
7BBB80
FBBBC0
FB9BC0
FBC7C0
FBD7C0
FBBBC0
FB39C0
7B7D80
7BBD80
31FB00
1FFE00
0FFC00
03F000
ENDCHAR
STARTCHAR 24F3
ENCODING 9459
SWIDTH 1000 0
DWIDTH 20 0
BBX 18 18 1 -1
BITMAP
03F000
0FFC00
1FFE00
3BC700
739B80
7BBB80
FBB9C0
FBBDC0
FBBDC0
FB99C0
FBC9C0
FBF9C0
7BBB80
7BBB80
31F700
1FFE00
0FFC00
03F000
ENDCHAR
STARTCHAR 24F4
ENCODING 9460
SWIDTH 1000 0
DWIDTH 20 0
BBX 18 18 1 -1
BITMAP
03F000
0FFC00
1FFE00
31E300
6EE980
66DD80
E6DDC0
FEDDC0
FDDDC0
FDDDC0
FBDDC0
F7DDC0
77DD80
6EFD80
20EB00
1FFE00
0FFC00
03F000
ENDCHAR
STARTCHAR 24F5
ENCODING 9461
SWIDTH 1000 0
DWIDTH 20 0
BBX 18 19 1 -2
BITMAP
07F000
1BFC00
2C0E00
504700
A1C180
A04140
C040C0
C040C0
8040C0
8040C0
8040C0
C040C0
C04140
A04180
61E280
380500
141A00
0FEC00
03F000
ENDCHAR
STARTCHAR 24F6
ENCODING 9462
SWIDTH 1000 0
DWIDTH 20 0
BBX 18 19 1 -2
BITMAP
07F000
1BFC00
2C0E00
51E700
A23180
A61940
C618C0
C010C0
8010C0
8020C0
8040C0
C080C0
C10940
A20980
67FA80
380500
141A00
0FEC00
03F000
ENDCHAR
STARTCHAR 24F7
ENCODING 9463
SWIDTH 1000 0
DWIDTH 20 0
BBX 18 19 1 -2
BITMAP
07F000
1BFC00
2C0E00
51E700
A21180
A61940
C218C0
C010C0
8020C0
81E0C0
8018C0
C008C0
C60940
A61980
63E280
380500
141A00
0FEC00
03F000
ENDCHAR
STARTCHAR 24F8
ENCODING 9464
SWIDTH 1000 0
DWIDTH 20 0
BBX 18 19 1 -2
BITMAP
07F000
1BFC00
2C0E00
502700
A06180
A0A140
C120C0
C120C0
8220C0
8420C0
8820C0
CFF8C0
C02140
A02180
607280
380500
141A00
0FEC00
03F000
ENDCHAR
STARTCHAR 24F9
ENCODING 9465
SWIDTH 1000 0
DWIDTH 20 0
BBX 18 19 1 -2
BITMAP
03F000
0C0C00
17F200
380D00
63F280
A20140
C20140
C200C0
83E0C0
8218C0
8008C0
C008C0
C61940
A63180
61E280
380500
141A00
0FEC00
03F000
ENDCHAR
STARTCHAR 24FA
ENCODING 9466
SWIDTH 1000 0
DWIDTH 20 0
BBX 18 19 1 -2
BITMAP
07F000
1BFC00
2C0E00
50F700
A11180
A21140
C200C0
C600C0
84E0C0
8710C0
8418C0
C608C0
C21940
A31180
61E280
380500
141A00
0FEC00
03F000
ENDCHAR
STARTCHAR 24FB
ENCODING 9467
SWIDTH 1000 0
DWIDTH 20 0
BBX 18 19 1 -2
BITMAP
03F000
0C0C00
17F200
380D00
63FA80
A20940
C41140
C010C0
8020C0
8020C0
8040C0
C040C0
C04140
A0C180
60C280
38C500
141A00
0FEC00
03F000
ENDCHAR
STARTCHAR 24FC
ENCODING 9468
SWIDTH 1000 0
DWIDTH 20 0
BBX 18 19 1 -2
BITMAP
07F000
1BFC00
2C0E00
51E700
A21180
A21140
C210C0
C210C0
81A0C0
8160C0
8210C0
C408C0
C40940
A61980
63E280
380500
141A00
0FEC00
03F000
ENDCHAR
STARTCHAR 24FD
ENCODING 9469
SWIDTH 1000 0
DWIDTH 20 0
BBX 18 19 1 -2
BITMAP
07F000
1BFC00
2C0E00
51E700
A33180
A21140
C618C0
C608C0
8608C0
8318C0
81E8C0
C018C0
C61140
A23180
61C280
380500
141A00
0FEC00
03F000
ENDCHAR
STARTCHAR 24FE
ENCODING 9470
SWIDTH 1000 0
DWIDTH 20 0
BBX 18 19 1 -2
BITMAP
07F000
1BFC00
2C0E00
500700
AE3980
A66D40
C644C0
C644C0
8646C0
86C6C0
8646C0
C644C0
C64540
A66D80
663A80
380500
141A00
0FEC00
03F000
ENDCHAR
STARTCHAR 2500
ENCODING 9472
SWIDTH 1000 0
DWIDTH 20 0
BBX 20 1 0 7
BITMAP
FFFFF0
ENDCHAR
STARTCHAR 2501
ENCODING 9473
SWIDTH 1000 0
DWIDTH 20 0
BBX 20 2 0 7
BITMAP
FFFFF0
FFFFF0
ENDCHAR
STARTCHAR 2502
ENCODING 9474
SWIDTH 1000 0
DWIDTH 20 0
BBX 1 19 9 -1
BITMAP
80
80
80
80
80
80
80
80
80
80
80
80
80
80
80
80
80
80
80
ENDCHAR
STARTCHAR 2503
ENCODING 9475
SWIDTH 1000 0
DWIDTH 20 0
BBX 2 20 9 -2
BITMAP
C0
C0
C0
C0
C0
C0
C0
C0
C0
C0
C0
C0
C0
C0
C0
C0
C0
C0
C0
C0
ENDCHAR
STARTCHAR 250C
ENCODING 9484
SWIDTH 1000 0
DWIDTH 20 0
BBX 10 10 10 -3
BITMAP
FFC0
8000
8000
8000
8000
8000
8000
8000
8000
8000
ENDCHAR
STARTCHAR 250F
ENCODING 9487
SWIDTH 1000 0
DWIDTH 20 0
BBX 11 11 9 -2
BITMAP
FFE0
FFE0
C000
C000
C000
C000
C000
C000
C000
C000
C000
ENDCHAR
STARTCHAR 2510
ENCODING 9488
SWIDTH 1000 0
DWIDTH 20 0
BBX 10 10 0 -3
BITMAP
FFC0
0040
0040
0040
0040
0040
0040
0040
0040
0040
ENDCHAR
STARTCHAR 2513
ENCODING 9491
SWIDTH 1000 0
DWIDTH 20 0
BBX 11 11 0 -2
BITMAP
FFE0
FFE0
0060
0060
0060
0060
0060
0060
0060
0060
0060
ENDCHAR
STARTCHAR 2514
ENCODING 9492
SWIDTH 1000 0
DWIDTH 20 0
BBX 10 10 10 8
BITMAP
8000
8000
8000
8000
8000
8000
8000
8000
8000
FFC0
ENDCHAR
STARTCHAR 2517
ENCODING 9495
SWIDTH 1000 0
DWIDTH 20 0
BBX 11 11 9 7
BITMAP
C000
C000
C000
C000
C000
C000
C000
C000
C000
FFE0
FFE0
ENDCHAR
STARTCHAR 2518
ENCODING 9496
SWIDTH 1000 0
DWIDTH 20 0
BBX 10 10 0 8
BITMAP
0040
0040
0040
0040
0040
0040
0040
0040
0040
FFC0
ENDCHAR
STARTCHAR 251B
ENCODING 9499
SWIDTH 1000 0
DWIDTH 20 0
BBX 11 11 0 7
BITMAP
0060
0060
0060
0060
0060
0060
0060
0060
0060
FFE0
FFE0
ENDCHAR
STARTCHAR 251C
ENCODING 9500
SWIDTH 1000 0
DWIDTH 20 0
BBX 10 19 10 -2
BITMAP
8000
8000
8000
8000
8000
8000
8000
8000
8000
FFC0
8000
8000
8000
8000
8000
8000
8000
8000
8000
ENDCHAR
STARTCHAR 251D
ENCODING 9501
SWIDTH 1000 0
DWIDTH 20 0
BBX 10 18 10 -1
BITMAP
8000
8000
8000
8000
8000
8000
8000
8000
FFC0
FFC0
8000
8000
8000
8000
8000
8000
8000
8000
ENDCHAR
STARTCHAR 2520
ENCODING 9504
SWIDTH 1000 0
DWIDTH 20 0
BBX 11 20 9 -2
BITMAP
C000
C000
C000
C000
C000
C000
C000
C000
C000
C000
FFE0
C000
C000
C000
C000
C000
C000
C000
C000
C000
ENDCHAR
STARTCHAR 2523
ENCODING 9507
SWIDTH 1000 0
DWIDTH 20 0
BBX 11 20 9 -2
BITMAP
C000
C000
C000
C000
C000
C000
C000
C000
C000
FFE0
FFE0
C000
C000
C000
C000
C000
C000
C000
C000
C000
ENDCHAR
STARTCHAR 2524
ENCODING 9508
SWIDTH 1000 0
DWIDTH 20 0
BBX 10 19 0 -2
BITMAP
0040
0040
0040
0040
0040
0040
0040
0040
0040
FFC0
0040
0040
0040
0040
0040
0040
0040
0040
0040
ENDCHAR
STARTCHAR 2525
ENCODING 9509
SWIDTH 1000 0
DWIDTH 20 0
BBX 10 18 0 -1
BITMAP
0040
0040
0040
0040
0040
0040
0040
0040
FFC0
FFC0
0040
0040
0040
0040
0040
0040
0040
0040
ENDCHAR
STARTCHAR 2528
ENCODING 9512
SWIDTH 1000 0
DWIDTH 20 0
BBX 11 20 0 -2
BITMAP
0060
0060
0060
0060
0060
0060
0060
0060
0060
0060
FFE0
0060
0060
0060
0060
0060
0060
0060
0060
0060
ENDCHAR
STARTCHAR 252B
ENCODING 9515
SWIDTH 1000 0
DWIDTH 20 0
BBX 11 20 0 -2
BITMAP
0060
0060
0060
0060
0060
0060
0060
0060
0060
FFE0
FFE0
0060
0060
0060
0060
0060
0060
0060
0060
0060
ENDCHAR
STARTCHAR 252C
ENCODING 9516
SWIDTH 1000 0
DWIDTH 20 0
BBX 20 10 0 -3
BITMAP
FFFFF0
004000
004000
004000
004000
004000
004000
004000
004000
004000
ENDCHAR
STARTCHAR 252F
ENCODING 9519
SWIDTH 1000 0
DWIDTH 20 0
BBX 20 10 0 -2
BITMAP
FFFFF0
FFFFF0
004000
004000
004000
004000
004000
004000
004000
004000
ENDCHAR
STARTCHAR 2530
ENCODING 9520
SWIDTH 1000 0
DWIDTH 20 0
BBX 20 10 0 -2
BITMAP
FFFFF0
006000
006000
006000
006000
006000
006000
006000
006000
006000
ENDCHAR
STARTCHAR 2533
ENCODING 9523
SWIDTH 1000 0
DWIDTH 20 0
BBX 20 11 0 -2
BITMAP
FFFFF0
FFFFF0
006000
006000
006000
006000
006000
006000
006000
006000
006000
ENDCHAR
STARTCHAR 2534
ENCODING 9524
SWIDTH 1000 0
DWIDTH 20 0
BBX 20 10 0 8
BITMAP
004000
004000
004000
004000
004000
004000
004000
004000
004000
FFFFF0
ENDCHAR
STARTCHAR 2537
ENCODING 9527
SWIDTH 1000 0
DWIDTH 20 0
BBX 20 10 0 8
BITMAP
004000
004000
004000
004000
004000
004000
004000
004000
FFFFF0
FFFFF0
ENDCHAR
STARTCHAR 2538
ENCODING 9528
SWIDTH 1000 0
DWIDTH 20 0
BBX 20 11 0 7
BITMAP
006000
006000
006000
006000
006000
006000
006000
006000
006000
006000
FFFFF0
ENDCHAR
STARTCHAR 253B
ENCODING 9531
SWIDTH 1000 0
DWIDTH 20 0
BBX 20 11 0 7
BITMAP
006000
006000
006000
006000
006000
006000
006000
006000
006000
FFFFF0
FFFFF0
ENDCHAR
STARTCHAR 253C
ENCODING 9532
SWIDTH 1000 0
DWIDTH 20 0
BBX 20 19 0 -2
BITMAP
004000
004000
004000
004000
004000
004000
004000
004000
004000
FFFFF0
004000
004000
004000
004000
004000
004000
004000
004000
004000
ENDCHAR
STARTCHAR 253F
ENCODING 9535
SWIDTH 1000 0
DWIDTH 20 0
BBX 20 18 0 -1
BITMAP
004000
004000
004000
004000
004000
004000
004000
004000
FFFFF0
FFFFF0
004000
004000
004000
004000
004000
004000
004000
004000
ENDCHAR
STARTCHAR 2542
ENCODING 9538
SWIDTH 1000 0
DWIDTH 20 0
BBX 20 20 0 -2
BITMAP
006000
006000
006000
006000
006000
006000
006000
006000
006000
006000
FFFFF0
006000
006000
006000
006000
006000
006000
006000
006000
006000
ENDCHAR
STARTCHAR 254B
ENCODING 9547
SWIDTH 1000 0
DWIDTH 20 0
BBX 20 20 0 -2
BITMAP
006000
006000
006000
006000
006000
006000
006000
006000
006000
FFFFF0
FFFFF0
006000
006000
006000
006000
006000
006000
006000
006000
006000
ENDCHAR
STARTCHAR 25A0
ENCODING 9632
SWIDTH 1000 0
DWIDTH 20 0
BBX 14 15 3 0
BITMAP
FFFC
FFFC
FFFC
FFFC
FFFC
FFFC
FFFC
FFFC
FFFC
FFFC
FFFC
FFFC
FFFC
FFFC
FFFC
ENDCHAR
STARTCHAR 25A1
ENCODING 9633
SWIDTH 1000 0
DWIDTH 20 0
BBX 14 15 3 0
BITMAP
FFFC
8004
8004
8004
8004
8004
8004
8004
8004
8004
8004
8004
8004
8004
FFFC
ENDCHAR
STARTCHAR 25B1
ENCODING 9649
SWIDTH 1000 0
DWIDTH 20 0
BBX 18 7 1 4
BITMAP
1FFFC0
100080
200080
200100
400100
400200
FFFE00
ENDCHAR
STARTCHAR 25B2
ENCODING 9650
SWIDTH 1000 0
DWIDTH 20 0
BBX 16 15 2 1
BITMAP
0180
0180
03C0
03C0
07E0
07E0
0FF0
0FF0
1FF8
1FF8
3FFC
3FFC
7FFE
7FFE
FFFF
ENDCHAR
STARTCHAR 25B3
ENCODING 9651
SWIDTH 1000 0
DWIDTH 20 0
BBX 16 15 2 1
BITMAP
0180
0180
0240
0240
0420
0420
0810
0810
1008
1008
2004
2004
4002
4002
FFFF
ENDCHAR
STARTCHAR 25B6
ENCODING 9654
SWIDTH 1000 0
DWIDTH 20 0
BBX 16 16 2 0
BITMAP
8000
E000
F800
FE00
FF80
FFC0
FFF0
FFFC
FFFF
FFFC
FFF0
FFC0
FF00
FC00
F000
C000
ENDCHAR
STARTCHAR 25B7
ENCODING 9655
SWIDTH 1000 0
DWIDTH 20 0
BBX 16 16 2 0
BITMAP
8000
E000
9800
8600
8180
8040
8030
800C
8003
800C
8030
80C0
8300
8C00
B000
C000
ENDCHAR
STARTCHAR 25BC
ENCODING 9660
SWIDTH 1000 0
DWIDTH 20 0
BBX 16 15 2 -1
BITMAP
FFFF
7FFE
7FFE
3FFC
3FFC
1FF8
1FF8
0FF0
0FF0
07E0
07E0
03C0
03C0
0180
0180
ENDCHAR
STARTCHAR 25BD
ENCODING 9661
SWIDTH 1000 0
DWIDTH 20 0
BBX 16 15 2 -1
BITMAP
FFFF
4002
4002
2004
2004
1008
1008
0810
0810
0420
0420
0240
0240
0180
0180
ENDCHAR
STARTCHAR 25C0
ENCODING 9664
SWIDTH 1000 0
DWIDTH 20 0
BBX 16 16 2 0
BITMAP
0001
0007
001F
007F
01FF
03FF
0FFF
3FFF
FFFF
3FFF
0FFF
03FF
00FF
003F
000F
0003
ENDCHAR
STARTCHAR 25C1
ENCODING 9665
SWIDTH 1000 0
DWIDTH 20 0
BBX 16 16 2 0
BITMAP
0001
0007
0019
0061
0181
0201
0C01
3001
C001
3001
0C01
0301
00C1
0031
000D
0003
ENDCHAR
STARTCHAR 25C6
ENCODING 9670
SWIDTH 1000 0
DWIDTH 20 0
BBX 18 17 1 0
BITMAP
00C000
01E000
03F000
07F800
0FFC00
1FFE00
3FFF00
7FFF80
FFFFC0
7FFF80
3FFF00
1FFE00
0FFC00
07F800
03F000
01E000
00C000
ENDCHAR
STARTCHAR 25C7
ENCODING 9671
SWIDTH 1000 0
DWIDTH 20 0
BBX 18 17 1 0
BITMAP
00C000
012000
021000
040800
080400
100200
200100
400080
800040
400080
200100
100200
080400
040800
021000
012000
00C000
ENDCHAR
STARTCHAR 25C9
ENCODING 9673
SWIDTH 1000 0
DWIDTH 20 0
BBX 16 17 2 -1
BITMAP
07E0
1818
2004
43C2
4FF2
8FF1
9FF9
9FF9
9FF9
9FF9
8FF1
8FF1
43C2
4002
2004
1818
07E0
ENDCHAR
STARTCHAR 25CB
ENCODING 9675
SWIDTH 1000 0
DWIDTH 20 0
BBX 16 17 2 -1
BITMAP
07E0
1818
300C
4002
4002
8001
8001
8001
8001
8001
8001
8001
4002
4002
300C
1818
07E0
ENDCHAR
STARTCHAR 25CE
ENCODING 9678
SWIDTH 1000 0
DWIDTH 20 0
BBX 16 17 2 -1
BITMAP
07E0
1818
2004
43C2
4C32
8811
9009
9009
9009
9009
8811
8C31
43C2
4002
2004
1818
07E0
ENDCHAR
STARTCHAR 25CF
ENCODING 9679
SWIDTH 1000 0
DWIDTH 20 0
BBX 16 17 2 -1
BITMAP
07E0
1FF8
3FFC
7FFE
7FFE
FFFF
FFFF
FFFF
FFFF
FFFF
FFFF
FFFF
7FFE
7FFE
3FFC
1FF8
07E0
ENDCHAR
STARTCHAR 25D0
ENCODING 9680
SWIDTH 1000 0
DWIDTH 20 0
BBX 16 17 2 -1
BITMAP
07E0
1F18
3F04
7F02
7F02
FF01
FF01
FF01
FF01
FF01
FF01
FF01
7F02
7F02
3F04
0F18
07E0
ENDCHAR
STARTCHAR 25D1
ENCODING 9681
SWIDTH 1000 0
DWIDTH 20 0
BBX 16 17 2 -1
BITMAP
07E0
18F8
20FC
40FE
80FE
80FF
80FF
80FF
80FF
80FF
80FF
80FF
40FE
40FE
20FC
18F8
07E0
ENDCHAR
STARTCHAR 25D2
ENCODING 9682
SWIDTH 1000 0
DWIDTH 20 0
BBX 16 16 2 0
BITMAP
07E0
1818
2004
4002
8001
8001
8001
8001
FFFF
FFFF
FFFF
FFFF
7FFE
3FFC
1FF8
07E0
ENDCHAR
STARTCHAR 25D3
ENCODING 9683
SWIDTH 1000 0
DWIDTH 20 0
BBX 16 16 2 0
BITMAP
07E0
1FF8
3FFC
7FFE
FFFF
FFFF
FFFF
FFFF
8001
8001
8001
8001
4002
2004
1818
07E0
ENDCHAR
STARTCHAR 25E6
ENCODING 9702
SWIDTH 1000 0
DWIDTH 20 0
BBX 6 7 7 4
BITMAP
78
84
84
84
84
84
78
ENDCHAR
STARTCHAR 25EF
ENCODING 9711
SWIDTH 1000 0
DWIDTH 20 0
BBX 18 18 1 -1
BITMAP
03F000
040800
180600
200100
400080
400080
800040
800040
800040
800040
800040
800040
800080
400080
200100
100200
0C0400
03F800
ENDCHAR
STARTCHAR 2600
ENCODING 9728
SWIDTH 1000 0
DWIDTH 20 0
BBX 18 17 1 -1
BITMAP
008000
008000
100200
080400
01E000
03F800
07F800
0FFC00
EFFDC0
0FFC00
0FFC00
07F800
07F800
09E400
100200
008000
008000
ENDCHAR
STARTCHAR 2601
ENCODING 9729
SWIDTH 1000 0
DWIDTH 20 0
BBX 18 14 1 -1
BITMAP
03C000
07E000
0FF000
0FF380
0FFF80
0FFFC0
3FFFC0
7FFF80
FFFF00
FFFF80
FF7FC0
7E7FC0
3C3F80
001F00
ENDCHAR
STARTCHAR 2602
ENCODING 9730
SWIDTH 1000 0
DWIDTH 20 0
BBX 18 19 1 -2
BITMAP
008000
008000
03F000
1FFE00
3FFF00
7FFF80
7FFF80
9CCE40
888440
088400
008000
008000
008000
008000
008000
008000
028000
028000
038000
ENDCHAR
STARTCHAR 2603
ENCODING 9731
SWIDTH 1000 0
DWIDTH 20 0
BBX 18 18 1 -1
BITMAP
818040
083840
184400
004300
C18200
0E4380
103C00
112200
D12200
500400
09E8C0
900600
A0C100
40C100
400100
40C100
20C100
1FFE00
ENDCHAR
STARTCHAR 2605
ENCODING 9733
SWIDTH 1000 0
DWIDTH 20 0
BBX 18 17 1 -1
BITMAP
008000
00C000
00C000
00C000
01E000
01E000
FFFFC0
3FFF00
1FFE00
0FFC00
07F800
07F800
0FFC00
0F3C00
0E1C00
1C0E00
100200
ENDCHAR
STARTCHAR 2606
ENCODING 9734
SWIDTH 1000 0
DWIDTH 20 0
BBX 18 17 1 -1
BITMAP
008000
00C000
00C000
014000
012000
012000
FF3FC0
400080
300300
080400
040800
040800
080800
09E400
0A1400
140C00
180600
ENDCHAR
STARTCHAR 260E
ENCODING 9742
SWIDTH 1000 0
DWIDTH 20 0
BBX 18 15 1 0
BITMAP
1FFE00
7FFF80
F61BC0
E619C0
E7F9C0
0FF800
0E1C00
1C0E00
1C0E00
1C0E00
3C0F00
7C0F80
7E1F80
7FFF80
FFFFC0
ENDCHAR
STARTCHAR 2616
ENCODING 9750
SWIDTH 1000 0
DWIDTH 20 0
BBX 16 16 2 0
BITMAP
0180
0660
1818
2004
4002
4002
4002
4002
4002
4002
4002
8002
8001
8001
8001
FFFF
ENDCHAR
STARTCHAR 2617
ENCODING 9751
SWIDTH 1000 0
DWIDTH 20 0
BBX 16 16 2 0
BITMAP
0180
07E0
0FF0
3FFC
7FFE
7FFE
7FFE
7FFE
7FFE
7FFE
7FFE
7FFE
FFFF
FFFF
FFFF
FFFF
ENDCHAR
STARTCHAR 261E
ENCODING 9758
SWIDTH 1000 0
DWIDTH 20 0
BBX 18 8 1 3
BITMAP
F7FF80
881040
90EF80
9F1400
906C00
90A400
9C5800
73F000
ENDCHAR
STARTCHAR 2640
ENCODING 9792
SWIDTH 1000 0
DWIDTH 20 0
BBX 12 18 4 -1
BITMAP
0F00
1080
2040
2040
4040
4040
2040
2040
1080
0F00
0400
0400
FFF0
0400
0400
0400
0400
0400
ENDCHAR
STARTCHAR 2642
ENCODING 9794
SWIDTH 1000 0
DWIDTH 20 0
BBX 16 16 2 -1
BITMAP
007F
0003
0005
0009
0011
0021
0041
3C80
4300
8100
8080
8080
8080
8100
4300
3C00
ENDCHAR
STARTCHAR 2660
ENCODING 9824
SWIDTH 1000 0
DWIDTH 20 0
BBX 14 17 3 -1
BITMAP
0300
0780
0FC0
1FE0
3FF0
3FF0
7FF8
FFFC
FFFC
FFFC
FFFC
FFFC
FFFC
7B78
0300
0300
0780
ENDCHAR
STARTCHAR 2661
ENCODING 9825
SWIDTH 1000 0
DWIDTH 20 0
BBX 16 17 2 -1
BITMAP
3C3C
4242
8181
8101
8001
8001
8001
8002
4002
2004
2004
1008
0810
0420
0240
0180
0180
ENDCHAR
STARTCHAR 2662
ENCODING 9826
SWIDTH 1000 0
DWIDTH 20 0
BBX 14 19 3 -2
BITMAP
0300
0500
0480
0840
1020
2010
2010
4008
8004
8004
4008
4008
2010
1020
1040
0840
0480
0300
0300
ENDCHAR
STARTCHAR 2663
ENCODING 9827
SWIDTH 1000 0
DWIDTH 20 0
BBX 18 18 1 -2
BITMAP
01E000
03F000
07F800
07F800
07F800
07F800
03F000
39EF00
7EDF80
7FFF80
FFFFC0
FFFFC0
7FFF80
7EDF80
3CCF00
00C000
00C000
01E000
ENDCHAR
STARTCHAR 2664
ENCODING 9828
SWIDTH 1000 0
DWIDTH 20 0
BBX 16 18 2 -1
BITMAP
0180
0240
0420
0810
1008
2004
2004
4002
8002
8002
8001
4002
43C2
3EBC
0280
0240
0240
07E0
ENDCHAR
STARTCHAR 2665
ENCODING 9829
SWIDTH 1000 0
DWIDTH 20 0
BBX 16 16 2 -1
BITMAP
3C3C
7E7E
FFFF
FFFF
FFFF
FFFF
FFFF
7FFE
7FFE
3FFC
1FF8
1FF8
0FF0
07E0
03C0
0180
ENDCHAR
STARTCHAR 2666
ENCODING 9830
SWIDTH 1000 0
DWIDTH 20 0
BBX 14 19 3 -2
BITMAP
0300
0300
0780
0FC0
1FE0
3FE0
3FF0
7FF8
FFFC
FFFC
7FF8
7FF8
3FF0
1FE0
0FC0
0FC0
0780
0300
0200
ENDCHAR
STARTCHAR 2667
ENCODING 9831
SWIDTH 1000 0
DWIDTH 20 0
BBX 18 19 1 -2
BITMAP
01E000
021000
040800
040800
040800
040800
040800
3E1F00
433080
800080
800040
800040
80C080
43F080
3D4F00
014000
012000
012000
03F000
ENDCHAR
STARTCHAR 2668
ENCODING 9832
SWIDTH 1000 0
DWIDTH 20 0
BBX 16 15 2 1
BITMAP
0100
0200
1210
1210
1310
1110
0988
0888
0888
888B
8889
9091
8101
7006
1FF8
ENDCHAR
STARTCHAR 2669
ENCODING 9833
SWIDTH 1000 0
DWIDTH 20 0
BBX 5 17 6 -1
BITMAP
08
08
08
08
08
08
08
08
08
08
08
08
08
78
F8
F8
F0
ENDCHAR
STARTCHAR 266A
ENCODING 9834
SWIDTH 1000 0
DWIDTH 20 0
BBX 13 17 4 -1
BITMAP
0400
0400
0700
0780
04C0
0460
0430
0418
0418
0410
0410
0460
0400
7C00
F800
F800
F000
ENDCHAR
STARTCHAR 266B
ENCODING 9835
SWIDTH 1000 0
DWIDTH 20 0
BBX 15 19 1 -2
BITMAP
0002
003E
07FE
07F2
0602
0402
0402
0402
0402
0402
0402
0402
0402
043E
047E
7C3C
FC00
F800
7000
ENDCHAR
STARTCHAR 266C
ENCODING 9836
SWIDTH 1000 0
DWIDTH 20 0
BBX 15 19 1 -2
BITMAP
0002
003E
07FE
07E2
0606
047E
07FE
07C2
0402
0402
0402
0402
0402
043E
047E
7C3C
FC00
F800
7000
ENDCHAR
STARTCHAR 266D
ENCODING 9837
SWIDTH 1000 0
DWIDTH 20 0
BBX 7 17 7 -1
BITMAP
80
80
80
80
80
80
BC
C6
86
86
86
84
8C
88
B0
C0
80
ENDCHAR
STARTCHAR 266E
ENCODING 9838
SWIDTH 1000 0
DWIDTH 20 0
BBX 6 17 7 -1
BITMAP
80
80
80
80
8C
FC
E4
84
84
84
BC
F4
84
04
04
04
04
ENDCHAR
STARTCHAR 266F
ENCODING 9839
SWIDTH 1000 0
DWIDTH 20 0
BBX 12 17 4 -1
BITMAP
1080
1080
1080
1080
11F0
3F80
F080
1080
1080
1080
11F0
3F80
F080
1080
1080
1080
1000
ENDCHAR
STARTCHAR 2713
ENCODING 10003
SWIDTH 1000 0
DWIDTH 20 0
BBX 12 13 5 2
BITMAP
0010
0020
0020
0040
0080
0100
0300
8600
8400
C800
5000
7000
2000
ENDCHAR
STARTCHAR 2756
ENCODING 10070
SWIDTH 1000 0
DWIDTH 20 0
BBX 18 17 1 0
BITMAP
00C000
01E000
03F000
07F800
03F000
19E600
3CCF00
7E1F80
FF3FC0
7E1F80
3CCF00
19E600
03F000
07F800
03F000
01E000
00C000
ENDCHAR
STARTCHAR 2776
ENCODING 10102
SWIDTH 1000 0
DWIDTH 20 0
BBX 18 18 1 -1
BITMAP
03F000
0FFC00
1FFE00
3E3F00
7F3F80
7FBF80
FFBFC0
FFBFC0
FFBFC0
FFBFC0
FFBFC0
FFBFC0
7FBF80
7F3F80
3E1F00
1FFE00
0FFC00
03F000
ENDCHAR
STARTCHAR 2777
ENCODING 10103
SWIDTH 1000 0
DWIDTH 20 0
BBX 18 18 1 -1
BITMAP
03F000
0FFC00
1FFE00
3FDF00
7DEF80
79E780
F9E7C0
FFEFC0
FFCFC0
FF9FC0
FF3FC0
FE7FC0
7EF780
7DF780
380700
1FFE00
0FFC00
03F000
ENDCHAR
STARTCHAR 2778
ENCODING 10104
SWIDTH 1000 0
DWIDTH 20 0
BBX 18 18 1 -1
BITMAP
03F000
07F800
1FFE00
3E1F00
7DEF80
79E780
F9E7C0
FFEFC0
FFDFC0
FE1FC0
FFE7C0
FFF7C0
79F780
79F780
39E700
1E1E00
0FFC00
03F000
ENDCHAR
STARTCHAR 2779
ENCODING 10105
SWIDTH 1000 0
DWIDTH 20 0
BBX 18 18 1 -1
BITMAP
03F000
0FF800
1FFE00
3FDF00
7F9F80
7F5F80
FEDFC0
FFDFC0
FDDFC0
FBDFC0
F7DFC0
F007C0
7FDF80
7FDF80
3F8F00
1FFE00
0FFC00
03F000
ENDCHAR
STARTCHAR 277A
ENCODING 10106
SWIDTH 1000 0
DWIDTH 20 0
BBX 18 19 1 -2
BITMAP
03F000
0FFC00
1FFE00
3C0F00
7C0F80
7DFF80
FDFFC0
FDFFC0
FE1FC0
FDE7C0
FFE7C0
FFF7C0
F9F7C0
79E780
7DEF80
3FDF00
1FFE00
0FFC00
03F000
ENDCHAR
STARTCHAR 277B
ENCODING 10107
SWIDTH 1000 0
DWIDTH 20 0
BBX 18 18 1 -1
BITMAP
03F000
07F800
1FFE00
3F1F00
7EEF80
7DE780
F9FFC0
FBFFC0
FA1FC0
F9EFC0
FBE7C0
FBF7C0
79F780
7DE780
3CCF00
1E1E00
0FFC00
03F000
ENDCHAR
STARTCHAR 277C
ENCODING 10108
SWIDTH 1000 0
DWIDTH 20 0
BBX 18 18 1 -2
BITMAP
03F000
0FFC00
1FFE00
380700
79F780
7BEF80
FBEFC0
FFDFC0
FFDFC0
FFBFC0
FFBFC0
FFBFC0
7F3F80
7F3F80
3F3F00
1FFE00
0FFC00
03F000
ENDCHAR
STARTCHAR 277D
ENCODING 10109
SWIDTH 1000 0
DWIDTH 20 0
BBX 18 18 1 -1
BITMAP
03F000
07F800
1FFE00
3E1F00
7DEF80
79E780
F9E7C0
FDEFC0
FE1FC0
FEBFC0
FDEFC0
FBE7C0
7BF780
7BF780
39E700
1E1E00
0FFC00
03F000
ENDCHAR
STARTCHAR 277E
ENCODING 10110
SWIDTH 1000 0
DWIDTH 20 0
BBX 18 18 1 -1
BITMAP
03F000
07F800
1FFE00
3E1F00
7CCF80
79E780
FBF7C0
FBF7C0
F9F7C0
FDE7C0
FE17C0
FFF7C0
79E780
79EF80
3DCF00
1E1E00
0FFC00
03F000
ENDCHAR
STARTCHAR 277F
ENCODING 10111
SWIDTH 1000 0
DWIDTH 20 0
BBX 18 18 1 -1
BITMAP
03F000
0FFC00
1FFE00
3BC700
739380
7BBB80
FBBBC0
FBB9C0
FB39C0
FB39C0
FBB9C0
FBB9C0
7BBB80
7BBB80
31D700
1FFE00
0FFC00
03F000
ENDCHAR
STARTCHAR 2934
ENCODING 10548
SWIDTH 1000 0
DWIDTH 20 0
BBX 16 15 2 0
BITMAP
0008
001C
003A
0029
0049
0008
0008
0008
0008
0008
0008
0008
0010
0020
FFC0
ENDCHAR
STARTCHAR 2935
ENCODING 10549
SWIDTH 1000 0
DWIDTH 20 0
BBX 16 15 2 0
BITMAP
FFC0
0020
0010
0008
0008
0008
0008
0008
0008
0008
0049
0029
003A
001C
0008
ENDCHAR
STARTCHAR 29BF
ENCODING 10687
SWIDTH 1000 0
DWIDTH 20 0
BBX 16 17 2 -1
BITMAP
07E0
1818
2004
4002
4002
83C1
83C1
87E1
87E1
83C1
83C1
8001
4002
4002
2004
1818
07E0
ENDCHAR
STARTCHAR 29FA
ENCODING 10746
SWIDTH 1000 0
DWIDTH 20 0
BBX 10 11 5 1
BITMAP
1200
1200
1200
1200
1200
FFC0
1200
1200
1200
1200
1200
ENDCHAR
STARTCHAR 29FB
ENCODING 10747
SWIDTH 1000 0
DWIDTH 20 0
BBX 10 11 5 1
BITMAP
2500
2500
2500
2500
2500
FFC0
2500
2500
2500
2500
2500
ENDCHAR
STARTCHAR 2E83
ENCODING 11907
SWIDTH 1000 0
DWIDTH 20 0
BBX 12 15 5 0
BITMAP
8000
8000
8000
8000
8000
8000
8000
8000
8000
8000
8010
8010
8010
8030
FFF0
ENDCHAR
STARTCHAR 2E85
ENCODING 11909
SWIDTH 1000 0
DWIDTH 20 0
BBX 9 17 4 -1
BITMAP
0080
0180
0100
0300
0600
0400
0E00
1400
2400
4400
8400
0400
0400
0400
0400
0400
0400
ENDCHAR
STARTCHAR 2E87
ENCODING 11911
SWIDTH 1000 0
DWIDTH 20 0
BBX 18 17 1 -1
BITMAP
200200
3FFE00
300200
300200
300200
300200
300200
300200
300200
200200
200200
200340
200140
400140
4001C0
8000C0
800040
ENDCHAR
STARTCHAR 2E89
ENCODING 11913
SWIDTH 1000 0
DWIDTH 20 0
BBX 8 17 7 -1
BITMAP
03
82
82
82
82
82
82
82
82
82
82
82
82
02
02
3E
04
ENDCHAR
STARTCHAR 2E8E
ENCODING 11918
SWIDTH 1000 0
DWIDTH 20 0
BBX 17 16 1 -1
BITMAP
000180
7FFF80
023000
023000
023000
023000
023000
063000
063000
043000
043080
083080
083080
103080
201F80
C00000
ENDCHAR
STARTCHAR 2E8F
ENCODING 11919
SWIDTH 1000 0
DWIDTH 20 0
BBX 17 16 2 0
BITMAP
0C2000
081800
180C00
100600
200200
466300
844000
044000
044000
044000
0C4000
084100
084100
104100
204180
C03F00
ENDCHAR
STARTCHAR 2E90
ENCODING 11920
SWIDTH 1000 0
DWIDTH 20 0
BBX 17 18 2 -1
BITMAP
010000
010000
010000
010000
010300
FFFF00
014000
034000
034000
034000
024000
024000
064000
044100
084100
104100
204180
C07F00
ENDCHAR
STARTCHAR 2E92
ENCODING 11922
SWIDTH 1000 0
DWIDTH 20 0
BBX 15 16 4 -1
BITMAP
0010
FFF0
8010
8010
8010
8010
8010
FFF0
8000
8000
8004
8004
8004
8004
C00E
7FFC
ENDCHAR
STARTCHAR 2E93
ENCODING 11923
SWIDTH 1000 0
DWIDTH 20 0
BBX 16 16 2 0
BITMAP
0080
0180
0100
0200
0218
6410
1830
0C60
0640
0680
0110
0208
0406
0802
FFFF
F001
ENDCHAR
STARTCHAR 2E94
ENCODING 11924
SWIDTH 1000 0
DWIDTH 20 0
BBX 16 16 2 0
BITMAP
0600
0400
0400
0C08
0FF8
0818
0818
0810
1810
1010
1FF0
1010
3030
0030
0021
FFFF
ENDCHAR
STARTCHAR 2E96
ENCODING 11926
SWIDTH 1000 0
DWIDTH 20 0
BBX 8 17 6 -1
BITMAP
18
18
18
1C
5A
5A
5B
DB
98
18
18
18
18
18
18
18
18
ENDCHAR
STARTCHAR 2E97
ENCODING 11927
SWIDTH 1000 0
DWIDTH 20 0
BBX 18 17 1 -1
BITMAP
020000
030000
020000
020000
020000
024400
224200
222100
221100
221080
621880
C218C0
C20840
020000
020000
3E0000
060000
ENDCHAR
STARTCHAR 2E98
ENCODING 11928
SWIDTH 1000 0
DWIDTH 20 0
BBX 11 17 5 -1
BITMAP
0600
0400
0400
0460
7F80
0400
0400
0400
05E0
7E00
C400
8400
0400
0400
0400
0400
3C00
ENDCHAR
STARTCHAR 2E99
ENCODING 11929
SWIDTH 1000 0
DWIDTH 20 0
BBX 16 17 2 -1
BITMAP
0E00
0C00
0800
1803
17FC
3010
2830
4420
8420
0240
01C0
0180
01C0
0630
0C1C
3007
C001
ENDCHAR
STARTCHAR 2E9B
ENCODING 11931
SWIDTH 1000 0
DWIDTH 20 0
BBX 16 16 2 -1
BITMAP
0004
3FF8
0100
3100
2100
6102
4102
7FFC
C3C0
02C0
02C0
04C1
0CC1
18C1
20C1
C07F
ENDCHAR
STARTCHAR 2E9E
ENCODING 11934
SWIDTH 1000 0
DWIDTH 20 0
BBX 17 18 2 -1
BITMAP
00C000
00C000
00C100
00FF80
00C000
06C000
0CC400
0B3E00
100C00
281800
461000
832000
014000
018000
030000
0C0000
300000
C00000
ENDCHAR
STARTCHAR 2E9F
ENCODING 11935
SWIDTH 1000 0
DWIDTH 20 0
BBX 18 17 1 -1
BITMAP
000400
1FFE00
180400
110400
10C400
104400
1004C0
FFFFC0
100400
130400
308400
20C400
200480
3FFFC0
200400
000C00
003800
ENDCHAR
STARTCHAR 2EA0
ENCODING 11936
SWIDTH 1000 0
DWIDTH 20 0
BBX 18 18 1 -2
BITMAP
000200
1FFE00
100200
100200
100200
1FFE00
104000
104000
104180
1FFE00
102000
103000
101000
101880
10CC80
1F0680
F003C0
8001C0
ENDCHAR
STARTCHAR 2EA1
ENCODING 11937
SWIDTH 1000 0
DWIDTH 20 0
BBX 8 17 6 -1
BITMAP
30
08
0C
01
C1
22
32
04
04
08
08
10
70
10
10
10
30
ENDCHAR
STARTCHAR 2EA3
ENCODING 11939
SWIDTH 1000 0
DWIDTH 20 0
BBX 16 5 2 5
BITMAP
2404
2442
4623
C621
8621
ENDCHAR
STARTCHAR 2EA4
ENCODING 11940
SWIDTH 1000 0
DWIDTH 20 0
BBX 15 9 2 5
BITMAP
003E
07C0
F804
0206
6104
308C
1088
1810
0020
ENDCHAR
STARTCHAR 2EA6
ENCODING 11942
SWIDTH 1000 0
DWIDTH 20 0
BBX 9 17 4 -1
BITMAP
0180
0100
0100
6100
3100
1100
1900
0100
0100
0300
1D00
7100
C100
8100
0100
0100
0100
ENDCHAR
STARTCHAR 2EA8
ENCODING 11944
SWIDTH 1000 0
DWIDTH 20 0
BBX 9 17 5 -1
BITMAP
2100
1380
0E00
0C00
1C00
2400
C200
0200
0600
0900
1100
2100
C100
0100
0200
0200
1E00
ENDCHAR
STARTCHAR 2EAA
ENCODING 11946
SWIDTH 1000 0
DWIDTH 20 0
BBX 11 18 4 -2
BITMAP
0060
7FE0
0080
0100
0200
0200
2200
2240
23E0
2200
2200
2200
2200
2220
23C0
7C00
C000
8000
ENDCHAR
STARTCHAR 2EAB
ENCODING 11947
SWIDTH 1000 0
DWIDTH 20 0
BBX 15 10 3 3
BITMAP
0004
FFFE
88C4
88C4
88C4
88C4
88C4
88C4
FFFC
8004
ENDCHAR
STARTCHAR 2EAD
ENCODING 11949
SWIDTH 1000 0
DWIDTH 20 0
BBX 12 19 4 -2
BITMAP
0600
0400
0400
0440
7FE0
00C0
0080
0100
0300
0600
0D00
14C0
6420
8430
0400
0400
0400
0400
0400
ENDCHAR
STARTCHAR 2EB2
ENCODING 11954
SWIDTH 1000 0
DWIDTH 20 0
BBX 15 10 3 3
BITMAP
0004
FFFE
88C4
88C4
88C4
88C4
88C4
88C4
FFFC
8004
ENDCHAR
STARTCHAR 2EB9
ENCODING 11961
SWIDTH 1000 0
DWIDTH 20 0
BBX 17 15 1 1
BITMAP
008000
008300
009E00
3FFC00
008800
009000
00B080
FFCF00
008000
010000
020000
040000
180000
200000
C00000
ENDCHAR
STARTCHAR 2EBD
ENCODING 11965
SWIDTH 1000 0
DWIDTH 20 0
BBX 14 17 3 -1
BITMAP
0E00
3004
C07C
8004
8004
8004
8004
8404
F87C
8004
8004
8004
8004
8404
FCFC
8004
8004
ENDCHAR
STARTCHAR 2EBE
ENCODING 11966
SWIDTH 1000 0
DWIDTH 20 0
BBX 16 6 2 6
BITMAP
0430
0420
0421
FFFE
0420
0420
ENDCHAR
STARTCHAR 2EBF
ENCODING 11967
SWIDTH 1000 0
DWIDTH 20 0
BBX 16 6 2 6
BITMAP
1818
1010
1211
FC7E
1010
1010
ENDCHAR
STARTCHAR 2EC0
ENCODING 11968
SWIDTH 1000 0
DWIDTH 20 0
BBX 16 6 2 6
BITMAP
0C30
0C20
0C21
FC3E
0C20
0C20
ENDCHAR
STARTCHAR 2EC1
ENCODING 11969
SWIDTH 1000 0
DWIDTH 20 0
BBX 18 17 1 -1
BITMAP
00C000
00C300
00FC00
00C080
3FBF80
208D00
2FF100
208100
20FF00
200000
211000
211000
211000
631080
421080
4610C0
981F80
ENDCHAR
STARTCHAR 2EC2
ENCODING 11970
SWIDTH 1000 0
DWIDTH 20 0
BBX 11 19 4 -2
BITMAP
0600
0400
0400
0440
7FE0
00C0
0080
0100
0260
0440
0F80
34C0
4460
8420
0400
0400
0400
0400
0400
ENDCHAR
STARTCHAR 2EC3
ENCODING 11971
SWIDTH 1000 0
DWIDTH 20 0
BBX 16 9 2 4
BITMAP
0001
FFFE
0440
4442
7FFE
4446
4446
7FFE
4006
ENDCHAR
STARTCHAR 2EC4
ENCODING 11972
SWIDTH 1000 0
DWIDTH 20 0
BBX 18 18 1 -2
BITMAP
000080
FFFFC0
022000
022000
022100
3FFF80
222100
222100
222500
222500
242500
283F00
300100
200100
200100
3FFF00
200100
200100
ENDCHAR
STARTCHAR 2ECA
ENCODING 11978
SWIDTH 1000 0
DWIDTH 20 0
BBX 11 18 4 -2
BITMAP
0040
3FC0
20C0
20C0
20C0
20C0
3FC0
0600
0640
27E0
2600
2600
2600
2600
27C0
FC00
E000
8000
ENDCHAR
STARTCHAR 2ECC
ENCODING 11980
SWIDTH 1000 0
DWIDTH 20 0
BBX 18 17 1 -1
BITMAP
400000
300000
100000
180000
000000
000000
000000
080000
700000
100000
100000
100000
100000
180000
240000
E30040
40FFC0
ENDCHAR
STARTCHAR 2ECD
ENCODING 11981
SWIDTH 1000 0
DWIDTH 20 0
BBX 18 17 1 -1
BITMAP
300000
180000
080000
000000
600000
300000
100000
000000
000000
F80000
100000
100000
100000
180000
180000
E60040
41FFC0
ENDCHAR
STARTCHAR 2ECF
ENCODING 11983
SWIDTH 1000 0
DWIDTH 20 0
BBX 8 17 7 -1
BITMAP
82
FE
86
84
88
88
84
82
82
83
83
82
9E
80
80
80
80
ENDCHAR
STARTCHAR 2ED1
ENCODING 11985
SWIDTH 1000 0
DWIDTH 20 0
BBX 17 17 2 -1
BITMAP
000600
1FF800
100800
1FFC00
100000
100800
1FFC00
100000
100100
FFFE00
108600
104800
107000
103000
179C00
F80780
800100
ENDCHAR
STARTCHAR 2ED2
ENCODING 11986
SWIDTH 1000 0
DWIDTH 20 0
BBX 16 17 2 -1
BITMAP
1004
1FFE
1000
1008
1FF0
1000
1008
1FF0
1000
1003
EFFC
0420
0418
080C
087E
7F83
4001
ENDCHAR
STARTCHAR 2ED6
ENCODING 11990
SWIDTH 1000 0
DWIDTH 20 0
BBX 8 17 7 -1
BITMAP
82
FE
86
84
88
88
84
82
82
83
83
82
9E
80
80
80
80
ENDCHAR
STARTCHAR 2ED8
ENCODING 11992
SWIDTH 1000 0
DWIDTH 20 0
BBX 18 17 1 -1
BITMAP
00C000
00C100
3FFE00
00C200
1FFC00
00C080
FFFFC0
000000
0FFE00
080400
0FFC00
080400
080400
0FFC00
080400
084400
083C00
ENDCHAR
STARTCHAR 2EDE
ENCODING 11998
SWIDTH 1000 0
DWIDTH 20 0
BBX 11 17 4 -1
BITMAP
0600
0F00
0880
1140
2660
6080
BF80
3080
3F80
3080
3F80
3080
3080
3F00
30C0
3F00
3000
ENDCHAR
STARTCHAR 2EDF
ENCODING 11999
SWIDTH 1000 0
DWIDTH 20 0
BBX 11 18 4 -1
BITMAP
0600
0D00
08C0
1240
3260
3F80
5080
1080
1080
1F80
1080
1F80
1080
1100
1080
17C0
F840
4000
ENDCHAR
STARTCHAR 2EE4
ENCODING 12004
SWIDTH 1000 0
DWIDTH 20 0
BBX 17 18 2 -1
BITMAP
010000
010000
420400
7FFE00
610400
610400
7FFC00
610400
610400
610400
7EFC00
048800
049000
0C9400
08BF00
10A100
208180
C0FF80
ENDCHAR
STARTCHAR 2EE8
ENCODING 12008
SWIDTH 1000 0
DWIDTH 20 0
BBX 18 18 1 -1
BITMAP
00C000
00C000
00C100
7FFF80
00C000
00C200
1FFC00
00C080
FFFFC0
010000
030400
06FC00
091800
10B000
606000
01B800
060F80
780180
ENDCHAR
STARTCHAR 2EE9
ENCODING 12009
SWIDTH 1000 0
DWIDTH 20 0
BBX 18 17 1 0
BITMAP
021000
021100
3FFE00
021000
021080
FFFFC0
008000
1FFF00
108200
108200
1FFE00
108200
108200
1F7E00
073E00
180380
E00080
ENDCHAR
STARTCHAR 2EEB
ENCODING 12011
SWIDTH 1000 0
DWIDTH 20 0
BBX 18 18 1 -1
BITMAP
00C000
00C000
00C180
7FFF80
040800
021000
01A000
00E000
031C00
1C07C0
EC0400
0FFC00
0C0400
080400
0FFC00
080400
100400
600400
ENDCHAR
STARTCHAR 2EED
ENCODING 12013
SWIDTH 1000 0
DWIDTH 20 0
BBX 18 17 1 -1
BITMAP
004000
084300
087C00
084080
FFFFC0
000000
60C980
669900
629100
608500
6FF900
61E100
629900
648500
788100
600100
7FFF00
ENDCHAR
STARTCHAR 2EEF
ENCODING 12015
SWIDTH 1000 0
DWIDTH 20 0
BBX 17 16 2 0
BITMAP
018000
018200
3E7C00
0C3000
042000
044100
FBBE00
200400
3FFC00
210400
3FFC00
210400
210400
3FFD00
010100
01FF80
ENDCHAR
STARTCHAR 2EF2
ENCODING 12018
SWIDTH 1000 0
DWIDTH 20 0
BBX 18 18 1 -1
BITMAP
040000
0C0000
0FE000
104000
3FFE00
708200
9FFE00
108200
1FFE00
008000
3FFF00
208300
3FFF00
208300
3FFF80
208340
0080C0
00FFC0
ENDCHAR
STARTCHAR 2F00
ENCODING 12032
SWIDTH 1000 0
DWIDTH 20 0
BBX 16 2 2 7
BITMAP
0003
FFFF
ENDCHAR
STARTCHAR 2F01
ENCODING 12033
SWIDTH 1000 0
DWIDTH 20 0
BBX 2 17 9 -1
BITMAP
C0
C0
C0
C0
C0
C0
C0
C0
C0
C0
C0
C0
C0
C0
C0
C0
C0
ENDCHAR
STARTCHAR 2F02
ENCODING 12034
SWIDTH 1000 0
DWIDTH 20 0
BBX 6 6 7 5
BITMAP
80
60
30
18
0C
04
ENDCHAR
STARTCHAR 2F03
ENCODING 12035
SWIDTH 1000 0
DWIDTH 20 0
BBX 5 17 7 -1
BITMAP
10
18
10
10
10
10
10
10
10
10
10
30
20
20
40
40
80
ENDCHAR
STARTCHAR 2F04
ENCODING 12036
SWIDTH 1000 0
DWIDTH 20 0
BBX 14 15 3 0
BITMAP
0020
FFE0
0060
0080
0300
0600
0C00
1800
3000
6000
4004
8004
8004
8004
7FFC
ENDCHAR
STARTCHAR 2F05
ENCODING 12037
SWIDTH 1000 0
DWIDTH 20 0
BBX 5 17 6 -1
BITMAP
18
18
18
18
18
18
18
18
18
18
18
18
18
18
18
F8
30
ENDCHAR
STARTCHAR 2F06
ENCODING 12038
SWIDTH 1000 0
DWIDTH 20 0
BBX 17 12 1 2
BITMAP
000600
3FFE00
000000
000000
000000
000000
000000
000000
000000
000000
000180
FFFF80
ENDCHAR
STARTCHAR 2F07
ENCODING 12039
SWIDTH 1000 0
DWIDTH 20 0
BBX 15 5 3 9
BITMAP
0300
0200
0200
0200
FFFE
ENDCHAR
STARTCHAR 2F08
ENCODING 12040
SWIDTH 1000 0
DWIDTH 20 0
BBX 18 17 1 -1
BITMAP
00C000
008000
008000
008000
00C000
00C000
00C000
01C000
012000
012000
031000
021800
060C00
0C0600
180300
2001C0
C00000
ENDCHAR
STARTCHAR 2F09
ENCODING 12041
SWIDTH 1000 0
DWIDTH 20 0
BBX 17 16 1 -1
BITMAP
003000
063000
063000
063000
063000
063000
043000
043000
043000
043000
043080
083080
083080
103080
201F80
C00000
ENDCHAR
STARTCHAR 2F0A
ENCODING 12042
SWIDTH 1000 0
DWIDTH 20 0
BBX 17 17 2 -1
BITMAP
008000
1FC000
008000
008000
008000
008000
008000
01C000
014000
032000
022000
061000
0C1800
180C00
300600
600380
800100
ENDCHAR
STARTCHAR 2F0B
ENCODING 12043
SWIDTH 1000 0
DWIDTH 20 0
BBX 18 16 1 -1
BITMAP
001000
01F000
001000
061000
041000
041000
041000
040800
080800
080400
180400
100200
300300
200180
4000C0
800000
ENDCHAR
STARTCHAR 2F0C
ENCODING 12044
SWIDTH 1000 0
DWIDTH 20 0
BBX 15 17 3 -1
BITMAP
0004
FFFE
8004
8004
8004
8004
8004
8004
8004
8004
8004
8004
8004
8004
8004
8004
803C
ENDCHAR
STARTCHAR 2F0D
ENCODING 12045
SWIDTH 1000 0
DWIDTH 20 0
BBX 18 6 1 6
BITMAP
200080
3FFF80
2001C0
600100
C00200
C00000
ENDCHAR
STARTCHAR 2F0E
ENCODING 12046
SWIDTH 1000 0
DWIDTH 20 0
BBX 6 16 7 -1
BITMAP
80
60
24
08
08
08
10
10
20
20
60
60
20
20
60
60
ENDCHAR
STARTCHAR 2F0F
ENCODING 12047
SWIDTH 1000 0
DWIDTH 20 0
BBX 18 16 1 -1
BITMAP
080800
0FF800
0C1800
0C1800
0C1800
0C1800
0C1800
0C1800
081800
081800
081880
181880
101880
301880
2008C0
C00F80
ENDCHAR
STARTCHAR 2F10
ENCODING 12048
SWIDTH 1000 0
DWIDTH 20 0
BBX 15 16 3 -1
BITMAP
8006
8004
8004
8004
8004
8004
8004
8004
8004
8004
8004
8004
8004
8004
FFFC
8004
ENDCHAR
STARTCHAR 2F11
ENCODING 12049
SWIDTH 1000 0
DWIDTH 20 0
BBX 16 17 2 -2
BITMAP
0002
FFFF
0202
0202
0202
0202
0202
0602
0602
0406
0C06
0806
1804
1004
2104
40F8
8000
ENDCHAR
STARTCHAR 2F12
ENCODING 12050
SWIDTH 1000 0
DWIDTH 20 0
BBX 16 17 1 -1
BITMAP
0180
0180
0180
0180
0181
3F7F
0101
0101
0101
0301
0201
0203
0403
0C02
1802
207E
C008
ENDCHAR
STARTCHAR 2F13
ENCODING 12051
SWIDTH 1000 0
DWIDTH 20 0
BBX 16 17 2 -1
BITMAP
0C00
1800
1002
1FFF
3002
2002
4002
C002
8002
0002
0002
0006
0004
0004
0004
000C
00F8
ENDCHAR
STARTCHAR 2F14
ENCODING 12052
SWIDTH 1000 0
DWIDTH 20 0
BBX 13 16 5 -1
BITMAP
C000
8000
8000
80E0
8180
8600
9800
E000
8000
8000
8010
8010
8010
8010
8018
FFF0
ENDCHAR
STARTCHAR 2F15
ENCODING 12053
SWIDTH 1000 0
DWIDTH 20 0
BBX 15 16 3 -1
BITMAP
000C
FFF0
8000
8000
8000
8000
8000
8000
8000
8000
8000
8000
8000
8004
FFFE
8000
ENDCHAR
STARTCHAR 2F16
ENCODING 12054
SWIDTH 1000 0
DWIDTH 20 0
BBX 16 15 2 0
BITMAP
0003
FFFF
2000
2000
2000
2000
2000
2000
2000
2000
2000
2000
2000
3006
1FFF
ENDCHAR
STARTCHAR 2F17
ENCODING 12055
SWIDTH 1000 0
DWIDTH 20 0
BBX 18 17 1 -1
BITMAP
00C000
00C000
00C000
00C000
00C000
00C000
00C080
FFFFC0
00C000
00C000
00C000
00C000
00C000
00C000
00C000
00C000
00C000
ENDCHAR
STARTCHAR 2F18
ENCODING 12056
SWIDTH 1000 0
DWIDTH 20 0
BBX 8 17 8 -1
BITMAP
C0
80
80
80
80
80
C0
B0
8C
83
81
80
80
80
80
80
80
ENDCHAR
STARTCHAR 2F19
ENCODING 12057
SWIDTH 1000 0
DWIDTH 20 0
BBX 9 16 6 -1
BITMAP
0180
FF00
8100
8100
8100
8100
8100
8100
8100
8100
8100
8100
8F00
8000
8000
8000
ENDCHAR
STARTCHAR 2F1A
ENCODING 12058
SWIDTH 1000 0
DWIDTH 20 0
BBX 17 16 1 -1
BITMAP
200180
3FFE00
300000
300000
300000
300000
300000
300000
200000
200000
200000
200000
600000
400000
400000
800000
ENDCHAR
STARTCHAR 2F1B
ENCODING 12059
SWIDTH 1000 0
DWIDTH 20 0
BBX 16 16 2 -1
BITMAP
00C0
0080
0180
0100
0100
0300
0200
0200
0420
0418
040C
0804
0802
FFFF
6001
0001
ENDCHAR
STARTCHAR 2F1C
ENCODING 12060
SWIDTH 1000 0
DWIDTH 20 0
BBX 18 16 1 -1
BITMAP
000600
3FFC00
080400
080C00
040800
041800
021000
013000
01A000
00C000
00E000
01B000
031C00
0C0700
1003C0
E00000
ENDCHAR
STARTCHAR 2F1D
ENCODING 12061
SWIDTH 1000 0
DWIDTH 20 0
BBX 14 16 3 -1
BITMAP
8000
FFFC
C00C
C00C
C00C
C00C
C00C
C00C
C00C
C00C
C00C
C00C
C00C
FFFC
C00C
C00C
ENDCHAR
STARTCHAR 2F1E
ENCODING 12062
SWIDTH 1000 0
DWIDTH 20 0
BBX 16 17 2 -1
BITMAP
8002
FFFF
C002
C002
C002
C002
C002
C002
C002
C002
C002
C002
C002
C002
C002
FFFE
C002
ENDCHAR
STARTCHAR 2F1F
ENCODING 12063
SWIDTH 1000 0
DWIDTH 20 0
BBX 16 16 2 0
BITMAP
0180
0180
0180
0180
0180
0186
7FFE
0180
0180
0180
0180
0180
0180
0180
0183
FFFF
ENDCHAR
STARTCHAR 2F20
ENCODING 12064
SWIDTH 1000 0
DWIDTH 20 0
BBX 16 16 2 0
BITMAP
0180
0180
0180
0180
0180
0183
FFFF
0180
0180
0180
0180
0180
0180
0180
0186
7FFE
ENDCHAR
STARTCHAR 2F21
ENCODING 12065
SWIDTH 1000 0
DWIDTH 20 0
BBX 16 17 2 -1
BITMAP
0200
0300
0600
0408
0FF8
0810
1410
1420
2260
4140
81C0
0180
0360
0630
181C
3007
C001
ENDCHAR
STARTCHAR 2F22
ENCODING 12066
SWIDTH 1000 0
DWIDTH 20 0
BBX 16 17 2 -1
BITMAP
0200
0300
0200
2608
25F8
1810
1830
1820
2460
4640
8380
0180
03C0
0670
181C
3007
C001
ENDCHAR
STARTCHAR 2F23
ENCODING 12067
SWIDTH 1000 0
DWIDTH 20 0
BBX 15 17 2 -1
BITMAP
0180
0300
0202
03FE
0606
0404
080C
1E08
1198
20D0
4060
8060
00C0
0180
0600
0C00
7000
ENDCHAR
STARTCHAR 2F24
ENCODING 12068
SWIDTH 1000 0
DWIDTH 20 0
BBX 17 17 2 -1
BITMAP
010000
018000
010000
010000
010000
010300
7FFC00
018000
014000
034000
022000
063000
041000
080C00
100600
200380
C00000
ENDCHAR
STARTCHAR 2F25
ENCODING 12069
SWIDTH 1000 0
DWIDTH 20 0
BBX 18 18 1 -1
BITMAP
018000
010000
010000
030000
020080
FFFFC0
060C00
040800
040800
081800
081000
1C1000
13A000
006000
00D800
018600
060300
780180
ENDCHAR
STARTCHAR 2F26
ENCODING 12070
SWIDTH 1000 0
DWIDTH 20 0
BBX 17 16 2 -1
BITMAP
000C00
1FF800
001000
006000
018000
018000
018100
018180
FEFE00
008000
008000
008000
008000
008000
118000
0F8000
ENDCHAR
STARTCHAR 2F27
ENCODING 12071
SWIDTH 1000 0
DWIDTH 20 0
BBX 18 9 1 6
BITMAP
008000
00C000
00C000
00C080
3FFFC0
4000C0
400100
C00200
C00000
ENDCHAR
STARTCHAR 2F28
ENCODING 12072
SWIDTH 1000 0
DWIDTH 20 0
BBX 15 17 3 -1
BITMAP
0060
0040
0040
0040
0046
FFF8
0060
2060
1060
0860
0C60
0C60
0060
0060
0060
07C0
00C0
ENDCHAR
STARTCHAR 2F29
ENCODING 12073
SWIDTH 1000 0
DWIDTH 20 0
BBX 18 17 1 -1
BITMAP
00C000
00C000
00C000
00C000
08C800
0CC400
18C600
10C200
10C100
30C180
20C080
20C0C0
40C0C0
80C000
00C000
0FC000
018000
ENDCHAR
STARTCHAR 2F2A
ENCODING 12074
SWIDTH 1000 0
DWIDTH 20 0
BBX 17 18 2 -1
BITMAP
010000
010000
010000
010000
010300
FFFF00
014000
034000
034000
034000
024000
024000
064000
044100
084100
104100
204180
C07F00
ENDCHAR
STARTCHAR 2F2B
ENCODING 12075
SWIDTH 1000 0
DWIDTH 20 0
BBX 16 17 1 -1
BITMAP
0001
1FFF
1001
1001
1001
1001
1FFF
1000
1000
3000
3000
2000
2000
2000
4000
4000
8000
ENDCHAR
STARTCHAR 2F2C
ENCODING 12076
SWIDTH 1000 0
DWIDTH 20 0
BBX 14 17 3 -1
BITMAP
0380
0300
0300
C304
8304
8304
8304
8304
8304
8304
FEFC
8204
0600
0400
0800
1000
6000
ENDCHAR
STARTCHAR 2F2D
ENCODING 12077
SWIDTH 1000 0
DWIDTH 20 0
BBX 15 16 3 -1
BITMAP
0300
0300
0300
C306
8304
8304
8304
8304
8304
8304
8304
8304
8304
8304
FCFC
8004
ENDCHAR
STARTCHAR 2F2E
ENCODING 12078
SWIDTH 1000 0
DWIDTH 20 0
BBX 15 15 2 0
BITMAP
1084
18C6
318C
2108
6208
4210
8420
8420
4210
2108
210C
3084
1086
18C2
1842
ENDCHAR
STARTCHAR 2F2F
ENCODING 12079
SWIDTH 1000 0
DWIDTH 20 0
BBX 18 14 1 0
BITMAP
000300
3FFC00
00C000
00C000
00C000
00C000
00C000
00C000
00C000
00C000
00C000
00C000
00C180
FFFFC0
ENDCHAR
STARTCHAR 2F30
ENCODING 12080
SWIDTH 1000 0
DWIDTH 20 0
BBX 14 15 4 0
BITMAP
0010
FFF0
0010
0010
0010
0010
FFF0
8010
8000
8000
8000
8008
8004
800C
FFFC
ENDCHAR
STARTCHAR 2F31
ENCODING 12081
SWIDTH 1000 0
DWIDTH 20 0
BBX 14 17 3 -1
BITMAP
0300
0300
0300
0304
FFFC
8304
8304
8304
8304
8304
8304
8304
837C
830C
0300
0300
0300
ENDCHAR
STARTCHAR 2F32
ENCODING 12082
SWIDTH 1000 0
DWIDTH 20 0
BBX 16 17 2 -2
BITMAP
0006
3FF8
0180
0180
0180
0180
0183
FFFF
0180
0180
0180
0180
0180
0180
0180
0180
0180
ENDCHAR
STARTCHAR 2F33
ENCODING 12083
SWIDTH 1000 0
DWIDTH 20 0
BBX 16 16 2 0
BITMAP
0080
0180
0100
0200
0218
6410
1830
0C60
0640
0680
0110
0208
0406
0802
FFFF
F001
ENDCHAR
STARTCHAR 2F34
ENCODING 12084
SWIDTH 1000 0
DWIDTH 20 0
BBX 17 17 1 -1
BITMAP
00C000
00C000
20C180
3F3E00
200000
200000
200000
200000
200000
200000
200000
200000
200000
400000
400000
800000
800000
ENDCHAR
STARTCHAR 2F35
ENCODING 12085
SWIDTH 1000 0
DWIDTH 20 0
BBX 17 18 1 -2
BITMAP
080000
FC0000
080000
180000
100000
300000
220000
5C0000
040000
440000
2C0000
280000
180000
180000
340000
238000
407F80
800000
ENDCHAR
STARTCHAR 2F36
ENCODING 12086
SWIDTH 1000 0
DWIDTH 20 0
BBX 16 16 2 -1
BITMAP
0C18
0C10
0C10
0C10
0C10
0C10
0C11
FFFE
0810
0810
0810
1810
1010
3010
6010
8010
ENDCHAR
STARTCHAR 2F37
ENCODING 12087
SWIDTH 1000 0
DWIDTH 20 0
BBX 16 17 2 -1
BITMAP
0300
0240
0230
0210
021A
0203
07FC
F900
0100
0100
0080
00C0
0042
0062
003A
001F
0007
ENDCHAR
STARTCHAR 2F38
ENCODING 12088
SWIDTH 1000 0
DWIDTH 20 0
BBX 14 17 3 -1
BITMAP
0010
FFF8
0018
0018
0018
0018
7FF8
4000
4000
C004
BFFC
000C
000C
0008
0008
0218
01F0
ENDCHAR
STARTCHAR 2F39
ENCODING 12089
SWIDTH 1000 0
DWIDTH 20 0
BBX 16 15 2 0
BITMAP
0010
7FF8
0010
0010
0010
0010
0010
7FF0
0010
0010
0010
0010
0010
0013
FFFF
ENDCHAR
STARTCHAR 2F3A
ENCODING 12090
SWIDTH 1000 0
DWIDTH 20 0
BBX 13 17 4 -1
BITMAP
00C0
0180
0300
0C00
3040
C0E0
0180
0300
0600
1800
6018
8070
00C0
0180
0600
1800
E000
ENDCHAR
STARTCHAR 2F3B
ENCODING 12091
SWIDTH 1000 0
DWIDTH 20 0
BBX 11 17 4 -1
BITMAP
0180
0300
0600
0C60
30C0
4180
0300
0600
0E00
1600
6600
8600
0600
0600
0600
0600
0600
ENDCHAR
STARTCHAR 2F3C
ENCODING 12092
SWIDTH 1000 0
DWIDTH 20 0
BBX 18 17 1 -1
BITMAP
020000
018000
00C000
006000
022000
020000
020400
220200
220100
220180
220080
6204C0
4204C0
C20400
020400
020C00
03FC00
ENDCHAR
STARTCHAR 2F3D
ENCODING 12093
SWIDTH 1000 0
DWIDTH 20 0
BBX 16 17 2 -1
BITMAP
0300
0260
0218
0208
0203
03FC
FF00
010C
0108
0110
00A0
00C0
00C1
0361
0C39
300F
C007
ENDCHAR
STARTCHAR 2F3E
ENCODING 12094
SWIDTH 1000 0
DWIDTH 20 0
BBX 17 17 1 -1
BITMAP
000180
7FFF80
000000
000000
000200
1FFE00
100200
100200
100200
100200
1FFE00
100000
100000
200000
200000
400000
800000
ENDCHAR
STARTCHAR 2F3F
ENCODING 12095
SWIDTH 1000 0
DWIDTH 20 0
BBX 17 17 2 -1
BITMAP
000800
00FC00
3F8000
418000
018000
018200
7FFC00
018000
018100
018180
FFFE00
018000
018000
018000
018000
0F8000
030000
ENDCHAR
STARTCHAR 2F40
ENCODING 12096
SWIDTH 1000 0
DWIDTH 20 0
BBX 16 17 2 -1
BITMAP
0180
0180
0183
FFFF
0180
0180
0180
018C
3E78
0810
0430
0260
01C0
01C0
0670
181E
E003
ENDCHAR
STARTCHAR 2F41
ENCODING 12097
SWIDTH 1000 0
DWIDTH 20 0
BBX 18 18 1 -2
BITMAP
00C000
008000
008300
00FF00
008000
008000
008400
3FFE00
080400
040800
021800
021000
012000
00C000
01F000
061C00
1807C0
E00000
ENDCHAR
STARTCHAR 2F42
ENCODING 12098
SWIDTH 1000 0
DWIDTH 20 0
BBX 16 17 2 -1
BITMAP
0180
0180
0180
0183
7E7C
0810
0810
0420
0620
0240
01C0
0080
0140
0630
0C1C
3007
C001
ENDCHAR
STARTCHAR 2F43
ENCODING 12099
SWIDTH 1000 0
DWIDTH 20 0
BBX 16 17 2 -1
BITMAP
0030
0020
0C20
0620
0320
0320
2020
1820
0C20
0423
0027
01F8
7E20
8020
0020
0020
0020
ENDCHAR
STARTCHAR 2F44
ENCODING 12100
SWIDTH 1000 0
DWIDTH 20 0
BBX 16 17 2 -2
BITMAP
003C
23E0
3C00
3000
3000
3000
3003
3FFF
3020
3020
3020
2020
2020
2020
4020
4020
8020
ENDCHAR
STARTCHAR 2F45
ENCODING 12101
SWIDTH 1000 0
DWIDTH 20 0
BBX 16 18 2 -1
BITMAP
0180
0180
0180
0183
FFFF
0200
0200
0200
0202
03FC
0204
0604
0404
0404
0804
1004
208C
C078
ENDCHAR
STARTCHAR 2F46
ENCODING 12102
SWIDTH 1000 0
DWIDTH 20 0
BBX 17 18 1 -2
BITMAP
000200
3FFE00
008000
008000
008000
008000
008100
7FFF80
008000
01E000
016000
016000
036000
026080
046080
086080
303F80
C00000
ENDCHAR
STARTCHAR 2F47
ENCODING 12103
SWIDTH 1000 0
DWIDTH 20 0
BBX 12 17 4 -1
BITMAP
8010
FFF0
8030
8030
8030
8030
8030
8030
FFF0
8030
8030
8030
8030
8030
8030
FFF0
8030
ENDCHAR
STARTCHAR 2F48
ENCODING 12104
SWIDTH 1000 0
DWIDTH 20 0
BBX 12 16 4 -1
BITMAP
0010
FFF0
8010
8010
8010
8010
8090
FFD0
8010
8010
8010
8010
8010
8010
FFF0
8010
ENDCHAR
STARTCHAR 2F49
ENCODING 12105
SWIDTH 1000 0
DWIDTH 20 0
BBX 14 17 2 -1
BITMAP
0004
1FFC
100C
100C
100C
1FFC
100C
100C
100C
100C
1FFC
100C
300C
200C
600C
407C
8018
ENDCHAR
STARTCHAR 2F4A
ENCODING 12106
SWIDTH 1000 0
DWIDTH 20 0
BBX 18 17 1 -1
BITMAP
00C000
00C000
00C000
00C000
00C180
3FFE00
01E000
01D000
02D000
04C800
0CC400
08C300
10C180
60C0C0
80C000
00C000
00C000
ENDCHAR
STARTCHAR 2F4B
ENCODING 12107
SWIDTH 1000 0
DWIDTH 20 0
BBX 16 17 2 -1
BITMAP
0C00
0800
1800
1003
1FFE
2106
4184
4188
8180
0340
0240
0620
0410
0818
100E
6003
8000
ENDCHAR
STARTCHAR 2F4C
ENCODING 12108
SWIDTH 1000 0
DWIDTH 20 0
BBX 16 16 2 0
BITMAP
00C0
0080
0080
0080
1080
1080
1086
10FE
1080
1080
1080
1080
1080
1080
1081
FFFF
ENDCHAR
STARTCHAR 2F4D
ENCODING 12109
SWIDTH 1000 0
DWIDTH 20 0
BBX 16 17 2 -1
BITMAP
0003
FFFF
0300
0200
0600
0408
0BF8
1010
3C30
4620
8340
01C0
0180
0300
0400
1800
E000
ENDCHAR
STARTCHAR 2F4E
ENCODING 12110
SWIDTH 1000 0
DWIDTH 20 0
BBX 17 18 1 -2
BITMAP
001000
07F800
041000
041000
041100
041080
081F80
100000
600000
1FFC00
040C00
021800
013000
00E000
00E000
031E00
1C0380
E00000
ENDCHAR
STARTCHAR 2F4F
ENCODING 12111
SWIDTH 1000 0
DWIDTH 20 0
BBX 18 17 1 -1
BITMAP
000400
1FFE00
188400
108400
108400
108400
1084C0
FFFFC0
108400
108400
108400
308400
218480
3FFFC0
200400
000C00
003800
ENDCHAR
STARTCHAR 2F50
ENCODING 12112
SWIDTH 1000 0
DWIDTH 20 0
BBX 18 16 1 -1
BITMAP
183000
102000
102000
102100
102380
11A600
1E3800
102000
102000
102000
102000
102080
11A080
1E2080
E020C0
803FC0
ENDCHAR
STARTCHAR 2F51
ENCODING 12113
SWIDTH 1000 0
DWIDTH 20 0
BBX 18 17 1 -1
BITMAP
000800
003C00
01C000
1F8000
218200
018300
01FC00
3F8000
018080
0181C0
01FE00
FF8000
018080
018080
018080
018180
00FF80
ENDCHAR
STARTCHAR 2F52
ENCODING 12114
SWIDTH 1000 0
DWIDTH 20 0
BBX 16 17 2 0
BITMAP
003C
23C0
3CC0
20C0
20C0
2040
2043
207F
3FC0
2040
2020
2021
2031
2059
2F8D
F007
8003
ENDCHAR
STARTCHAR 2F53
ENCODING 12115
SWIDTH 1000 0
DWIDTH 20 0
BBX 18 18 1 -1
BITMAP
040000
0C0000
080300
0FFF00
180000
100600
23F800
400000
800C00
1FFC00
000C00
000400
000440
000480
000280
000380
0001C0
0000C0
ENDCHAR
STARTCHAR 2F54
ENCODING 12116
SWIDTH 1000 0
DWIDTH 20 0
BBX 18 17 1 -2
BITMAP
006000
004000
004000
004100
024180
7F6200
026600
065800
045000
044800
084800
084400
104200
204180
4040C0
804000
07C000
ENDCHAR
STARTCHAR 2F55
ENCODING 12117
SWIDTH 1000 0
DWIDTH 20 0
BBX 16 17 2 -1
BITMAP
0180
0180
0180
0182
1187
1184
1188
3190
21A0
6140
4140
0220
0210
0418
080C
3003
C001
ENDCHAR
STARTCHAR 2F56
ENCODING 12118
SWIDTH 1000 0
DWIDTH 20 0
BBX 18 16 1 0
BITMAP
007F00
1F8800
10C800
108800
108800
108400
108400
108400
108400
108200
108200
308300
208100
208180
4080C0
808000
ENDCHAR
STARTCHAR 2F57
ENCODING 12119
SWIDTH 1000 0
DWIDTH 20 0
BBX 16 16 2 -1
BITMAP
0C30
1818
100C
3006
6013
4831
8420
0460
0240
01C0
0180
03C0
0630
0C18
3007
C001
ENDCHAR
STARTCHAR 2F58
ENCODING 12120
SWIDTH 1000 0
DWIDTH 20 0
BBX 16 17 2 -1
BITMAP
0008
1018
0E30
01C0
01E0
0618
1804
6010
0818
0420
0260
0340
0180
01C0
0630
0C1E
F003
ENDCHAR
STARTCHAR 2F59
ENCODING 12121
SWIDTH 1000 0
DWIDTH 20 0
BBX 11 17 4 -1
BITMAP
0020
3020
2020
2020
2020
2020
3FE0
2020
0020
0020
FFE0
1020
1020
3020
2020
4020
8020
ENDCHAR
STARTCHAR 2F5A
ENCODING 12122
SWIDTH 1000 0
DWIDTH 20 0
BBX 16 18 2 -1
BITMAP
0040
1840
1040
1040
1040
1043
1FFF
1000
1000
1020
1FF0
3020
2020
2020
2020
4020
4020
8020
ENDCHAR
STARTCHAR 2F5B
ENCODING 12123
SWIDTH 1000 0
DWIDTH 20 0
BBX 17 16 1 -1
BITMAP
000300
1FFC00
0C3000
083000
183000
103180
1FFF80
105000
00D000
019000
031000
061000
081000
301000
C1F000
006000
ENDCHAR
STARTCHAR 2F5C
ENCODING 12124
SWIDTH 1000 0
DWIDTH 20 0
BBX 18 17 1 -1
BITMAP
00E000
0CC000
08C000
18C000
10C300
1FFC00
20C000
20C000
40C000
00C080
FFFFC0
00C000
00C000
00C000
00C000
00C000
00C000
ENDCHAR
STARTCHAR 2F5D
ENCODING 12125
SWIDTH 1000 0
DWIDTH 20 0
BBX 16 17 2 -1
BITMAP
0180
0120
0118
0108
0108
0103
FFFF
0180
0180
0380
0240
0220
0430
0C18
180C
3007
C001
ENDCHAR
STARTCHAR 2F5E
ENCODING 12126
SWIDTH 1000 0
DWIDTH 20 0
BBX 16 18 2 -1
BITMAP
0180
0100
0100
0103
FFFF
0100
0180
0200
4418
3830
0860
0440
0480
0118
0204
040E
FFF3
8003
ENDCHAR
STARTCHAR 2F5F
ENCODING 12127
SWIDTH 1000 0
DWIDTH 20 0
BBX 16 15 2 0
BITMAP
0003
7FFC
0100
0100
0100
0100
0104
7FFE
0100
0120
0110
0108
010C
0100
FFFF
ENDCHAR
STARTCHAR 2F60
ENCODING 12128
SWIDTH 1000 0
DWIDTH 20 0
BBX 18 17 1 -2
BITMAP
000E00
11FC00
1EC800
108800
108800
108400
108400
108400
108400
108600
108200
309200
208900
208980
61FD80
4E0CC0
880400
ENDCHAR
STARTCHAR 2F61
ENCODING 12129
SWIDTH 1000 0
DWIDTH 20 0
BBX 17 17 2 -1
BITMAP
000200
FFFF00
080000
080000
080000
083000
0FE000
082000
1A2000
112000
112000
112100
102100
102100
17A100
F82180
803F00
ENDCHAR
STARTCHAR 2F62
ENCODING 12130
SWIDTH 1000 0
DWIDTH 20 0
BBX 18 18 1 -2
BITMAP
0C0C00
080C00
080C00
080C80
FFFFC0
080C00
080C00
080C00
080C00
0FFC00
080C00
080C00
080C00
080C00
080C00
0FFC00
080C00
080C00
ENDCHAR
STARTCHAR 2F63
ENCODING 12131
SWIDTH 1000 0
DWIDTH 20 0
BBX 16 16 2 0
BITMAP
00C0
1080
1880
1080
2082
3FFC
4080
4080
8080
0084
1FF8
0080
0080
0080
0081
FFFF
ENDCHAR
STARTCHAR 2F64
ENCODING 12132
SWIDTH 1000 0
DWIDTH 20 0
BBX 17 17 1 -1
BITMAP
200100
3FFF80
30C100
30C100
30C100
30C100
3FFF00
30C100
30C100
30C100
3FFF00
30C100
20C100
20C100
60C100
40D100
800F00
ENDCHAR
STARTCHAR 2F65
ENCODING 12133
SWIDTH 1000 0
DWIDTH 20 0
BBX 14 16 3 -1
BITMAP
0004
FFFC
8204
8204
8204
8204
8204
FFFC
8204
8204
8204
8204
8204
8204
FDFC
8004
ENDCHAR
STARTCHAR 2F66
ENCODING 12134
SWIDTH 1000 0
DWIDTH 20 0
BBX 17 17 1 -2
BITMAP
000100
3FFF00
00C200
00C400
00C000
08C000
18C200
18FF00
18C000
18C000
18C000
14C000
32C000
23C000
41C000
403F80
800000
ENDCHAR
STARTCHAR 2F67
ENCODING 12135
SWIDTH 1000 0
DWIDTH 20 0
BBX 17 17 1 -1
BITMAP
006000
006000
106080
1F9F00
580000
580000
780000
780000
180000
300000
500000
900000
100000
300000
200000
400000
400000
ENDCHAR
STARTCHAR 2F68
ENCODING 12136
SWIDTH 1000 0
DWIDTH 20 0
BBX 18 10 1 4
BITMAP
00C000
0FC600
21C800
193180
0A1200
060C00
0C0600
180380
2000C0
C00000
ENDCHAR
STARTCHAR 2F69
ENCODING 12137
SWIDTH 1000 0
DWIDTH 20 0
BBX 14 18 3 -2
BITMAP
0200
0600
0400
880C
F7F8
C008
C008
C008
C008
FFF8
C008
C008
C008
C008
C008
FFF8
C008
C000
ENDCHAR
STARTCHAR 2F6A
ENCODING 12138
SWIDTH 1000 0
DWIDTH 20 0
BBX 17 17 1 -1
BITMAP
006000
004000
004100
1FFF80
104100
104200
104000
104400
1FBE00
120C00
311800
209000
206000
20F000
419C00
460780
980000
ENDCHAR
STARTCHAR 2F6B
ENCODING 12139
SWIDTH 1000 0
DWIDTH 20 0
BBX 17 15 2 0
BITMAP
000400
3FFE00
264400
264400
264400
264400
264400
264400
264400
264400
264400
264400
264400
264400
FFFF80
ENDCHAR
STARTCHAR 2F6C
ENCODING 12140
SWIDTH 1000 0
DWIDTH 20 0
BBX 13 17 4 -1
BITMAP
0010
FFF8
8010
8010
8010
8010
FFF0
8010
8010
8010
FFF0
8010
8010
8010
8010
FFF0
8010
ENDCHAR
STARTCHAR 2F6D
ENCODING 12141
SWIDTH 1000 0
DWIDTH 20 0
BBX 16 17 2 -1
BITMAP
0008
7FFC
0018
0860
0780
0180
00C0
FFFF
0382
0284
0488
0890
1080
6080
8080
0080
0780
ENDCHAR
STARTCHAR 2F6E
ENCODING 12142
SWIDTH 1000 0
DWIDTH 20 0
BBX 16 17 2 -1
BITMAP
1C00
1800
1004
1FF8
2180
2180
4180
8180
0183
7FFC
0140
0340
0220
0410
080C
3007
C001
ENDCHAR
STARTCHAR 2F6F
ENCODING 12143
SWIDTH 1000 0
DWIDTH 20 0
BBX 17 17 1 -2
BITMAP
000080
7FFF00
020000
020000
060000
040000
0C0100
0FFF00
140100
340100
640100
840100
040100
040100
07FF00
040100
040100
ENDCHAR
STARTCHAR 2F70
ENCODING 12144
SWIDTH 1000 0
DWIDTH 20 0
BBX 17 16 1 -1
BITMAP
000600
1FF800
000000
000000
000000
000180
3FFE00
00C000
08C800
18C600
10C300
30C100
20C180
40C080
88C080
078000
ENDCHAR
STARTCHAR 2F71
ENCODING 12145
SWIDTH 1000 0
DWIDTH 20 0
BBX 15 17 3 -1
BITMAP
0300
0300
0200
0206
FFFC
8404
8404
8484
8844
8824
8BF4
BC14
8014
8004
8004
807C
800C
ENDCHAR
STARTCHAR 2F72
ENCODING 12146
SWIDTH 1000 0
DWIDTH 20 0
BBX 18 17 1 -1
BITMAP
000400
003E00
03C000
3CC000
00C000
00C000
00C180
3FFE00
01E000
03D000
06C800
04CC00
08C700
30C180
40C0C0
80C000
00C000
ENDCHAR
STARTCHAR 2F73
ENCODING 12147
SWIDTH 1000 0
DWIDTH 20 0
BBX 18 18 1 -1
BITMAP
00C000
00C000
00C000
00C080
3FFF80
6001C0
400100
C02000
032000
061000
041000
040800
0C0800
080400
180600
300300
200180
C00080
ENDCHAR
STARTCHAR 2F74
ENCODING 12148
SWIDTH 1000 0
DWIDTH 20 0
BBX 15 16 3 0
BITMAP
0300
0300
0300
0306
FCF8
0010
2018
2030
1030
1020
1820
0860
0840
0840
0880
FFFE
ENDCHAR
STARTCHAR 2F75
ENCODING 12149
SWIDTH 1000 0
DWIDTH 20 0
BBX 18 18 1 -1
BITMAP
001000
181000
103000
102000
1120C0
3FBFC0
284400
484400
488400
890400
080400
080400
080400
080400
080400
080400
084400
083C00
ENDCHAR
STARTCHAR 2F76
ENCODING 12150
SWIDTH 1000 0
DWIDTH 20 0
BBX 18 17 1 -1
BITMAP
00C000
00C200
20C300
10C600
08C400
0CC800
04D000
00C080
7FFF00
01E000
02D000
06C800
0CC600
10C300
20C1C0
C0C000
00C000
ENDCHAR
STARTCHAR 2F77
ENCODING 12151
SWIDTH 1000 0
DWIDTH 20 0
BBX 17 18 1 -1
BITMAP
008000
00C000
018000
010800
1A1C00
043000
022000
034400
008200
030F00
7FF180
40C080
0CC800
08C600
18C300
30C180
40C180
80C000
ENDCHAR
STARTCHAR 2F78
ENCODING 12152
SWIDTH 1000 0
DWIDTH 20 0
BBX 16 17 2 -1
BITMAP
0C00
1800
1006
1FF8
2180
4180
4180
0183
FFFF
0180
2186
2184
2184
2184
2184
3FFC
2004
ENDCHAR
STARTCHAR 2F79
ENCODING 12153
SWIDTH 1000 0
DWIDTH 20 0
BBX 16 17 2 -1
BITMAP
8002
FFFF
C002
C612
C632
C432
F5A2
CC62
C422
C632
C95A
C84A
D082
D082
E102
C002
C00E
ENDCHAR
STARTCHAR 2F7A
ENCODING 12154
SWIDTH 1000 0
DWIDTH 20 0
BBX 16 17 2 -1
BITMAP
0830
0C20
0460
0442
7BBC
0100
0100
0104
3FF8
0100
0100
0103
FFFC
0100
0100
0100
0100
ENDCHAR
STARTCHAR 2F7B
ENCODING 12155
SWIDTH 1000 0
DWIDTH 20 0
BBX 17 17 1 -1
BITMAP
010080
7FFF80
010080
010080
613080
310880
110C80
190080
010280
050480
191880
313080
C14080
410080
010080
010080
0F0780
ENDCHAR
STARTCHAR 2F7C
ENCODING 12156
SWIDTH 1000 0
DWIDTH 20 0
BBX 17 17 1 -1
BITMAP
018000
010700
011400
1FE800
011800
013080
012080
7EDF00
038000
030E00
061800
1A6000
238100
C20100
020100
030300
01FF00
ENDCHAR
STARTCHAR 2F7D
ENCODING 12157
SWIDTH 1000 0
DWIDTH 20 0
BBX 18 17 1 -1
BITMAP
000080
FFFFC0
00C000
008000
010100
3FFF80
221100
221100
221100
221100
221100
221100
221100
221100
221100
221900
221700
ENDCHAR
STARTCHAR 2F7E
ENCODING 12158
SWIDTH 1000 0
DWIDTH 20 0
BBX 18 17 1 -1
BITMAP
00C000
00C000
00FF00
0FC000
30C000
00C200
1FFC00
00C000
00C180
7FFF80
01C000
01E000
02D800
0CC400
10C380
60C0C0
80C000
ENDCHAR
STARTCHAR 2F7F
ENCODING 12159
SWIDTH 1000 0
DWIDTH 20 0
BBX 17 17 1 -1
BITMAP
000180
7FFF80
080C00
080C00
080C00
0FFC00
080C00
080C00
080C00
0FFC00
080C00
080D80
08FE00
FF0C00
400C00
000C00
000C00
ENDCHAR
STARTCHAR 2F80
ENCODING 12160
SWIDTH 1000 0
DWIDTH 20 0
BBX 18 19 1 -2
BITMAP
008000
00C000
008200
3FFE00
008200
0082C0
7FFF00
008200
3FFE00
008200
008200
3FFF00
008000
008080
FFFFC0
008000
008000
008000
008000
ENDCHAR
STARTCHAR 2F81
ENCODING 12161
SWIDTH 1000 0
DWIDTH 20 0
BBX 15 17 2 -1
BITMAP
0180
0100
8102
FFFE
C182
C262
C61A
C98A
F102
C182
C142
C232
C41A
D80A
C002
C022
C01E
ENDCHAR
STARTCHAR 2F82
ENCODING 12162
SWIDTH 1000 0
DWIDTH 20 0
BBX 15 18 3 -2
BITMAP
0004
FFFE
8300
8300
8300
8308
FCF8
8008
8008
8008
FFF8
8308
8300
8300
8302
FFFE
8000
8000
ENDCHAR
STARTCHAR 2F83
ENCODING 12163
SWIDTH 1000 0
DWIDTH 20 0
BBX 12 19 4 -2
BITMAP
0400
0600
0400
0810
F7F0
8010
8010
8010
FFF0
8010
8010
8010
FFF0
8010
8010
8010
FFF0
8010
8010
ENDCHAR
STARTCHAR 2F84
ENCODING 12164
SWIDTH 1000 0
DWIDTH 20 0
BBX 16 16 2 0
BITMAP
0003
FFFF
0300
0220
0418
040C
3FF6
7003
0180
0100
0104
7FFC
0100
0100
0100
FFFF
ENDCHAR
STARTCHAR 2F85
ENCODING 12165
SWIDTH 1000 0
DWIDTH 20 0
BBX 14 17 3 -1
BITMAP
0E00
3004
C07C
8004
8004
8004
8004
8404
F87C
8004
8004
8004
8004
8004
FFFC
8004
8004
ENDCHAR
STARTCHAR 2F86
ENCODING 12166
SWIDTH 1000 0
DWIDTH 20 0
BBX 16 16 2 0
BITMAP
00FC
3F80
4180
0180
0183
FFFC
0180
0180
0184
3E7C
2004
2004
2004
2004
3FFC
2004
ENDCHAR
STARTCHAR 2F87
ENCODING 12167
SWIDTH 1000 0
DWIDTH 20 0
BBX 18 18 1 -1
BITMAP
0C0600
080600
180600
1F8680
117FC0
110600
313600
312600
6A6600
4E4600
824680
047FC0
044600
084600
100600
100600
200600
400600
ENDCHAR
STARTCHAR 2F88
ENCODING 12168
SWIDTH 1000 0
DWIDTH 20 0
BBX 18 18 1 -1
BITMAP
00C000
008000
010400
0FFE00
080400
098400
08C400
084400
080480
FFFFC0
080400
08C400
188400
108400
108400
108400
204400
403C00
ENDCHAR
STARTCHAR 2F89
ENCODING 12169
SWIDTH 1000 0
DWIDTH 20 0
BBX 16 18 2 -2
BITMAP
0008
1FFC
1008
1008
1FF8
1008
1008
1008
1FF8
1108
1106
108C
1050
1060
11B0
3E0C
E007
8000
ENDCHAR
STARTCHAR 2F8A
ENCODING 12170
SWIDTH 1000 0
DWIDTH 20 0
BBX 17 17 1 -1
BITMAP
060000
041000
0BF000
082000
104000
3FFF00
504200
904200
104200
104200
1FFE00
100200
100000
100080
100080
100180
1FFF80
ENDCHAR
STARTCHAR 2F8B
ENCODING 12171
SWIDTH 1000 0
DWIDTH 20 0
BBX 16 17 2 -1
BITMAP
180C
1008
1008
1008
9249
9249
9249
9249
9249
9249
9249
FE7F
9048
2008
2008
4008
8008
ENDCHAR
STARTCHAR 2F8C
ENCODING 12172
SWIDTH 1000 0
DWIDTH 20 0
BBX 17 17 1 -1
BITMAP
00C000
00C100
00FF00
00C000
20C080
3F3F80
20C100
208000
208180
208F00
2FF000
208000
208000
208100
408100
40FF80
800000
ENDCHAR
STARTCHAR 2F8D
ENCODING 12173
SWIDTH 1000 0
DWIDTH 20 0
BBX 17 17 2 -1
BITMAP
018000
010000
010000
410000
7FFE00
410600
410600
410600
410600
7FFE00
410600
410000
010800
010600
010300
FFFD00
C00180
ENDCHAR
STARTCHAR 2F8E
ENCODING 12174
SWIDTH 1000 0
DWIDTH 20 0
BBX 18 17 1 0
BITMAP
008000
018000
010000
210000
3FFF00
322200
322200
322200
322200
322200
322200
322200
322200
322200
322200
3222C0
FFFFC0
ENDCHAR
STARTCHAR 2F8F
ENCODING 12175
SWIDTH 1000 0
DWIDTH 20 0
BBX 17 17 1 -1
BITMAP
040000
080100
18FE00
300000
440000
8C0000
080080
11FF00
380400
300400
500400
900400
100400
100400
100400
100400
103C00
ENDCHAR
STARTCHAR 2F90
ENCODING 12176
SWIDTH 1000 0
DWIDTH 20 0
BBX 18 17 1 -1
BITMAP
00C000
00C000
00C000
00C080
7FFF00
014100
024380
062200
0C2400
141800
641000
840800
040C00
043600
07C380
3C01C0
200000
ENDCHAR
STARTCHAR 2F91
ENCODING 12177
SWIDTH 1000 0
DWIDTH 20 0
BBX 16 15 2 0
BITMAP
0001
FFFE
0420
0420
0422
7FFE
4422
4422
4422
4422
4422
47E2
4422
4002
4002
ENDCHAR
STARTCHAR 2F92
ENCODING 12178
SWIDTH 1000 0
DWIDTH 20 0
BBX 18 17 1 -1
BITMAP
100600
1FFC00
180400
180400
1FFC00
180400
180400
1FFC00
180400
180400
1FFC00
032000
022080
062080
0C2080
1821C0
E03F80
ENDCHAR
STARTCHAR 2F93
ENCODING 12179
SWIDTH 1000 0
DWIDTH 20 0
BBX 15 18 2 -1
BITMAP
0600
0C00
0FE0
1860
10C0
3082
6FFE
A086
2086
3FFE
2086
2086
2086
3F7E
2006
6006
407E
800C
ENDCHAR
STARTCHAR 2F94
ENCODING 12180
SWIDTH 1000 0
DWIDTH 20 0
BBX 15 17 3 -1
BITMAP
0010
3FF8
0000
0006
FFF8
0010
7FF8
0000
0010
3FE0
0000
4008
7FF8
4008
4008
4008
7FF8
ENDCHAR
STARTCHAR 2F95
ENCODING 12181
SWIDTH 1000 0
DWIDTH 20 0
BBX 18 16 1 0
BITMAP
061800
0C0400
188200
10C300
21C100
433000
061800
0C0E00
180780
6FFCC0
880400
080400
080400
080400
0FFC00
080400
ENDCHAR
STARTCHAR 2F96
ENCODING 12182
SWIDTH 1000 0
DWIDTH 20 0
BBX 16 16 2 0
BITMAP
0003
FFFF
0000
0000
2004
3FFC
200C
200C
200C
200C
3FFC
0010
0818
0C30
0420
FFFF
ENDCHAR
STARTCHAR 2F97
ENCODING 12183
SWIDTH 1000 0
DWIDTH 20 0
BBX 17 17 2 -1
BITMAP
000300
FFFF80
034000
064000
0A4300
114600
632C00
84B000
089000
31D000
C34800
064C00
0C4600
304300
404100
88C000
078000
ENDCHAR
STARTCHAR 2F98
ENCODING 12184
SWIDTH 1000 0
DWIDTH 20 0
BBX 12 17 4 -1
BITMAP
01C0
0300
0E00
7130
A1C0
1980
0E00
1900
6180
8680
0CC0
11C0
6340
0460
1860
6040
03C0
ENDCHAR
STARTCHAR 2F99
ENCODING 12185
SWIDTH 1000 0
DWIDTH 20 0
BBX 17 18 1 -2
BITMAP
100000
1FFE00
100600
100600
1FFE00
100600
100600
100600
1FFE00
100600
100600
1FFE00
100600
023000
040E00
180380
600080
800000
ENDCHAR
STARTCHAR 2F9A
ENCODING 12186
SWIDTH 1000 0
DWIDTH 20 0
BBX 17 17 1 -1
BITMAP
00C000
00C000
00C300
1FFC00
00C000
00C080
00C180
7F3E00
111000
191600
131300
221100
221180
421080
841000
09F000
107000
ENDCHAR
STARTCHAR 2F9B
ENCODING 12187
SWIDTH 1000 0
DWIDTH 20 0
BBX 17 17 2 -1
BITMAP
018000
010000
010400
7FFE00
010000
010000
010300
7FFC00
010000
190000
310400
31F800
310000
290000
470000
838080
807F00
ENDCHAR
STARTCHAR 2F9C
ENCODING 12188
SWIDTH 1000 0
DWIDTH 20 0
BBX 18 17 1 -1
BITMAP
100200
1FFE00
100200
100200
100200
100200
1FFE00
104200
004000
084000
084100
187E00
144000
124000
214000
40E000
801FC0
ENDCHAR
STARTCHAR 2F9D
ENCODING 12189
SWIDTH 1000 0
DWIDTH 20 0
BBX 17 18 1 -1
BITMAP
008000
008000
010400
0FFC00
080C00
080C00
0FFC80
080C80
0FFD00
080F00
080E00
09FC00
7E1C00
406400
018400
060400
180C00
E07C00
ENDCHAR
STARTCHAR 2F9E
ENCODING 12190
SWIDTH 1000 0
DWIDTH 20 0
BBX 18 19 1 -2
BITMAP
00C000
008000
008180
7FFF80
008000
008200
1FFE00
108200
108200
1FFE00
108200
1FFE00
108200
008080
FFFFC0
008000
008000
008000
008000
ENDCHAR
STARTCHAR 2F9F
ENCODING 12191
SWIDTH 1000 0
DWIDTH 20 0
BBX 17 18 1 -2
BITMAP
00C000
00C000
00C100
3FFF00
080800
041800
021000
022080
FFFF80
00C000
00C000
00C100
7FFF80
00C000
00C000
00C000
00C000
00C000
ENDCHAR
STARTCHAR 2FA0
ENCODING 12192
SWIDTH 1000 0
DWIDTH 20 0
BBX 18 17 1 -1
BITMAP
200180
3FFF80
200000
200600
27FE00
200000
200000
200180
3FFE00
222180
221200
221400
220800
420400
42E300
9F01C0
880000
ENDCHAR
STARTCHAR 2FA1
ENCODING 12193
SWIDTH 1000 0
DWIDTH 20 0
BBX 17 17 2 -1
BITMAP
001E00
01E000
3E0400
403E00
01C000
7E0600
003C00
07C000
F8C000
108000
188600
10FE00
308000
288000
668000
438000
807F80
ENDCHAR
STARTCHAR 2FA2
ENCODING 12194
SWIDTH 1000 0
DWIDTH 20 0
BBX 16 17 3 -1
BITMAP
0010
3FF0
2010
2010
3FF0
0000
FFFC
8208
8208
8208
8208
FDF8
8002
8002
8002
800F
FFFE
ENDCHAR
STARTCHAR 2FA3
ENCODING 12195
SWIDTH 1000 0
DWIDTH 20 0
BBX 18 17 1 -1
BITMAP
000080
FFFFC0
022000
022000
022100
3FFF00
222100
222500
222500
242500
2C3D00
200100
200100
3FFF00
200100
200100
3FFF00
ENDCHAR
STARTCHAR 2FA4
ENCODING 12196
SWIDTH 1000 0
DWIDTH 20 0
BBX 18 17 1 -1
BITMAP
000E00
01F000
7EC000
10C700
18C400
0CC800
0CC800
00C180
7FFF80
00C000
01E000
02D000
04CC00
08C700
30C1C0
40C000
80C000
ENDCHAR
STARTCHAR 2FA5
ENCODING 12197
SWIDTH 1000 0
DWIDTH 20 0
BBX 18 17 1 -1
BITMAP
000200
1FFF00
10C200
10C200
10C200
1FFE00
10C200
10C200
10C200
1FFE00
00C000
00C200
3FFF00
00C000
00C000
00C080
FFFFC0
ENDCHAR
STARTCHAR 2FA6
ENCODING 12198
SWIDTH 1000 0
DWIDTH 20 0
BBX 17 18 2 -1
BITMAP
018000
018000
034000
022000
043000
081800
181C00
2FF300
418180
818000
018200
3FFC00
218C00
118800
199800
099000
018300
FFFF00
ENDCHAR
STARTCHAR 2FA7
ENCODING 12199
SWIDTH 1000 0
DWIDTH 20 0
BBX 17 17 2 -1
BITMAP
000600
1FF800
100800
1FFC00
100000
100800
1FFC00
100000
100100
FFFE00
108600
104800
107000
103000
179C00
F80780
800100
ENDCHAR
STARTCHAR 2FA8
ENCODING 12200
SWIDTH 1000 0
DWIDTH 20 0
BBX 16 17 2 -1
BITMAP
0201
FE7F
8241
FE7F
8241
8241
FE7F
8241
8001
8001
8001
8001
8001
8001
8001
8003
800E
ENDCHAR
STARTCHAR 2FA9
ENCODING 12201
SWIDTH 1000 0
DWIDTH 20 0
BBX 18 18 1 -1
BITMAP
018000
010400
1FFE00
100400
100400
1FFC00
100200
1FFF00
100200
100200
1FFE00
10C200
00C080
FFFFC0
00C000
00C000
00C000
00C000
ENDCHAR
STARTCHAR 2FAA
ENCODING 12202
SWIDTH 1000 0
DWIDTH 20 0
BBX 17 17 2 -1
BITMAP
018000
010400
3FFC00
010400
010580
FFFE00
010400
7FFC00
018400
618600
194C00
093000
053000
191800
E10600
810300
070000
ENDCHAR
STARTCHAR 2FAB
ENCODING 12203
SWIDTH 1000 0
DWIDTH 20 0
BBX 18 17 1 0
BITMAP
061800
0C3000
082000
084100
1FFF80
184000
384000
584300
5FFC00
984000
184300
1FFF00
184000
184000
184080
1FFFC0
180000
ENDCHAR
STARTCHAR 2FAC
ENCODING 12204
SWIDTH 1000 0
DWIDTH 20 0
BBX 18 17 1 -1
BITMAP
000080
FFFFC0
00C000
00C000
00C100
3FFF00
20E100
2CD900
26C900
22C100
20C100
2CD900
26C900
22CD00
20C100
20C100
20C700
ENDCHAR
STARTCHAR 2FAD
ENCODING 12205
SWIDTH 1000 0
DWIDTH 20 0
BBX 16 17 2 -1
BITMAP
0180
0182
7FFC
0184
3FF8
0181
FE7E
0008
1FFC
1188
1188
1188
1E78
1008
1008
1088
1078
ENDCHAR
STARTCHAR 2FAE
ENCODING 12206
SWIDTH 1000 0
DWIDTH 20 0
BBX 18 17 1 -1
BITMAP
033000
023000
023000
023080
7E3F00
023000
023100
7E3F80
023000
023000
07B080
7A3FC0
C63000
843000
083000
103000
603000
ENDCHAR
STARTCHAR 2FAF
ENCODING 12207
SWIDTH 1000 0
DWIDTH 20 0
BBX 18 17 1 -1
BITMAP
000080
FFFFC0
008000
008000
010100
3EFF00
221100
221100
23F100
221100
221100
221100
23F100
221100
221100
221100
3DEF00
ENDCHAR
STARTCHAR 2FB0
ENCODING 12208
SWIDTH 1000 0
DWIDTH 20 0
BBX 16 17 2 -1
BITMAP
0430
0423
7FFC
0420
07E0
0520
0104
3FFC
2104
2104
3FFC
2104
0101
FFFE
0100
0100
0100
ENDCHAR
STARTCHAR 2FB1
ENCODING 12209
SWIDTH 1000 0
DWIDTH 20 0
BBX 16 17 2 -1
BITMAP
0100
0208
3FF0
0611
FFFF
0000
1FF8
1008
1008
1FF8
2046
3FF8
3040
3041
CFFE
0040
0040
ENDCHAR
STARTCHAR 2FB2
ENCODING 12210
SWIDTH 1000 0
DWIDTH 20 0
BBX 16 16 2 0
BITMAP
0660
0440
0440
0443
7C7C
0440
0440
0442
7C7C
0440
0442
FC7F
0440
0440
0440
FFFF
ENDCHAR
STARTCHAR 2FB3
ENCODING 12211
SWIDTH 1000 0
DWIDTH 20 0
BBX 16 18 2 -1
BITMAP
0180
0100
0106
7FFE
1010
0830
0420
0443
FFFF
0000
1FFC
1008
1008
1FF8
1008
1008
1FF8
1008
ENDCHAR
STARTCHAR 2FB4
ENCODING 12212
SWIDTH 1000 0
DWIDTH 20 0
BBX 16 17 2 -1
BITMAP
0003
FFFC
0100
2204
3DFC
200C
200C
3FFC
200C
200C
3FFC
200C
200C
3FFC
0E78
3806
C001
ENDCHAR
STARTCHAR 2FB5
ENCODING 12213
SWIDTH 1000 0
DWIDTH 20 0
BBX 18 17 1 -2
BITMAP
000200
3FFE00
301200
31FA00
3E8200
208200
208A00
27FA00
249A00
249A00
27FB00
249940
208140
409940
408D40
4FF4C0
8804C0
ENDCHAR
STARTCHAR 2FB6
ENCODING 12214
SWIDTH 1000 0
DWIDTH 20 0
BBX 18 17 1 -1
BITMAP
000800
7FF800
000980
02CA00
0C8F00
788900
088480
088280
0889C0
7FF900
088A00
188F00
108980
108440
208640
6083C0
8081C0
ENDCHAR
STARTCHAR 2FB7
ENCODING 12215
SWIDTH 1000 0
DWIDTH 20 0
BBX 18 19 1 -2
BITMAP
00C000
00C000
012000
021000
04CC00
088700
1FFDC0
280480
C80400
0FFC00
080400
0FFE00
088700
084400
082800
081800
0FCE00
780380
200000
ENDCHAR
STARTCHAR 2FB8
ENCODING 12216
SWIDTH 1000 0
DWIDTH 20 0
BBX 18 18 1 -1
BITMAP
080800
041800
021000
022080
FFFFC0
008000
008000
110200
1EFE00
100600
1FFE00
100600
100600
1FFE00
100600
100600
100600
1FFE00
ENDCHAR
STARTCHAR 2FB9
ENCODING 12217
SWIDTH 1000 0
DWIDTH 20 0
BBX 17 17 2 -1
BITMAP
003800
1FC000
610000
010100
FFFF00
038000
056000
091800
310780
E00000
3FFC00
300C00
300C00
3FFC00
300C00
300C00
3FFC00
ENDCHAR
STARTCHAR 2FBA
ENCODING 12218
SWIDTH 1000 0
DWIDTH 20 0
BBX 17 17 1 -1
BITMAP
000300
1FFF00
104000
104200
1FFC00
104000
104200
1FFC00
104000
104080
1FFF80
100080
011180
248980
244D00
664100
C40F00
ENDCHAR
STARTCHAR 2FBB
ENCODING 12219
SWIDTH 1000 0
DWIDTH 20 0
BBX 17 18 1 -1
BITMAP
080400
0FFE00
080400
080400
08FC00
088400
488480
777B80
480500
CFFE00
080400
0FFC00
080400
080400
0FFC00
080400
080400
083C00
ENDCHAR
STARTCHAR 2FBC
ENCODING 12220
SWIDTH 1000 0
DWIDTH 20 0
BBX 15 17 3 -1
BITMAP
0300
0206
FDF8
0010
1FF0
1020
1020
1FE0
0006
FFFC
9044
9FE4
9044
9044
9FC4
8004
801C
ENDCHAR
STARTCHAR 2FBD
ENCODING 12221
SWIDTH 1000 0
DWIDTH 20 0
BBX 17 17 2 -1
BITMAP
010300
3E0400
220C00
221800
3C3000
204300
220600
3C0400
200800
21B000
FE4180
240300
220600
470C00
791800
C12000
80C000
ENDCHAR
STARTCHAR 2FBE
ENCODING 12222
SWIDTH 1000 0
DWIDTH 20 0
BBX 17 17 2 -1
BITMAP
C20980
9C7100
8A2900
BEFD00
882100
8A2100
BEFD00
800100
800100
800100
800100
800100
800100
800100
800100
800100
800F00
ENDCHAR
STARTCHAR 2FBF
ENCODING 12223
SWIDTH 1000 0
DWIDTH 20 0
BBX 15 17 3 -1
BITMAP
0C44
8266
B084
CD24
A314
94C4
9A64
A324
8104
FEFC
6000
4078
4780
7804
4004
4006
7FFE
ENDCHAR
STARTCHAR 2FC0
ENCODING 12224
SWIDTH 1000 0
DWIDTH 20 0
BBX 15 17 3 -1
BITMAP
0006
FFF8
2010
3FF8
2010
2010
3FF0
0000
FFFE
8C84
8894
90FC
E024
BFF4
8304
8304
831C
ENDCHAR
STARTCHAR 2FC1
ENCODING 12225
SWIDTH 1000 0
DWIDTH 20 0
BBX 17 18 2 -1
BITMAP
010000
010000
420400
7FFE00
610400
610400
7FFC00
610400
610400
610400
7EFC00
048800
049000
0C9400
08BF00
10A100
208180
C0FF80
ENDCHAR
STARTCHAR 2FC2
ENCODING 12226
SWIDTH 1000 0
DWIDTH 20 0
BBX 18 19 1 -2
BITMAP
030000
020000
07F000
0C2000
084000
1FFF00
304200
504200
904200
1FFE00
104200
104200
1FFE00
100200
122200
223180
2310C0
6310C0
C00000
ENDCHAR
STARTCHAR 2FC3
ENCODING 12227
SWIDTH 1000 0
DWIDTH 20 0
BBX 18 17 1 0
BITMAP
018000
010400
1EFC00
100400
1FFC00
100400
1FFC00
100080
1FFFC0
100000
100080
1FFF80
011180
248900
64C900
444100
C41E00
ENDCHAR
STARTCHAR 2FC4
ENCODING 12228
SWIDTH 1000 0
DWIDTH 20 0
BBX 16 17 2 -1
BITMAP
0180
0106
01F8
0100
8103
FEFE
C332
C9A2
C642
D1D2
C98A
CB4A
C622
C932
F092
C002
FFFE
ENDCHAR
STARTCHAR 2FC5
ENCODING 12229
SWIDTH 1000 0
DWIDTH 20 0
BBX 18 19 1 -2
BITMAP
004000
004000
004180
3FFF80
233000
223100
3FFF80
223100
223100
3FFF00
200100
241000
249180
67D600
441800
441080
445080
9F9FC0
100000
ENDCHAR
STARTCHAR 2FC6
ENCODING 12230
SWIDTH 1000 0
DWIDTH 20 0
BBX 18 17 1 -1
BITMAP
00C000
008180
3FFE00
0C8C00
18C800
19AE00
379300
269900
4C8400
108300
6108C0
82F800
0C3000
33C000
01B000
060E00
780200
ENDCHAR
STARTCHAR 2FC7
ENCODING 12231
SWIDTH 1000 0
DWIDTH 20 0
BBX 18 19 1 -2
BITMAP
006000
004000
004180
3FFF80
200000
230C00
220C00
224C80
3FFF80
220C00
260C00
279E00
669D00
4A2D00
522C80
524C40
A28C00
820C00
020C00
ENDCHAR
STARTCHAR 2FC8
ENCODING 12232
SWIDTH 1000 0
DWIDTH 20 0
BBX 17 18 1 -2
BITMAP
031800
021180
3FFE00
021000
03F080
000080
7FFF00
008200
1FFF00
108200
108200
1FFE00
108200
1FFE00
100200
073E00
180380
E00080
ENDCHAR
STARTCHAR 2FC9
ENCODING 12233
SWIDTH 1000 0
DWIDTH 20 0
BBX 18 18 1 -1
BITMAP
000400
00FE00
3F8000
008080
7FFF80
01A000
069800
0C8700
31C180
C32000
06DC00
18C780
6CCCC0
84C800
02F800
1CC700
60C100
238000
ENDCHAR
STARTCHAR 2FCA
ENCODING 12234
SWIDTH 1000 0
DWIDTH 20 0
BBX 18 17 1 -1
BITMAP
000200
1FFE00
10C200
10C200
1FFE00
10C200
10C200
1FFE00
00C300
3FFF00
00C000
00C080
7F3F00
122200
221180
631080
C310C0
ENDCHAR
STARTCHAR 2FCB
ENCODING 12235
SWIDTH 1000 0
DWIDTH 20 0
BBX 18 17 1 -1
BITMAP
232300
332200
1B2400
1B2480
64DB00
0C8C00
188300
308180
6FFFC0
A69B00
269300
249300
249300
249300
248300
288300
208E00
ENDCHAR
STARTCHAR 2FCC
ENCODING 12236
SWIDTH 1000 0
DWIDTH 20 0
BBX 17 17 2 -1
BITMAP
400400
7FFC00
464400
464400
7E7C00
064000
864200
FE7E00
864200
864200
FE7E00
864200
864200
FE7E80
860080
060180
03FF80
ENDCHAR
STARTCHAR 2FCD
ENCODING 12237
SWIDTH 1000 0
DWIDTH 20 0
BBX 18 17 1 -1
BITMAP
000800
27F980
240900
27F900
240900
27F900
240900
27F900
200100
3F3F00
232100
032040
7F3F80
132100
232100
232100
C32100
ENDCHAR
STARTCHAR 2FCE
ENCODING 12238
SWIDTH 1000 0
DWIDTH 20 0
BBX 18 18 1 -1
BITMAP
080000
080400
088400
FF84C0
08FFC0
090400
760400
410400
7F7F80
412180
412100
7F1300
230A00
320E00
144C00
0F9B00
F031C0
80C040
ENDCHAR
STARTCHAR 2FCF
ENCODING 12239
SWIDTH 1000 0
DWIDTH 20 0
BBX 18 18 1 -1
BITMAP
010000
078100
383F00
210100
3FBF00
200100
200100
3FFE00
30C300
36BA00
328A00
308200
36BA00
328A40
308140
3EB980
F1C1C0
8100C0
ENDCHAR
STARTCHAR 2FD0
ENCODING 12240
SWIDTH 1000 0
DWIDTH 20 0
BBX 18 19 1 -2
BITMAP
00C000
008400
0FFE00
080400
0FFC00
0FFC00
080400
0FFC00
000100
3FFF00
208100
3FFF00
3FFF00
021000
FFFFC0
041000
041000
181000
601000
ENDCHAR
STARTCHAR 2FD1
ENCODING 12241
SWIDTH 1000 0
DWIDTH 20 0
BBX 18 17 1 -1
BITMAP
00C000
008080
7F7F00
012180
3FCE00
14CA00
248900
248B80
4C94C0
880300
080200
0FFE00
080200
180200
17FE00
100200
600200
ENDCHAR
STARTCHAR 2FD2
ENCODING 12242
SWIDTH 1000 0
DWIDTH 20 0
BBX 18 17 1 -1
BITMAP
006000
0C4300
087C00
084080
FFFFC0
001000
261980
273900
29A500
304100
3FFF00
221100
261900
261900
292500
30C500
2F3B00
ENDCHAR
STARTCHAR 2FD3
ENCODING 12243
SWIDTH 1000 0
DWIDTH 20 0
BBX 18 17 1 0
BITMAP
086000
096080
FF7F00
426000
247F80
246100
FFC100
427F00
7F6000
427F00
7E6200
427F00
426000
7E7F40
426040
4260C0
463FC0
ENDCHAR
STARTCHAR 2FD4
ENCODING 12244
SWIDTH 1000 0
DWIDTH 20 0
BBX 18 19 1 -2
BITMAP
060000
040000
0FE000
184000
3FFF00
512200
1F3E00
012000
7D2000
092100
7FFF00
793500
012D00
393100
FFFF40
092140
792040
09A1C0
01FFC0
ENDCHAR
STARTCHAR 2FD5
ENCODING 12245
SWIDTH 1000 0
DWIDTH 20 0
BBX 17 17 2 -1
BITMAP
018000
03C000
043000
181C00
33C780
C84080
7BDE00
4A5200
7BDE00
000200
7FFF00
446200
446200
7FFE00
446200
446200
446E00
ENDCHAR
STARTCHAR 2FF0
ENCODING 12272
SWIDTH 1000 0
DWIDTH 20 0
BBX 16 15 2 0
BITMAP
D7AB
8001
8001
0000
8001
0000
8101
0000
8001
0000
8001
8001
0000
8001
1020
ENDCHAR
STARTCHAR 2FF1
ENCODING 12273
SWIDTH 1000 0
DWIDTH 20 0
BBX 16 15 2 0
BITMAP
D7AB
8001
8001
0000
8001
0000
8001
2B54
8001
0000
8001
8001
0000
8001
1028
ENDCHAR
STARTCHAR 2FF2
ENCODING 12274
SWIDTH 1000 0
DWIDTH 20 0
BBX 16 15 2 0
BITMAP
D7AB
0401
8421
0000
8421
0000
8421
0000
8421
8020
8421
8421
0000
8421
1028
ENDCHAR
STARTCHAR 2FF3
ENCODING 12275
SWIDTH 1000 0
DWIDTH 20 0
BBX 16 15 2 0
BITMAP
D7AB
8000
8001
0000
8001
2B54
8001
0000
8001
0001
AB55
8001
0000
8001
1028
ENDCHAR
STARTCHAR 2FF4
ENCODING 12276
SWIDTH 1000 0
DWIDTH 20 0
BBX 15 15 3 0
BITMAP
AD5E
0000
0002
16B0
9012
1010
9012
0000
1012
0002
1012
0002
0080
8002
A140
ENDCHAR
STARTCHAR 2FF5
ENCODING 12277
SWIDTH 1000 0
DWIDTH 20 0
BBX 16 15 2 0
BITMAP
D7AB
8001
8001
0000
87F1
0010
8001
0010
8001
0010
8001
8011
0000
8011
1028
ENDCHAR
STARTCHAR 2FF6
ENCODING 12278
SWIDTH 1000 0
DWIDTH 20 0
BBX 15 15 3 0
BITMAP
AD56
0022
0022
0020
0022
0000
0022
0000
1022
0000
0022
0002
0000
0002
2040
ENDCHAR
STARTCHAR 2FF7
ENCODING 12279
SWIDTH 1000 0
DWIDTH 20 0
BBX 16 15 2 0
BITMAP
D5AB
8000
8001
0000
87AD
0000
8001
0000
8001
0001
8001
8001
0000
8001
1028
ENDCHAR
STARTCHAR 2FF8
ENCODING 12280
SWIDTH 1000 0
DWIDTH 20 0
BBX 16 15 2 0
BITMAP
D5AB
0001
8001
0000
86AD
0000
8001
0000
8001
8000
8001
8001
0000
8001
1028
ENDCHAR
STARTCHAR 2FF9
ENCODING 12281
SWIDTH 1000 0
DWIDTH 20 0
BBX 16 15 2 0
BITMAP
D5AB
8001
8001
0000
EAA1
0000
8001
0000
8001
0000
8001
8001
0000
8001
1028
ENDCHAR
STARTCHAR 2FFA
ENCODING 12282
SWIDTH 1000 0
DWIDTH 20 0
BBX 15 15 3 0
BITMAP
AD5E
0002
0002
1000
0002
1000
8002
0000
0002
0000
0002
0002
0000
0002
A954
ENDCHAR
STARTCHAR 2FFB
ENCODING 12283
SWIDTH 1000 0
DWIDTH 20 0
BBX 14 15 3 0
BITMAP
D5A0
0020
0020
0020
1B20
1020
1020
0020
1020
0004
1020
F5A4
1000
1004
1000
ENDCHAR
STARTCHAR 3000
ENCODING 12288
SWIDTH 1000 0
DWIDTH 20 0
BBX 0 0 0 0
BITMAP
ENDCHAR
STARTCHAR 3001
ENCODING 12289
SWIDTH 1000 0
DWIDTH 20 0
BBX 5 4 1 -1
BITMAP
C0
20
30
18
ENDCHAR
STARTCHAR 3002
ENCODING 12290
SWIDTH 1000 0
DWIDTH 20 0
BBX 5 5 1 -2
BITMAP
70
88
88
88
70
ENDCHAR
STARTCHAR 3003
ENCODING 12291
SWIDTH 1000 0
DWIDTH 20 0
BBX 9 9 5 4
BITMAP
1980
1100
1300
3300
2200
2200
4400
8800
8800
ENDCHAR
STARTCHAR 3004
ENCODING 12292
SWIDTH 1000 0
DWIDTH 20 0
BBX 18 19 1 -2
BITMAP
038000
0C0C00
101200
201100
401080
801080
805040
807040
808040
808040
878040
848040
880040
440080
420080
210100
110200
0E1C00
006000
ENDCHAR
STARTCHAR 3005
ENCODING 12293
SWIDTH 1000 0
DWIDTH 20 0
BBX 12 12 3 2
BITMAP
0600
0600
0400
0C30
0BF0
1020
2040
4080
8F00
0180
00C0
0040
ENDCHAR
STARTCHAR 3006
ENCODING 12294
SWIDTH 1000 0
DWIDTH 20 0
BBX 14 15 3 0
BITMAP
0018
000C
0010
0020
0C40
1280
2100
2280
2480
4440
4840
5000
6000
E000
4000
ENDCHAR
STARTCHAR 3007
ENCODING 12295
SWIDTH 1000 0
DWIDTH 20 0
BBX 16 16 2 0
BITMAP
03E0
0C18
1004
6002
4002
8001
8001
8001
8001
8001
8001
4002
4002
3004
1818
07E0
ENDCHAR
STARTCHAR 3008
ENCODING 12296
SWIDTH 1000 0
DWIDTH 20 0
BBX 8 18 11 -1
BITMAP
01
02
04
04
08
10
20
20
40
80
40
20
20
10
08
04
04
02
ENDCHAR
STARTCHAR 3009
ENCODING 12297
SWIDTH 1000 0
DWIDTH 20 0
BBX 8 18 1 -1
BITMAP
80
40
20
20
10
08
04
04
02
01
02
04
04
08
10
20
20
40
ENDCHAR
STARTCHAR 300A
ENCODING 12298
SWIDTH 1000 0
DWIDTH 20 0
BBX 8 18 11 -1
BITMAP
05
09
0A
14
24
28
48
50
90
A0
90
50
48
28
24
12
0A
09
ENDCHAR
STARTCHAR 300B
ENCODING 12299
SWIDTH 1000 0
DWIDTH 20 0
BBX 8 18 1 -1
BITMAP
A0
90
50
48
24
14
12
0A
09
05
09
0A
12
24
28
48
50
90
ENDCHAR
STARTCHAR 300C
ENCODING 12300
SWIDTH 1000 0
DWIDTH 20 0
BBX 5 15 13 2
BITMAP
F8
80
80
80
80
80
80
80
80
80
80
80
80
80
80
ENDCHAR
STARTCHAR 300D
ENCODING 12301
SWIDTH 1000 0
DWIDTH 20 0
BBX 5 15 2 -1
BITMAP
08
08
08
08
08
08
08
08
08
08
08
08
08
08
F8
ENDCHAR
STARTCHAR 300E
ENCODING 12302
SWIDTH 1000 0
DWIDTH 20 0
BBX 6 15 12 2
BITMAP
FC
84
84
BC
A0
A0
A0
A0
A0
A0
A0
A0
A0
A0
E0
ENDCHAR
STARTCHAR 300F
ENCODING 12303
SWIDTH 1000 0
DWIDTH 20 0
BBX 6 14 2 -1
BITMAP
1C
14
14
14
14
14
14
14
14
14
14
F4
84
FC
ENDCHAR
STARTCHAR 3010
ENCODING 12304
SWIDTH 1000 0
DWIDTH 20 0
BBX 4 18 14 -1
BITMAP
F0
E0
C0
C0
C0
80
80
80
80
80
80
80
80
C0
C0
C0
E0
F0
ENDCHAR
STARTCHAR 3011
ENCODING 12305
SWIDTH 1000 0
DWIDTH 20 0
BBX 4 18 2 -1
BITMAP
F0
70
30
30
30
10
10
10
10
10
10
10
10
10
30
30
70
F0
ENDCHAR
STARTCHAR 3012
ENCODING 12306
SWIDTH 1000 0
DWIDTH 20 0
BBX 14 16 3 -1
BITMAP
FFFC
FFFC
0000
0000
0000
FFFC
FFFC
0300
0300
0300
0300
0300
0300
0300
0300
0300
ENDCHAR
STARTCHAR 3013
ENCODING 12307
SWIDTH 1000 0
DWIDTH 20 0
BBX 14 9 3 3
BITMAP
FFFC
FFFC
FFFC
0000
0000
0000
FFFC
FFFC
FFFC
ENDCHAR
STARTCHAR 3014
ENCODING 12308
SWIDTH 1000 0
DWIDTH 20 0
BBX 4 17 14 -1
BITMAP
30
C0
80
80
80
80
80
80
80
80
80
80
80
80
80
C0
30
ENDCHAR
STARTCHAR 3015
ENCODING 12309
SWIDTH 1000 0
DWIDTH 20 0
BBX 4 17 2 -1
BITMAP
C0
30
10
10
10
10
10
10
10
10
10
10
10
10
10
30
C0
ENDCHAR
STARTCHAR 3016
ENCODING 12310
SWIDTH 1000 0
DWIDTH 20 0
BBX 5 18 13 -1
BITMAP
F8
90
A0
A0
C0
C0
C0
C0
C0
C0
C0
C0
C0
A0
A0
A0
90
F8
ENDCHAR
STARTCHAR 3017
ENCODING 12311
SWIDTH 1000 0
DWIDTH 20 0
BBX 5 18 2 -1
BITMAP
F8
88
48
28
28
28
18
18
18
18
18
18
28
28
28
48
88
F8
ENDCHAR
STARTCHAR 3018
ENCODING 12312
SWIDTH 1000 0
DWIDTH 20 0
BBX 5 17 13 -1
BITMAP
18
68
88
B0
A0
A0
A0
A0
A0
A0
A0
A0
A0
B0
88
48
38
ENDCHAR
STARTCHAR 3019
ENCODING 12313
SWIDTH 1000 0
DWIDTH 20 0
BBX 5 17 2 -1
BITMAP
C0
B0
88
68
28
28
28
28
28
28
28
28
28
68
88
90
E0
ENDCHAR
STARTCHAR 301C
ENCODING 12316
SWIDTH 1000 0
DWIDTH 20 0
BBX 16 5 2 5
BITMAP
1C00
6300
8181
00C6
0038
ENDCHAR
STARTCHAR 301D
ENCODING 12317
SWIDTH 1000 0
DWIDTH 20 0
BBX 6 7 13 10
BITMAP
C0
30
08
C4
60
10
08
ENDCHAR
STARTCHAR 301F
ENCODING 12319
SWIDTH 1000 0
DWIDTH 20 0
BBX 6 7 1 -1
BITMAP
40
20
18
88
60
10
0C
ENDCHAR
STARTCHAR 3020
ENCODING 12320
SWIDTH 1000 0
DWIDTH 20 0
BBX 18 13 1 1
BITMAP
3FFF00
3FFF00
000000
3FFF00
3FFF00
00C000
88C440
94CA40
8CCC40
44C880
241100
122200
0FFC00
ENDCHAR
STARTCHAR 3033
ENCODING 12339
SWIDTH 1000 0
DWIDTH 20 0
BBX 6 16 6 -1
BITMAP
08
0C
0C
0C
08
18
10
30
20
20
40
40
80
80
80
80
ENDCHAR
STARTCHAR 3034
ENCODING 12340
SWIDTH 1000 0
DWIDTH 20 0
BBX 11 16 6 -1
BITMAP
0800
0C00
0C00
0C00
0800
1800
1000
3000
2080
2040
4360
4180
8000
8000
8000
8000
ENDCHAR
STARTCHAR 3035
ENCODING 12341
SWIDTH 1000 0
DWIDTH 20 0
BBX 7 17 6 1
BITMAP
80
80
80
40
40
20
30
10
18
08
0C
04
06
06
06
02
02
ENDCHAR
STARTCHAR 3036
ENCODING 12342
SWIDTH 1000 0
DWIDTH 20 0
BBX 18 19 1 -2
BITMAP
03F000
0C0C00
100200
200100
400080
9FFE40
9FFE40
800040
9FFE40
9FFE40
80C040
80C040
80C040
80C040
40C080
20C100
100200
0C0C00
03F000
ENDCHAR
STARTCHAR 303B
ENCODING 12347
SWIDTH 1000 0
DWIDTH 20 0
BBX 8 13 6 1
BITMAP
20
20
18
0C
18
20
20
30
1C
07
18
60
80
ENDCHAR
STARTCHAR 303C
ENCODING 12348
SWIDTH 1000 0
DWIDTH 20 0
BBX 17 17 2 -1
BITMAP
FFFF80
000380
000680
000C80
001880
003080
006080
00C080
018080
030080
060080
0C0080
180080
300080
600080
C00080
FFFF80
ENDCHAR
STARTCHAR 303D
ENCODING 12349
SWIDTH 1000 0
DWIDTH 20 0
BBX 14 17 4 -1
BITMAP
6000
A300
1500
0880
0080
0080
0040
0040
0040
0020
0020
0020
0010
0010
0018
0008
000C
ENDCHAR
STARTCHAR 3041
ENCODING 12353
SWIDTH 1000 0
DWIDTH 20 0
BBX 12 13 4 0
BITMAP
0C00
0880
7F00
0800
0900
0FE0
3910
4A10
8C10
8810
9820
E4C0
0300
ENDCHAR
STARTCHAR 3042
ENCODING 12354
SWIDTH 1000 0
DWIDTH 20 0
BBX 16 17 2 -1
BITMAP
0600
0200
0230
42E0
3F00
0240
0460
07FC
1C46
34C2
6483
4303
4202
CE06
720C
0030
00C0
ENDCHAR
STARTCHAR 3043
ENCODING 12355
SWIDTH 1000 0
DWIDTH 20 0
BBX 12 10 4 1
BITMAP
C000
4040
4020
4030
4010
4810
4810
5000
3000
1000
ENDCHAR
STARTCHAR 3044
ENCODING 12356
SWIDTH 1000 0
DWIDTH 20 0
BBX 16 14 2 0
BITMAP
8000
4000
6010
4008
4004
4006
4002
4203
2201
2601
3400
3C00
1C00
0C00
ENDCHAR
STARTCHAR 3045
ENCODING 12357
SWIDTH 1000 0
DWIDTH 20 0
BBX 9 13 5 0
BITMAP
1800
0F00
1000
0E00
B100
6080
0080
0080
0080
0100
0300
0400
3800
ENDCHAR
STARTCHAR 3046
ENCODING 12358
SWIDTH 1000 0
DWIDTH 20 0
BBX 10 17 5 -1
BITMAP
2000
1E00
0F00
1000
0000
0F00
F080
C0C0
0040
0040
0040
00C0
0080
0180
0300
0C00
3000
ENDCHAR
STARTCHAR 3047
ENCODING 12359
SWIDTH 1000 0
DWIDTH 20 0
BBX 12 12 4 1
BITMAP
0800
0780
0000
4380
3D80
0200
0400
0E00
1900
2100
4100
C0F0
ENDCHAR
STARTCHAR 3048
ENCODING 12360
SWIDTH 1000 0
DWIDTH 20 0
BBX 15 16 3 0
BITMAP
0800
0600
03C0
0400
0040
47E0
38C0
0180
0200
0400
0B80
1C80
3080
6080
C040
807E
ENDCHAR
STARTCHAR 3049
ENCODING 12361
SWIDTH 1000 0
DWIDTH 20 0
BBX 13 12 4 0
BITMAP
1000
1040
1630
FC10
1018
1000
17C0
3820
5030
9030
D060
33C0
ENDCHAR
STARTCHAR 304A
ENCODING 12362
SWIDTH 1000 0
DWIDTH 20 0
BBX 15 15 3 0
BITMAP
1800
1830
180C
1706
FC02
1000
1000
11F0
1E18
300C
5004
900C
9018
51F0
3000
ENDCHAR
STARTCHAR 304B
ENCODING 12363
SWIDTH 1000 0
DWIDTH 20 0
BBX 17 16 2 0
BITMAP
040000
060000
020000
040000
040800
8F8600
F84200
084100
084100
104F80
104180
204000
20C000
648000
438000
430000
ENDCHAR
STARTCHAR 304C
ENCODING 12364
SWIDTH 1000 0
DWIDTH 20 0
BBX 17 17 2 0
BITMAP
000300
040080
060680
020300
040000
040800
8F8600
F84200
084100
084100
104F80
104180
204000
20C000
648000
438000
C30000
ENDCHAR
STARTCHAR 304D
ENCODING 12365
SWIDTH 1000 0
DWIDTH 20 0
BBX 13 16 4 0
BITMAP
1800
0C00
04E0
8300
7E00
0218
81E0
7F80
0080
0040
3FC0
4060
8000
4000
6000
1FC0
ENDCHAR
STARTCHAR 304E
ENCODING 12366
SWIDTH 1000 0
DWIDTH 20 0
BBX 15 18 4 -1
BITMAP
0004
3812
080A
04CC
0700
FC00
0230
02E0
FF00
0080
0080
0040
3FC0
C040
8000
8000
60C0
1FC0
ENDCHAR
STARTCHAR 304F
ENCODING 12367
SWIDTH 1000 0
DWIDTH 20 0
BBX 9 17 5 -1
BITMAP
0200
0300
0600
0C00
1800
2000
4000
8000
8000
4000
3000
1800
0400
0600
0300
0180
0080
ENDCHAR
STARTCHAR 3050
ENCODING 12368
SWIDTH 1000 0
DWIDTH 20 0
BBX 13 17 5 -1
BITMAP
0200
0300
0600
0C20
1890
2058
4020
8000
8000
4000
3000
1800
0C00
0600
0300
0180
0080
ENDCHAR
STARTCHAR 3051
ENCODING 12369
SWIDTH 1000 0
DWIDTH 20 0
BBX 15 17 3 -1
BITMAP
0060
4030
6030
6010
4016
443C
43D0
8010
8010
8010
A010
A030
A020
4020
4040
4080
0100
ENDCHAR
STARTCHAR 3052
ENCODING 12370
SWIDTH 1000 0
DWIDTH 20 0
BBX 17 18 3 -1
BITMAP
000300
006580
402680
403200
403000
403600
443C00
43D000
801000
801000
801000
A03000
A02000
A02000
C06000
404000
408000
010000
ENDCHAR
STARTCHAR 3053
ENCODING 12371
SWIDTH 1000 0
DWIDTH 20 0
BBX 12 13 4 1
BITMAP
21C0
1F00
0400
0800
0000
0000
0000
0000
0000
8000
8000
6030
1FF0
ENDCHAR
STARTCHAR 3054
ENCODING 12372
SWIDTH 1000 0
DWIDTH 20 0
BBX 15 16 4 1
BITMAP
000C
0006
001A
21C8
1F00
0400
0800
0000
0000
0000
0000
0000
8000
8000
6030
1FE0
ENDCHAR
STARTCHAR 3055
ENCODING 12373
SWIDTH 1000 0
DWIDTH 20 0
BBX 12 16 4 0
BITMAP
0C00
0400
0600
0270
03C0
FF00
0100
0080
0080
3F40
40E0
8020
8000
4000
2000
1FC0
ENDCHAR
STARTCHAR 3056
ENCODING 12374
SWIDTH 1000 0
DWIDTH 20 0
BBX 17 17 3 0
BITMAP
000300
0C0980
060480
020200
023800
01E000
FF0000
008000
008000
004000
3F4000
40E000
402000
800000
400000
300000
0FE000
ENDCHAR
STARTCHAR 3057
ENCODING 12375
SWIDTH 1000 0
DWIDTH 20 0
BBX 12 15 5 1
BITMAP
C000
C000
C000
C000
C000
C000
8000
8000
8010
8010
8020
8020
C0C0
4180
3E00
ENDCHAR
STARTCHAR 3058
ENCODING 12376
SWIDTH 1000 0
DWIDTH 20 0
BBX 12 15 5 1
BITMAP
C000
C080
C240
C120
C080
C000
8000
8000
8010
8010
8020
8020
C0C0
4180
3E00
ENDCHAR
STARTCHAR 3059
ENCODING 12377
SWIDTH 1000 0
DWIDTH 20 0
BBX 17 17 2 -1
BITMAP
00C000
00C000
00C000
00FF80
8F8000
F08000
008000
038000
04C000
084000
04C000
07C000
004000
008000
018000
030000
0C0000
ENDCHAR
STARTCHAR 305A
ENCODING 12378
SWIDTH 1000 0
DWIDTH 20 0
BBX 17 18 2 -1
BITMAP
000300
00CC80
00C680
00C200
00FF00
8F8180
F08000
008000
038000
04C000
08C000
08C000
04C000
074000
008000
018000
030000
0C0000
ENDCHAR
STARTCHAR 305B
ENCODING 12379
SWIDTH 1000 0
DWIDTH 20 0
BBX 18 16 1 0
BITMAP
001000
000C00
1C0800
040800
040800
040FC0
07F8C0
FC0800
040800
040800
047800
041000
040000
040000
020600
01FE00
ENDCHAR
STARTCHAR 305C
ENCODING 12380
SWIDTH 1000 0
DWIDTH 20 0
BBX 19 17 1 0
BITMAP
0000C0
000260
0019A0
180880
040800
040800
040BC0
07FCC0
FC0800
040800
041800
047800
041000
040000
040000
060600
01FE00
ENDCHAR
STARTCHAR 305D
ENCODING 12381
SWIDTH 1000 0
DWIDTH 20 0
BBX 15 16 2 -1
BITMAP
1070
0FB0
0040
0180
0300
041E
09E2
9E80
6100
0200
0200
0200
0200
0100
00F8
0078
ENDCHAR
STARTCHAR 305E
ENCODING 12382
SWIDTH 1000 0
DWIDTH 20 0
BBX 17 18 2 -1
BITMAP
000200
000180
006480
1FF200
00C200
018000
030000
041E00
09E200
9E8000
610000
020000
020000
020000
020000
030000
01F000
00F800
ENDCHAR
STARTCHAR 305F
ENCODING 12383
SWIDTH 1000 0
DWIDTH 20 0
BBX 16 16 2 0
BITMAP
0600
0200
0200
04C0
8780
7C00
083E
08F8
0810
1020
1000
2000
2100
6100
4083
407F
ENDCHAR
STARTCHAR 3060
ENCODING 12384
SWIDTH 1000 0
DWIDTH 20 0
BBX 17 16 2 0
BITMAP
040200
020980
020680
040200
85C000
7E0000
080000
087E00
089000
102000
100000
300000
200000
610000
408000
407F00
ENDCHAR
STARTCHAR 3061
ENCODING 12385
SWIDTH 1000 0
DWIDTH 20 0
BBX 14 16 3 0
BITMAP
1800
0C00
0800
09C0
FF00
1000
1000
1000
11F0
2608
380C
300C
200C
0018
0030
07C0
ENDCHAR
STARTCHAR 3062
ENCODING 12386
SWIDTH 1000 0
DWIDTH 20 0
BBX 16 17 2 -1
BITMAP
0806
0619
040C
0464
87C0
7C00
0800
0800
0800
11F8
1704
1806
1006
0004
0008
0070
0380
ENDCHAR
STARTCHAR 3063
ENCODING 12387
SWIDTH 1000 0
DWIDTH 20 0
BBX 13 9 3 0
BITMAP
03E0
9C10
7008
0008
0008
0018
0030
00E0
0700
ENDCHAR
STARTCHAR 3064
ENCODING 12388
SWIDTH 1000 0
DWIDTH 20 0
BBX 16 12 2 1
BITMAP
01F8
1F04
F802
6003
0003
0003
0002
0006
000C
0018
00E0
0700
ENDCHAR
STARTCHAR 3065
ENCODING 12389
SWIDTH 1000 0
DWIDTH 20 0
BBX 17 15 2 2
BITMAP
000180
000480
000200
000300
01F800
1E0E00
F80200
600200
000200
000200
000200
000400
000800
007000
078000
ENDCHAR
STARTCHAR 3066
ENCODING 12390
SWIDTH 1000 0
DWIDTH 20 0
BBX 15 14 2 0
BITMAP
003E
87E0
F880
0100
0300
0200
0200
0200
0200
0200
0200
0200
0108
00FC
ENDCHAR
STARTCHAR 3067
ENCODING 12391
SWIDTH 1000 0
DWIDTH 20 0
BBX 17 14 2 0
BITMAP
001E00
01E000
8EC000
710200
010900
020580
020600
020000
020000
020000
020000
030000
018800
007C00
ENDCHAR
STARTCHAR 3068
ENCODING 12392
SWIDTH 1000 0
DWIDTH 20 0
BBX 12 15 4 0
BITMAP
3000
1000
1000
1060
10E0
09C0
0E00
1800
3000
4000
4000
8000
8000
4070
3FF0
ENDCHAR
STARTCHAR 3069
ENCODING 12393
SWIDTH 1000 0
DWIDTH 20 0
BBX 15 16 4 1
BITMAP
000C
7032
1018
1008
1040
1060
11C0
0E00
1800
3000
4000
8000
8000
8000
4070
3FF0
ENDCHAR
STARTCHAR 306A
ENCODING 12394
SWIDTH 1000 0
DWIDTH 20 0
BBX 16 16 2 0
BITMAP
0C00
0600
0400
0580
7E0C
0803
0805
1020
1020
2020
6020
4020
C3F0
042C
0426
03E3
ENDCHAR
STARTCHAR 306B
ENCODING 12395
SWIDTH 1000 0
DWIDTH 20 0
BBX 14 14 3 1
BITMAP
4000
63F8
4040
4080
8000
8000
8000
A000
A000
A400
C400
C20C
C1FC
4000
ENDCHAR
STARTCHAR 306C
ENCODING 12396
SWIDTH 1000 0
DWIDTH 20 0
BBX 17 16 2 0
BITMAP
010000
008000
008000
208000
21F000
278C00
390600
310200
710200
5A0300
8A0300
8C7A00
8E4600
9A8700
604580
003800
ENDCHAR
STARTCHAR 306D
ENCODING 12397
SWIDTH 1000 0
DWIDTH 20 0
BBX 17 17 2 -1
BITMAP
180000
0C0000
080000
080000
8C7800
7D8400
0A0600
0C0200
180200
280200
280200
487A00
888600
A88700
187980
080080
080000
ENDCHAR
STARTCHAR 306E
ENCODING 12398
SWIDTH 1000 0
DWIDTH 20 0
BBX 16 14 2 0
BITMAP
07F0
1918
3104
6102
4102
C203
8203
8203
8403
CC02
4806
300C
0030
00C0
ENDCHAR
STARTCHAR 306F
ENCODING 12399
SWIDTH 1000 0
DWIDTH 20 0
BBX 16 15 3 0
BITMAP
4060
6020
4020
4026
47FC
8020
8020
8020
8020
A020
C3E0
C438
C426
C423
43C0
ENDCHAR
STARTCHAR 3070
ENCODING 12400
SWIDTH 1000 0
DWIDTH 20 0
BBX 17 18 3 -1
BITMAP
000300
000980
806680
402200
402000
402000
883C00
87E000
802000
802000
802000
A02000
C02000
C3F000
C42C00
842200
83C000
800000
ENDCHAR
STARTCHAR 3071
ENCODING 12401
SWIDTH 1000 0
DWIDTH 20 0
BBX 16 17 3 0
BITMAP
0007
0009
4069
4027
4020
4026
883C
87E0
8020
8020
8020
A020
C3E0
C438
C42E
8422
C3C0
ENDCHAR
STARTCHAR 3072
ENCODING 12402
SWIDTH 1000 0
DWIDTH 20 0
BBX 16 15 2 0
BITMAP
0030
0210
8C10
7818
1818
1014
2012
2013
2011
6010
2010
2010
2020
1060
0F80
ENDCHAR
STARTCHAR 3073
ENCODING 12403
SWIDTH 1000 0
DWIDTH 20 0
BBX 18 17 2 0
BITMAP
000100
000480
0032C0
061300
8E1000
781800
181800
101400
201200
201300
201100
601000
601000
201000
203000
106000
0F8000
ENDCHAR
STARTCHAR 3074
ENCODING 12404
SWIDTH 1000 0
DWIDTH 20 0
BBX 17 17 2 0
BITMAP
000380
000480
003480
061380
8E1000
781800
181800
101400
201200
201300
201100
601000
601000
201000
203000
106000
0F8000
ENDCHAR
STARTCHAR 3075
ENCODING 12405
SWIDTH 1000 0
DWIDTH 20 0
BBX 18 15 1 0
BITMAP
010000
00E000
003800
004000
008000
010000
010000
008000
00C600
046100
183180
F010C0
6010C0
061000
01E000
ENDCHAR
STARTCHAR 3076
ENCODING 12406
SWIDTH 1000 0
DWIDTH 20 0
BBX 18 16 1 0
BITMAP
000100
0100C0
00E240
003900
004100
008000
010000
010000
008000
00C600
046100
183180
F010C0
6010C0
063000
01E000
ENDCHAR
STARTCHAR 3077
ENCODING 12407
SWIDTH 1000 0
DWIDTH 20 0
BBX 18 15 1 0
BITMAP
010380
00E480
003C80
004380
008000
010000
010000
008000
00C600
046100
183180
F010C0
6010C0
043000
03E000
ENDCHAR
STARTCHAR 3078
ENCODING 12408
SWIDTH 1000 0
DWIDTH 20 0
BBX 16 9 2 3
BITMAP
0600
0D00
1880
1060
2030
E018
400C
0007
0001
ENDCHAR
STARTCHAR 3079
ENCODING 12409
SWIDTH 1000 0
DWIDTH 20 0
BBX 16 13 2 2
BITMAP
0008
0006
0032
0008
0600
0D80
18C0
1060
2010
C00C
4006
0003
0001
ENDCHAR
STARTCHAR 307A
ENCODING 12410
SWIDTH 1000 0
DWIDTH 20 0
BBX 16 11 2 3
BITMAP
001C
0022
061C
0D00
1880
1060
2030
E018
C00E
0007
0003
ENDCHAR
STARTCHAR 307B
ENCODING 12411
SWIDTH 1000 0
DWIDTH 20 0
BBX 15 15 3 0
BITMAP
401C
47F8
4020
4020
4020
843E
83F0
8020
8020
A020
C3E0
C438
C82E
8422
43C0
ENDCHAR
STARTCHAR 307C
ENCODING 12412
SWIDTH 1000 0
DWIDTH 20 0
BBX 18 18 2 -1
BITMAP
000180
000640
400300
221D00
23F000
201000
401000
441700
43FC00
401000
801000
901000
A01000
A3F800
641E00
443300
43E000
400000
ENDCHAR
STARTCHAR 307D
ENCODING 12413
SWIDTH 1000 0
DWIDTH 20 0
BBX 18 18 2 -1
BITMAP
000180
000240
400240
221980
23F000
201000
401000
441700
43FC00
401000
801000
901000
A01000
A3F800
441600
443300
43E000
400000
ENDCHAR
STARTCHAR 307E
ENCODING 12414
SWIDTH 1000 0
DWIDTH 20 0
BBX 12 17 4 -1
BITMAP
0C00
0600
0600
0270
FF80
0200
0200
82F0
7F00
0200
0200
0200
7F00
82C0
8230
8610
7C00
ENDCHAR
STARTCHAR 307F
ENCODING 12415
SWIDTH 1000 0
DWIDTH 20 0
BBX 17 16 2 -1
BITMAP
008000
1FC000
008000
010000
010800
030400
020400
3F8400
447C00
880C00
880F00
901B80
E01080
002000
00C000
010000
ENDCHAR
STARTCHAR 3080
ENCODING 12416
SWIDTH 1000 0
DWIDTH 20 0
BBX 16 16 2 0
BITMAP
1800
0C00
0800
8988
7E06
0803
0801
380F
4801
8800
8808
9808
7008
100C
101C
0FF0
ENDCHAR
STARTCHAR 3081
ENCODING 12417
SWIDTH 1000 0
DWIDTH 20 0
BBX 16 16 2 0
BITMAP
0180
00C0
20C0
2080
11F8
1E8C
1186
3102
5103
4A03
8E03
8403
8B02
9004
6018
00E0
ENDCHAR
STARTCHAR 3082
ENCODING 12418
SWIDTH 1000 0
DWIDTH 20 0
BBX 13 17 3 -1
BITMAP
0C00
0400
0400
0400
8D80
7E00
0800
0800
8800
7F90
1008
1008
1008
1008
0818
0830
07C0
ENDCHAR
STARTCHAR 3083
ENCODING 12419
SWIDTH 1000 0
DWIDTH 20 0
BBX 14 13 3 0
BITMAP
0380
1080
10F0
0B08
0C0C
B80C
4408
04F0
0200
0200
0200
0100
0100
ENDCHAR
STARTCHAR 3084
ENCODING 12420
SWIDTH 1000 0
DWIDTH 20 0
BBX 16 17 2 -1
BITMAP
0300
00C0
3040
1000
087E
0B83
0C01
3401
C403
027C
0200
0300
0100
0100
0180
0080
0080
ENDCHAR
STARTCHAR 3085
ENCODING 12421
SWIDTH 1000 0
DWIDTH 20 0
BBX 12 14 4 -1
BITMAP
0700
0100
C100
47E0
8910
9110
A110
A110
C110
C920
47C0
0200
0400
0800
ENDCHAR
STARTCHAR 3086
ENCODING 12422
SWIDTH 1000 0
DWIDTH 20 0
BBX 15 17 3 -1
BITMAP
0380
0080
8080
C1F0
868C
8884
9086
9082
A082
C086
C084
C48C
C3B8
4140
0100
0200
0400
ENDCHAR
STARTCHAR 3087
ENCODING 12423
SWIDTH 1000 0
DWIDTH 20 0
BBX 10 13 5 -1
BITMAP
0C00
0C00
0800
09C0
0E00
0800
0400
0400
0400
7F00
85C0
8C40
7800
ENDCHAR
STARTCHAR 3088
ENCODING 12424
SWIDTH 1000 0
DWIDTH 20 0
BBX 13 16 4 0
BITMAP
0C00
0600
0600
0400
0430
07F0
0400
0400
0400
0600
0200
0200
7F80
82E0
8630
7C18
ENDCHAR
STARTCHAR 3089
ENCODING 12425
SWIDTH 1000 0
DWIDTH 20 0
BBX 11 17 5 -1
BITMAP
2000
1000
0E00
1300
0000
8000
8000
8000
87C0
9860
E020
C020
8020
0060
00C0
0700
1800
ENDCHAR
STARTCHAR 308A
ENCODING 12426
SWIDTH 1000 0
DWIDTH 20 0
BBX 9 17 6 -1
BITMAP
8000
C000
CE00
9300
A100
A100
C100
C100
C180
8100
8100
8100
0300
0600
0C00
1800
6000
ENDCHAR
STARTCHAR 308B
ENCODING 12427
SWIDTH 1000 0
DWIDTH 20 0
BBX 13 15 3 0
BITMAP
21C0
1EC0
0180
0300
0600
0C00
1BE0
3C10
7008
C008
8008
0E08
1318
11B0
0FC0
ENDCHAR
STARTCHAR 308C
ENCODING 12428
SWIDTH 1000 0
DWIDTH 20 0
BBX 17 17 2 -1
BITMAP
180000
0C0000
080000
083800
8CC800
FD0C00
0A0C00
0C0800
180800
280800
680880
480880
880880
A80900
180600
080000
080000
ENDCHAR
STARTCHAR 308D
ENCODING 12429
SWIDTH 1000 0
DWIDTH 20 0
BBX 14 15 3 0
BITMAP
00C0
23C0
1D80
0300
0600
0C00
1BE0
3C18
7008
C00C
800C
0008
0018
0030
07C0
ENDCHAR
STARTCHAR 308E
ENCODING 12430
SWIDTH 1000 0
DWIDTH 20 0
BBX 13 13 3 -1
BITMAP
0800
0800
0800
1DF0
6A18
0C08
1808
2808
4808
E818
1870
1980
0800
ENDCHAR
STARTCHAR 308F
ENCODING 12431
SWIDTH 1000 0
DWIDTH 20 0
BBX 16 16 2 0
BITMAP
1800
0C00
0C00
0800
0C00
9C7C
6986
0E03
1801
1801
2801
4803
E806
980C
0870
0800
ENDCHAR
STARTCHAR 3090
ENCODING 12432
SWIDTH 1000 0
DWIDTH 20 0
BBX 16 16 2 -1
BITMAP
11C0
0EC0
0080
0080
0180
01F8
070C
1B02
2203
6201
4401
C4E3
8892
910E
608C
0070
ENDCHAR
STARTCHAR 3091
ENCODING 12433
SWIDTH 1000 0
DWIDTH 20 0
BBX 16 16 2 -1
BITMAP
10E0
0FC0
0100
0200
0DF0
1E08
3708
2888
04B0
03C0
0400
081C
3C66
6243
C181
8181
ENDCHAR
STARTCHAR 3092
ENCODING 12434
SWIDTH 1000 0
DWIDTH 20 0
BBX 14 17 3 -1
BITMAP
0600
0200
0600
85C0
7E00
0800
1E08
331C
6170
C180
8300
0D00
1900
1100
1000
1018
0FF8
ENDCHAR
STARTCHAR 3093
ENCODING 12435
SWIDTH 1000 0
DWIDTH 20 0
BBX 16 15 2 0
BITMAP
0100
0180
0100
0300
0200
0400
0C00
0800
1300
1C81
3081
2082
6082
40CC
C078
ENDCHAR
STARTCHAR 3094
ENCODING 12436
SWIDTH 1000 0
DWIDTH 20 0
BBX 15 17 4 0
BITMAP
100C
0F26
0798
1808
0000
0780
F8C0
E040
0060
0060
0060
0040
0040
0080
0100
0600
1800
ENDCHAR
STARTCHAR 3095
ENCODING 12437
SWIDTH 1000 0
DWIDTH 20 0
BBX 13 12 4 0
BITMAP
0800
0800
0800
1E20
F110
1118
2108
2138
4300
4200
CE00
8400
ENDCHAR
STARTCHAR 3096
ENCODING 12438
SWIDTH 1000 0
DWIDTH 20 0
BBX 12 14 5 -1
BITMAP
0100
8080
C080
8080
90F0
8F80
8080
8080
C080
C080
C080
8100
8200
0400
ENDCHAR
STARTCHAR 3099
ENCODING 12441
SWIDTH 1000 0
DWIDTH 20 0
BBX 5 4 14 13
BITMAP
20
18
E8
20
ENDCHAR
STARTCHAR 309A
ENCODING 12442
SWIDTH 1000 0
DWIDTH 20 0
BBX 4 4 15 13
BITMAP
E0
90
90
E0
ENDCHAR
STARTCHAR 309B
ENCODING 12443
SWIDTH 1000 0
DWIDTH 20 0
BBX 5 4 1 13
BITMAP
20
10
D8
60
ENDCHAR
STARTCHAR 309C
ENCODING 12444
SWIDTH 1000 0
DWIDTH 20 0
BBX 4 4 1 13
BITMAP
60
90
90
60
ENDCHAR
STARTCHAR 309D
ENCODING 12445
SWIDTH 1000 0
DWIDTH 20 0
BBX 6 10 7 2
BITMAP
80
80
40
40
20
18
0C
0C
1C
60
ENDCHAR
STARTCHAR 309E
ENCODING 12446
SWIDTH 1000 0
DWIDTH 20 0
BBX 9 12 7 2
BITMAP
0200
0980
8680
8200
4000
6000
3000
1800
0C00
1C00
2400
C000
ENDCHAR
STARTCHAR 309F
ENCODING 12447
SWIDTH 1000 0
DWIDTH 20 0
BBX 12 17 4 -1
BITMAP
0600
0200
0400
07F0
0800
0800
1000
2780
3880
6040
C040
80C0
0080
0080
4100
2200
1C00
ENDCHAR
STARTCHAR 30A0
ENCODING 12448
SWIDTH 1000 0
DWIDTH 20 0
BBX 9 3 6 6
BITMAP
FF80
0000
FF80
ENDCHAR
STARTCHAR 30A1
ENCODING 12449
SWIDTH 1000 0
DWIDTH 20 0
BBX 12 13 4 -1
BITMAP
0030
87F0
7860
0080
0700
0200
0200
0600
0400
0400
0800
1000
2000
ENDCHAR
STARTCHAR 30A2
ENCODING 12450
SWIDTH 1000 0
DWIDTH 20 0
BBX 14 16 3 -1
BITMAP
000C
80FC
7F18
0030
0060
0380
0100
0100
0300
0200
0200
0600
0400
0800
1000
2000
ENDCHAR
STARTCHAR 30A3
ENCODING 12451
SWIDTH 1000 0
DWIDTH 20 0
BBX 10 13 4 -1
BITMAP
00C0
00C0
0180
0300
0600
1A00
6200
8200
0200
0200
0200
0200
0200
ENDCHAR
STARTCHAR 30A4
ENCODING 12452
SWIDTH 1000 0
DWIDTH 20 0
BBX 13 15 2 0
BITMAP
0018
0018
0030
0060
0180
0380
0C80
3080
C080
0080
0080
0080
0080
0080
0080
ENDCHAR
STARTCHAR 30A5
ENCODING 12453
SWIDTH 1000 0
DWIDTH 20 0
BBX 10 13 5 -1
BITMAP
0C00
0C00
88C0
7740
40C0
4080
4080
4180
0100
0200
0400
0800
1000
ENDCHAR
STARTCHAR 30A6
ENCODING 12454
SWIDTH 1000 0
DWIDTH 20 0
BBX 13 16 4 0
BITMAP
0C00
0600
0600
8630
FFF8
4010
4030
4020
4020
4060
0040
00C0
0180
0300
0600
1800
ENDCHAR
ENDFONT
